<?xml version="1.0" standalone="no"?><!-- Generator: Gravit.io --><svg xmlns="http://www.w3.org/2000/svg" xmlns:xlink="http://www.w3.org/1999/xlink" style="isolation:isolate" viewBox="784 602 901.87 683" width="901.87" height="683"><g><rect x="801.58" y="826.67" width="75.37" height="11.45" transform="matrix(1,0,0,1,0,0)" fill="rgb(94,29,40)"/><path d=" M 801.58 837.85 L 793.05 1224 L 798.38 1224 L 810.19 838.12 L 801.58 837.85 L 801.58 837.85 Z " fill="rgb(109,2,3)"/><path d=" M 876.94 837.85 L 885.46 1224 L 880.14 1224 L 868.33 838.12 L 876.94 837.85 L 876.94 837.85 Z " fill="rgb(109,2,3)"/><path d=" M 817.64 838.12 L 808.5 1224 L 814.89 1224 L 823.33 837.85 L 817.64 838.12 L 817.64 838.12 Z " fill="rgb(1,0,1)"/><path d=" M 862.47 838.12 L 871.62 1224 L 865.22 1224 L 856.79 837.85 L 862.47 838.12 L 862.47 838.12 Z " fill="rgb(1,0,1)"/><rect x="815.96" y="1177.13" width="48.47" height="5.86" transform="matrix(1,0,0,1,0,0)" fill="rgb(46,44,46)"/><rect x="814.36" y="1144.64" width="52.2" height="5.86" transform="matrix(1,0,0,1,0,0)" fill="rgb(46,44,46)"/><rect x="815.96" y="1112.68" width="50.6" height="5.86" transform="matrix(1,0,0,1,0,0)" fill="rgb(46,44,46)"/><rect x="815.96" y="1080.19" width="48.47" height="5.86" transform="matrix(1,0,0,1,0,0)" fill="rgb(46,44,46)"/><rect x="815.96" y="1046.64" width="48.47" height="5.33" transform="matrix(1,0,0,1,0,0)" fill="rgb(46,44,46)"/><rect x="817.56" y="1014.68" width="46.87" height="6.39" transform="matrix(1,0,0,1,0,0)" fill="rgb(46,44,46)"/><rect x="817.56" y="982.72" width="45.27" height="4.26" transform="matrix(1,0,0,1,0,0)" fill="rgb(46,44,46)"/><rect x="819.15" y="948.64" width="39.95" height="6.92" transform="matrix(1,0,0,1,0,0)" fill="rgb(46,44,46)"/><rect x="819.15" y="916.68" width="41.54" height="5.86" transform="matrix(1,0,0,1,0,0)" fill="rgb(46,44,46)"/><rect x="819.15" y="883.66" width="41.54" height="6.39" transform="matrix(1,0,0,1,0,0)" fill="rgb(46,44,46)"/><rect x="821.28" y="851.17" width="37.82" height="6.39" transform="matrix(1,0,0,1,0,0)" fill="rgb(46,44,46)"/><rect x="784" y="804.83" width="110.78" height="23.44" transform="matrix(1,0,0,1,0,0)" fill="rgb(109,2,3)"/><g style="opacity:0.5;"><g opacity="0.5"><linearGradient id="_lgradient_0" x1="0.5000530570445447" y1="0.9995263469508586" x2="0.5000530570445448" y2="-0.00011841326228556603" gradientTransform="matrix(93.239,0,0,168.9,803.066,640)" gradientUnits="userSpaceOnUse"><stop offset="0%" stop-opacity="0.25" style="stop-color:rgb(128,128,128)"/><stop offset="54%" stop-opacity="0.12" style="stop-color:rgb(128,128,128)"/><stop offset="100%" stop-opacity="0.1" style="stop-color:rgb(128,128,128)"/></linearGradient><path d=" M 888.93 640 L 850.4 665.1 C 850.023 663.547 849.144 662.162 847.9 661.16 C 848.351 659.95 848.425 658.632 848.11 657.38 C 848.052 657.02 847.912 656.677 847.7 656.38 C 847.296 656.001 846.732 655.844 846.19 655.96 L 840.07 656.36 C 839.357 656.326 838.654 656.53 838.07 656.94 C 837.21 657.66 836.95 659.17 836.07 659.81 C 835.48 660.23 834.73 660.19 834.07 660.52 C 832.66 661.27 832.35 663.52 832.24 665.35 C 832.09 667.85 832.1 670.79 833.73 672.35 C 834.92 673.46 836.57 673.35 838.07 673.27 L 839.58 673.15 C 839.962 673.376 840.363 673.567 840.78 673.72 L 840.78 675.85 L 840.5 675.85 C 840.5 675.85 823.23 670.85 804.26 723.09 L 803.93 723.09 C 803.93 723.09 801.13 732.59 805.61 730.92 C 809.51 729.46 809.61 724.59 809.54 723.37 L 809.8 723.37 C 809.8 723.37 817.63 700.45 829.93 697.65 C 829.93 697.65 838.88 708.83 824.34 731.19 L 835.72 731.19 C 835.684 733.692 836.189 736.172 837.2 738.46 C 840.55 745.17 830.49 808.9 830.49 808.9 L 838.88 808.9 L 843.1 787.78 L 843.63 808.9 L 849.78 808.9 L 855.93 768.29 L 855.09 719.37 L 855.09 706.7 L 856.21 708.19 L 856.21 688.62 L 872.42 688.62 L 875.22 666.82 L 874.93 666.82 C 874.999 665.297 874.935 663.772 874.74 662.26 L 895.64 657.87 C 898.93 643.9 888.93 640 888.93 640 Z  M 870.63 667.16 L 865.73 679.69 C 865.73 679.69 852.31 673.54 847.28 675.78 L 847 675.78 L 847 673.12 C 849.089 671.913 850.442 669.747 850.61 667.34 L 870.76 663.11 C 870.499 664.441 870.452 665.804 870.62 667.15 L 870.63 667.16 Z " fill="url(#_lgradient_0)"/></g></g><path d=" M 873.68 670.37 C 873.68 670.37 874.32 661.13 871.44 663.16 C 871.44 663.16 869.8 670.94 869.8 670.94 L 873.68 670.37 Z " fill="rgb(253,165,125)"/><path d=" M 806.1 723.07 C 806.1 723.07 803.44 732.12 807.7 730.53 C 807.7 730.53 811.43 723.07 811.43 723.07 L 806.1 723.07 Z " fill="rgb(253,165,125)"/><rect x="841.26" y="674.6" width="5.86" height="5.33" transform="matrix(1,0,0,1,0,0)" fill="rgb(253,165,125)"/><rect x="836.46" y="703.9" width="4.79" height="23.97" transform="matrix(1,0,0,1,0,0)" fill="rgb(200,110,40)"/><g opacity="0.1"><rect x="836.46" y="703.9" width="4.79" height="23.97" transform="matrix(1,0,0,1,0,0)" fill="rgb(0,0,0)"/></g><path d=" M 843.54 678.07 L 849.08 678.07 C 852.256 678.07 854.83 680.644 854.83 683.82 L 854.83 719.61 L 837.83 719.61 L 837.83 683.82 C 837.83 680.66 840.38 678.092 843.54 678.07 L 843.54 678.07 Z " fill="rgb(255,255,255)"/><circle vector-effect="non-scaling-stroke" cx="843.65" cy="669.54" r="6.919999999999959" fill="rgb(253,165,125)"/><path d=" M 840.99 678.07 C 840.99 678.07 824.48 673.28 806.37 723.34 L 811.7 723.34 C 811.7 723.34 819.16 701.5 830.87 698.84 C 830.87 698.84 839.39 709.49 825.54 730.84 L 836.73 730.84 L 836.73 723.7 C 836.665 712.878 838.009 702.094 840.73 691.62 C 842.013 687.206 842.103 682.53 840.99 678.07 Z " fill="rgb(200,110,40)"/><path d=" M 847.38 678.07 L 847.38 679.67 C 847.38 679.67 851.11 696.18 854.3 706.83 L 855.93 709 L 855.93 690.32 L 871.38 690.32 L 874.04 669.55 L 869.78 669.55 L 864.93 681.79 C 864.93 681.79 852.17 675.93 847.38 678.07 Z " fill="rgb(200,110,39)"/><path d=" M 837.79 719.61 C 837.79 719.61 834.59 731.33 837.79 737.72 C 837.79 737.72 831.4 804.83 831.4 804.83 L 839.4 804.83 L 850.85 747.57 L 852.71 719.57 L 837.79 719.61 Z " fill="rgb(51,51,51)"/><path d=" M 854.84 719.61 L 855.64 766.21 L 849.78 804.83 L 843.92 804.83 L 841.79 719.61 L 854.84 719.61 L 854.84 719.61 Z " fill="rgb(51,51,51)"/><path d=" M 842.52 666.9 C 842.662 666.669 842.837 666.46 843.04 666.28 C 843.24 666.163 843.468 666.1 843.7 666.1 C 845.15 665.98 846.82 665.95 847.7 664.58 C 848.347 663.35 848.504 661.921 848.14 660.58 C 848.093 660.22 847.959 659.877 847.75 659.58 C 847.365 659.218 846.827 659.069 846.31 659.18 L 840.48 659.56 C 839.813 659.535 839.157 659.728 838.61 660.11 C 837.79 660.8 837.55 662.23 836.69 662.85 C 836.12 663.25 835.41 663.21 834.81 663.53 C 833.47 664.24 833.18 666.36 833.07 668.13 C 832.93 670.51 832.93 673.31 834.49 674.76 C 835.62 675.82 837.19 675.76 838.62 675.64 L 841.28 675.42 C 841.548 675.427 841.812 675.346 842.03 675.19 C 842.37 674.735 842.501 674.157 842.39 673.6 C 842.32 672.26 842.18 670.74 841.3 669.92 C 841.09 669.762 840.899 669.581 840.73 669.38 C 839.78 667.9 842.02 667.56 842.52 666.9 Z " fill="rgb(0,0,0)"/><path d=" M 887.06 644 C 887.06 644 896.65 647.73 893.45 661 L 850.31 670.05 L 850.31 667.92 L 887.06 644 Z " fill="rgb(109,2,3)"/><g opacity="0.1"><rect x="801.84" y="828" width="75.1" height="2.13" transform="matrix(1,0,0,1,0,0)" fill="rgb(0,0,0)"/></g><g opacity="0.1"><rect x="814.09" y="978.2" width="5.86" height="1.07" transform="matrix(1,0,0,1,0,0)" fill="rgb(0,0,0)"/></g><g opacity="0.1"><rect x="859.9" y="978.2" width="5.86" height="1.07" transform="matrix(1,0,0,1,0,0)" fill="rgb(0,0,0)"/></g><rect x="801.58" y="969.41" width="75.1" height="9.05" transform="matrix(1,0,0,1,0,0)" fill="rgb(109,2,3)"/><linearGradient id="_lgradient_1" x1="0" y1="0.5" x2="0.06540312923014283" y2="1.4978589232386035" gradientTransform="matrix(20.87,0,0,14.92,915.03,637.27)" gradientUnits="userSpaceOnUse"><stop offset="100%" stop-opacity="0.1" style="stop-color:rgb(128,128,128)"/><stop offset="100%" stop-opacity="0.10245479539194421" style="stop-color:rgb(128,128,128)"/><stop offset="100%" stop-opacity="0.12861633182572416" style="stop-color:rgb(128,128,128)"/></linearGradient><path d=" M 935.15 640.35 L 935.9 639.97 L 935.72 639.95 L 935.78 639.91 L 935.67 639.94 L 915.03 637.27 L 915.47 644.1 L 916.12 650.16 L 917.39 649.51 L 918.57 652.19 L 935.15 640.35 L 935.15 640.35 Z " fill="url(#_lgradient_1)"/><path d=" M 916.16 643.97 L 916.76 649.52 L 935.21 640.17 L 919.19 640.52 L 916.16 643.97 L 916.16 643.97 Z " fill="rgb(50,91,49)"/><g opacity="0.2"><path d=" M 916.16 643.97 L 916.76 649.52 L 935.21 640.17 L 919.19 640.52 L 916.16 643.97 L 916.16 643.97 Z " fill="rgb(0,0,0)"/></g><path d=" M 915.75 637.72 L 935.21 640.17 L 916.16 643.97 L 915.75 637.72 L 915.75 637.72 Z " fill="rgb(50,91,49)"/><path d=" M 919.04 651.36 L 935.1 640.11 L 916.48 645.65 L 919.04 651.36 L 919.04 651.36 Z " fill="rgb(50,91,49)"/><linearGradient id="_lgradient_2" x1="0" y1="0.5" x2="0.06540312923014305" y2="1.4978589232386035" gradientTransform="matrix(20.88,0,0,14.92,1015.09,608.68)" gradientUnits="userSpaceOnUse"><stop offset="100%" stop-opacity="0.1" style="stop-color:rgb(128,128,128)"/><stop offset="100%" stop-opacity="0.10245479539194421" style="stop-color:rgb(128,128,128)"/><stop offset="100%" stop-opacity="0.12861633182572413" style="stop-color:rgb(128,128,128)"/></linearGradient><path d=" M 1035.22 611.76 L 1035.97 611.38 L 1035.79 611.35 L 1035.85 611.31 L 1035.74 611.35 L 1015.09 608.68 L 1015.54 615.51 L 1016.19 621.57 L 1017.46 620.92 L 1018.64 623.6 L 1035.22 611.76 L 1035.22 611.76 Z " fill="url(#_lgradient_2)"/><path d=" M 1016.23 615.38 L 1016.83 620.93 L 1035.28 611.58 L 1019.26 611.93 L 1016.23 615.38 L 1016.23 615.38 Z " fill="rgb(50,91,49)"/><g opacity="0.2"><path d=" M 1016.23 615.38 L 1016.83 620.93 L 1035.28 611.58 L 1019.26 611.93 L 1016.23 615.38 L 1016.23 615.38 Z " fill="rgb(0,0,0)"/></g><path d=" M 1015.82 609.13 L 1035.28 611.58 L 1016.23 615.38 L 1015.82 609.13 L 1015.82 609.13 Z " fill="rgb(50,91,49)"/><path d=" M 1019.11 622.77 L 1035.17 611.52 L 1016.55 617.05 L 1019.11 622.77 L 1019.11 622.77 Z " fill="rgb(50,91,49)"/><linearGradient id="_lgradient_3" x1="0" y1="0.5" x2="0.2331059285073269" y2="1.4724513489603153" gradientTransform="matrix(32.14,0,0,22.94,1179.44,602)" gradientUnits="userSpaceOnUse"><stop offset="100%" stop-opacity="0.1" style="stop-color:rgb(128,128,128)"/><stop offset="100%" stop-opacity="0.10051825901245258" style="stop-color:rgb(128,128,128)"/><stop offset="100%" stop-opacity="0.12181908913370854" style="stop-color:rgb(128,128,128)"/></linearGradient><path d=" M 1210.55 602.84 L 1211.58 602.07 L 1211.31 602.08 L 1211.38 602 L 1211.23 602.08 L 1179.44 603.39 L 1181.88 613.57 L 1184.42 622.52 L 1186.17 621.21 L 1188.63 624.94 L 1210.55 602.84 L 1210.55 602.84 Z " fill="url(#_lgradient_3)"/><path d=" M 1182.89 613.19 L 1185.22 621.39 L 1210.6 602.54 L 1186.56 607.21 L 1182.89 613.19 L 1182.89 613.19 Z " fill="rgb(50,91,49)"/><g opacity="0.2"><path d=" M 1182.89 613.19 L 1185.22 621.39 L 1210.6 602.54 L 1186.56 607.21 L 1182.89 613.19 L 1182.89 613.19 Z " fill="rgb(0,0,0)"/></g><path d=" M 1180.66 603.88 L 1210.6 602.54 L 1182.89 613.19 L 1180.66 603.88 L 1180.66 603.88 Z " fill="rgb(50,91,49)"/><path d=" M 1189.13 623.58 L 1210.42 602.48 L 1183.8 615.63 L 1189.13 623.58 L 1189.13 623.58 Z " fill="rgb(50,91,49)"/><linearGradient id="_lgradient_4" x1="0" y1="0.5" x2="0.17708474031958293" y2="-0.484195607969242" gradientTransform="matrix(21.65,0,0,15.33,1105.33,652.57)" gradientUnits="userSpaceOnUse"><stop offset="100%" stop-opacity="0.25" style="stop-color:rgb(128,128,128)"/><stop offset="100%" stop-opacity="0.2433242212129897" style="stop-color:rgb(128,128,128)"/><stop offset="100%" stop-opacity="0.11944539683923298" style="stop-color:rgb(128,128,128)"/></linearGradient><path d=" M 1126.16 660.41 L 1126.98 660.22 L 1126.81 660.16 L 1126.88 660.13 L 1126.76 660.13 L 1107.37 652.57 L 1106.16 659.31 L 1105.33 665.34 L 1106.72 665.02 L 1107.21 667.9 L 1126.16 660.41 L 1126.16 660.41 Z " fill="url(#_lgradient_4)"/><path d=" M 1106.86 659.35 L 1106.1 664.87 L 1126.26 660.25 L 1110.63 656.73 L 1106.86 659.35 L 1106.86 659.35 Z " fill="rgb(50,91,49)"/><g opacity="0.2"><path d=" M 1106.86 659.35 L 1106.1 664.87 L 1126.26 660.25 L 1110.63 656.73 L 1106.86 659.35 L 1106.86 659.35 Z " fill="rgb(0,0,0)"/></g><path d=" M 1107.97 653.18 L 1126.26 660.25 L 1106.86 659.35 L 1107.97 653.18 L 1107.97 653.18 Z " fill="rgb(50,91,49)"/><path d=" M 1107.87 667.21 L 1126.17 660.16 L 1106.76 661.05 L 1107.87 667.21 L 1107.87 667.21 Z " fill="rgb(50,91,49)"/><g style="opacity:0.5;"><g opacity="0.5"><linearGradient id="_lgradient_5" x1="0" y1="0.5" x2="0.06540312923014216" y2="1.4978589232386037" gradientTransform="matrix(20.87,0,0,14.92,992,728.54)" gradientUnits="userSpaceOnUse"><stop offset="100%" stop-opacity="0.1" style="stop-color:rgb(128,128,128)"/><stop offset="100%" stop-opacity="0.10245642000835183" style="stop-color:rgb(128,128,128)"/><stop offset="100%" stop-opacity="0.1286220342293149" style="stop-color:rgb(128,128,128)"/></linearGradient><path d=" M 1012.13 731.63 L 1012.87 731.24 L 1012.7 731.22 L 1012.75 731.18 L 1012.64 731.21 L 992 728.54 L 992.45 735.38 L 993.1 741.43 L 994.37 740.78 L 995.54 743.46 L 1012.13 731.63 L 1012.13 731.63 Z " fill="url(#_lgradient_5)"/></g><g opacity="0.5"><path d=" M 993.14 735.25 L 993.74 740.79 L 1012.19 731.44 L 996.17 731.79 L 993.14 735.25 L 993.14 735.25 Z " fill="rgb(50,91,49)"/></g><g opacity="0.2"><path d=" M 993.14 735.25 L 993.74 740.79 L 1012.19 731.44 L 996.17 731.79 L 993.14 735.25 L 993.14 735.25 Z " fill="rgb(0,0,0)"/></g><g opacity="0.5"><path d=" M 992.73 728.99 L 1012.19 731.44 L 993.14 735.25 L 992.73 728.99 L 992.73 728.99 Z " fill="rgb(50,91,49)"/></g><g opacity="0.5"><path d=" M 996.02 742.63 L 1012.08 731.38 L 993.46 736.92 L 996.02 742.63 L 996.02 742.63 Z " fill="rgb(50,91,49)"/></g></g><g style="opacity:0.2;"><g opacity="0.2"><linearGradient id="_lgradient_6" x1="0" y1="0.5" x2="0.23310592850732648" y2="1.4724513489603155" gradientTransform="matrix(32.13,0,0,22.94,1204.74,639.39)" gradientUnits="userSpaceOnUse"><stop offset="100%" stop-opacity="0.1" style="stop-color:rgb(128,128,128)"/><stop offset="100%" stop-opacity="0.10053299305854103" style="stop-color:rgb(128,128,128)"/><stop offset="100%" stop-opacity="0.12187080563547902" style="stop-color:rgb(128,128,128)"/></linearGradient><path d=" M 1235.84 640.23 L 1236.87 639.45 L 1236.6 639.46 L 1236.68 639.39 L 1236.52 639.47 L 1204.74 640.77 L 1207.18 650.95 L 1209.71 659.91 L 1211.46 658.6 L 1213.93 662.33 L 1235.84 640.23 L 1235.84 640.23 Z " fill="url(#_lgradient_6)"/></g><g opacity="0.2"><path d=" M 1208.18 650.58 L 1210.51 658.77 L 1235.89 639.93 L 1211.85 644.6 L 1208.18 650.58 L 1208.18 650.58 Z " fill="rgb(50,91,49)"/></g><g opacity="0.2"><path d=" M 1208.18 650.58 L 1210.51 658.77 L 1235.89 639.93 L 1211.85 644.6 L 1208.18 650.58 L 1208.18 650.58 Z " fill="rgb(0,0,0)"/></g><g opacity="0.2"><path d=" M 1205.95 641.27 L 1235.89 639.93 L 1208.18 650.58 L 1205.95 641.27 L 1205.95 641.27 Z " fill="rgb(50,91,49)"/></g><g opacity="0.2"><path d=" M 1214.42 660.97 L 1235.71 639.87 L 1209.09 653.02 L 1214.42 660.97 L 1214.42 660.97 Z " fill="rgb(50,91,49)"/></g></g><g style="opacity:0.3;"><g opacity="0.3"><linearGradient id="_lgradient_7" x1="0" y1="0.5" x2="0.23310592850732756" y2="1.4724513489603153" gradientTransform="matrix(32.13,0,0,22.95,1289.41,750.45)" gradientUnits="userSpaceOnUse"><stop offset="100%" stop-opacity="0.1" style="stop-color:rgb(128,128,128)"/><stop offset="100%" stop-opacity="0.10056947097269416" style="stop-color:rgb(128,128,128)"/><stop offset="100%" stop-opacity="0.12199884311415646" style="stop-color:rgb(128,128,128)"/></linearGradient><path d=" M 1320.52 751.29 L 1321.54 750.52 L 1321.27 750.53 L 1321.35 750.45 L 1321.19 750.53 L 1289.41 751.84 L 1291.85 762.02 L 1294.39 770.98 L 1296.13 769.66 L 1298.6 773.4 L 1320.52 751.29 L 1320.52 751.29 Z " fill="url(#_lgradient_7)"/></g><g opacity="0.3"><path d=" M 1292.85 761.64 L 1295.18 769.84 L 1320.57 750.99 L 1296.52 755.66 L 1292.85 761.64 L 1292.85 761.64 Z " fill="rgb(50,91,49)"/></g><g opacity="0.2"><path d=" M 1292.85 761.64 L 1295.18 769.84 L 1320.57 750.99 L 1296.52 755.66 L 1292.85 761.64 L 1292.85 761.64 Z " fill="rgb(0,0,0)"/></g><g opacity="0.3"><path d=" M 1290.62 752.33 L 1320.57 750.99 L 1292.85 761.64 L 1290.62 752.33 L 1290.62 752.33 Z " fill="rgb(50,91,49)"/></g><g opacity="0.3"><path d=" M 1299.09 772.03 L 1320.38 750.94 L 1293.76 764.08 L 1299.09 772.03 L 1299.09 772.03 Z " fill="rgb(50,91,49)"/></g></g><g style="opacity:0.3;"><g opacity="0.3"><linearGradient id="_lgradient_8" x1="0" y1="0.5" x2="0.23310592850732648" y2="1.4724513489603155" gradientTransform="matrix(32.13,0,0,22.94,1551.13,805.44)" gradientUnits="userSpaceOnUse"><stop offset="100%" stop-opacity="0.1" style="stop-color:rgb(128,128,128)"/><stop offset="100%" stop-opacity="0.10037155063194307" style="stop-color:rgb(128,128,128)"/><stop offset="100%" stop-opacity="0.12130414271812016" style="stop-color:rgb(128,128,128)"/></linearGradient><path d=" M 1582.23 806.28 L 1583.26 805.5 L 1582.99 805.51 L 1583.07 805.44 L 1582.91 805.51 L 1551.13 806.82 L 1553.57 817 L 1556.1 825.96 L 1557.85 824.65 L 1560.31 828.38 L 1582.23 806.28 L 1582.23 806.28 Z " fill="url(#_lgradient_8)"/></g><g opacity="0.3"><path d=" M 1554.57 816.63 L 1556.9 824.82 L 1582.28 805.97 L 1558.24 810.64 L 1554.57 816.63 L 1554.57 816.63 Z " fill="rgb(50,91,49)"/></g><g opacity="0.2"><path d=" M 1554.57 816.63 L 1556.9 824.82 L 1582.28 805.97 L 1558.24 810.64 L 1554.57 816.63 L 1554.57 816.63 Z " fill="rgb(0,0,0)"/></g><g opacity="0.3"><path d=" M 1552.34 807.32 L 1582.28 805.97 L 1554.57 816.63 L 1552.34 807.32 L 1552.34 807.32 Z " fill="rgb(50,91,49)"/></g><g opacity="0.3"><path d=" M 1560.81 827.02 L 1582.1 805.92 L 1555.48 819.06 L 1560.81 827.02 L 1560.81 827.02 Z " fill="rgb(50,91,49)"/></g></g><g style="opacity:0.5;"><g opacity="0.5"><linearGradient id="_lgradient_9" x1="0" y1="0.5" x2="0.17708474031958382" y2="-0.4841956079692419" gradientTransform="matrix(21.65,0,0,15.33,1108.63,741.64)" gradientUnits="userSpaceOnUse"><stop offset="0%" stop-opacity="0.1" style="stop-color:rgb(128,128,128)"/></linearGradient><path d=" M 1129.46 749.49 L 1130.28 749.29 L 1130.11 749.23 L 1130.18 749.2 L 1130.06 749.21 L 1110.67 741.64 L 1109.46 748.38 L 1108.63 754.42 L 1110.01 754.09 L 1110.51 756.97 L 1129.46 749.49 L 1129.46 749.49 Z " fill="url(#_lgradient_9)"/></g><g opacity="0.5"><path d=" M 1110.16 748.42 L 1109.4 753.94 L 1129.56 749.32 L 1113.93 745.8 L 1110.16 748.42 L 1110.16 748.42 Z " fill="rgb(50,91,49)"/></g><g opacity="0.2"><path d=" M 1110.16 748.42 L 1109.4 753.94 L 1129.56 749.32 L 1113.93 745.8 L 1110.16 748.42 L 1110.16 748.42 Z " fill="rgb(0,0,0)"/></g><g opacity="0.5"><path d=" M 1111.27 742.25 L 1129.56 749.32 L 1110.16 748.42 L 1111.27 742.25 L 1111.27 742.25 Z " fill="rgb(50,91,49)"/></g><g opacity="0.5"><path d=" M 1111.17 756.29 L 1129.47 749.24 L 1110.06 750.12 L 1111.17 756.29 L 1111.17 756.29 Z " fill="rgb(50,91,49)"/></g></g><g style="opacity:0.5;"><g opacity="0.5"><linearGradient id="_lgradient_10" x1="0" y1="0.5" x2="0.1770847403195825" y2="-0.4841956079692421" gradientTransform="matrix(21.65,0,0,15.33,1468.21,872.5)" gradientUnits="userSpaceOnUse"><stop offset="0%" stop-opacity="0.1" style="stop-color:rgb(128,128,128)"/></linearGradient><path d=" M 1489.04 880.34 L 1489.86 880.15 L 1489.7 880.08 L 1489.76 880.06 L 1489.64 880.06 L 1470.26 872.5 L 1469.04 879.24 L 1468.21 885.27 L 1469.6 884.94 L 1470.1 887.83 L 1489.04 880.34 L 1489.04 880.34 Z " fill="url(#_lgradient_10)"/></g><g opacity="0.5"><path d=" M 1469.74 879.28 L 1468.99 884.8 L 1489.15 880.18 L 1473.51 876.66 L 1469.74 879.28 L 1469.74 879.28 Z " fill="rgb(50,91,49)"/></g><g opacity="0.2"><path d=" M 1469.74 879.28 L 1468.99 884.8 L 1489.15 880.18 L 1473.51 876.66 L 1469.74 879.28 L 1469.74 879.28 Z " fill="rgb(0,0,0)"/></g><g opacity="0.5"><path d=" M 1470.85 873.11 L 1489.15 880.18 L 1469.74 879.28 L 1470.85 873.11 L 1470.85 873.11 Z " fill="rgb(50,91,49)"/></g><g opacity="0.5"><path d=" M 1470.75 887.14 L 1489.05 880.09 L 1469.65 880.98 L 1470.75 887.14 L 1470.75 887.14 Z " fill="rgb(50,91,49)"/></g></g><g style="opacity:0.5;"><g opacity="0.5"><linearGradient id="_lgradient_11" x1="0" y1="0.5" x2="0.17708474031958338" y2="-0.4841956079692419" gradientTransform="matrix(21.65,0,0,15.33,1446.22,733.94)" gradientUnits="userSpaceOnUse"><stop offset="0%" stop-opacity="0.19052185757491263" style="stop-color:rgb(128,128,128)"/><stop offset="100%" stop-opacity="0.2464655357079126" style="stop-color:rgb(128,128,128)"/><stop offset="100%" stop-opacity="0.11970636758188812" style="stop-color:rgb(128,128,128)"/></linearGradient><path d=" M 1467.05 741.79 L 1467.87 741.59 L 1467.7 741.53 L 1467.77 741.5 L 1467.65 741.51 L 1448.26 733.94 L 1447.05 740.68 L 1446.22 746.72 L 1447.61 746.39 L 1448.11 749.27 L 1467.05 741.79 L 1467.05 741.79 Z " fill="url(#_lgradient_11)"/></g><g opacity="0.5"><path d=" M 1447.75 740.72 L 1446.99 746.24 L 1467.16 741.62 L 1451.52 738.1 L 1447.75 740.72 L 1447.75 740.72 Z " fill="rgb(50,91,49)"/></g><g opacity="0.2"><path d=" M 1447.75 740.72 L 1446.99 746.24 L 1467.16 741.62 L 1451.52 738.1 L 1447.75 740.72 L 1447.75 740.72 Z " fill="rgb(0,0,0)"/></g><g opacity="0.5"><path d=" M 1448.86 734.56 L 1467.16 741.62 L 1447.75 740.72 L 1448.86 734.56 L 1448.86 734.56 Z " fill="rgb(50,91,49)"/></g><g opacity="0.5"><path d=" M 1448.76 748.59 L 1467.06 741.54 L 1447.65 742.42 L 1448.76 748.59 L 1448.76 748.59 Z " fill="rgb(50,91,49)"/></g></g><g style="opacity:0.2;"><g opacity="0.2"><linearGradient id="_lgradient_12" x1="0" y1="0.5" x2="0.17708474031958338" y2="-0.4841956079692419" gradientTransform="matrix(21.65,0,0,15.33,1628.76,618.48)" gradientUnits="userSpaceOnUse"><stop offset="100%" stop-opacity="0.25" style="stop-color:rgb(128,128,128)"/><stop offset="100%" stop-opacity="0.24770749333242528" style="stop-color:rgb(128,128,128)"/><stop offset="100%" stop-opacity="0.11980954559992454" style="stop-color:rgb(128,128,128)"/></linearGradient><path d=" M 1649.59 626.32 L 1650.41 626.13 L 1650.25 626.07 L 1650.31 626.04 L 1650.19 626.05 L 1630.8 618.48 L 1629.59 625.22 L 1628.76 631.26 L 1630.15 630.93 L 1630.65 633.81 L 1649.59 626.32 L 1649.59 626.32 Z " fill="url(#_lgradient_12)"/></g><g opacity="0.2"><path d=" M 1630.29 625.26 L 1629.53 630.78 L 1649.7 626.16 L 1634.06 622.64 L 1630.29 625.26 L 1630.29 625.26 Z " fill="rgb(50,91,49)"/></g><g opacity="0.2"><path d=" M 1630.29 625.26 L 1629.53 630.78 L 1649.7 626.16 L 1634.06 622.64 L 1630.29 625.26 L 1630.29 625.26 Z " fill="rgb(0,0,0)"/></g><g opacity="0.2"><path d=" M 1631.4 619.09 L 1649.7 626.16 L 1630.29 625.26 L 1631.4 619.09 L 1631.4 619.09 Z " fill="rgb(50,91,49)"/></g><g opacity="0.2"><path d=" M 1631.3 633.13 L 1649.6 626.07 L 1630.2 626.96 L 1631.3 633.13 L 1631.3 633.13 Z " fill="rgb(50,91,49)"/></g></g><g style="opacity:0.2;"><g opacity="0.2"><linearGradient id="_lgradient_13" x1="0" y1="0.5" x2="0.17708474031958338" y2="-0.4841956079692419" gradientTransform="matrix(21.66,0,0,15.33,953.57,655.87)" gradientUnits="userSpaceOnUse"><stop offset="0%" stop-opacity="0.1" style="stop-color:rgb(128,128,128)"/></linearGradient><path d=" M 974.41 663.71 L 975.23 663.52 L 975.06 663.45 L 975.13 663.43 L 975.01 663.43 L 955.62 655.87 L 954.41 662.61 L 953.57 668.64 L 954.97 668.31 L 955.46 671.2 L 974.41 663.71 L 974.41 663.71 Z " fill="url(#_lgradient_13)"/></g><g opacity="0.2"><path d=" M 955.11 662.65 L 954.35 668.17 L 974.51 663.55 L 958.88 660.03 L 955.11 662.65 L 955.11 662.65 Z " fill="rgb(50,91,49)"/></g><g opacity="0.2"><path d=" M 955.11 662.65 L 954.35 668.17 L 974.51 663.55 L 958.88 660.03 L 955.11 662.65 L 955.11 662.65 Z " fill="rgb(0,0,0)"/></g><g opacity="0.2"><path d=" M 956.22 656.48 L 974.51 663.55 L 955.11 662.65 L 956.22 656.48 L 956.22 656.48 Z " fill="rgb(50,91,49)"/></g><g opacity="0.2"><path d=" M 956.12 670.51 L 974.42 663.46 L 955.01 664.35 L 956.12 670.51 L 956.12 670.51 Z " fill="rgb(50,91,49)"/></g></g><linearGradient id="_lgradient_14" x1="0" y1="0.5" x2="0.06540312923014371" y2="1.4978589232386035" gradientTransform="matrix(31.9,0,0,22.8,1335.06,634.47)" gradientUnits="userSpaceOnUse"><stop offset="100%" stop-opacity="0.1" style="stop-color:rgb(128,128,128)"/><stop offset="100%" stop-opacity="0.10142353215789152" style="stop-color:rgb(128,128,128)"/><stop offset="100%" stop-opacity="0.12499659787419917" style="stop-color:rgb(128,128,128)"/></linearGradient><path d=" M 1365.82 639.19 L 1366.96 638.6 L 1366.69 638.56 L 1366.78 638.5 L 1366.61 638.55 L 1335.06 634.47 L 1335.75 644.92 L 1336.74 654.18 L 1338.68 653.17 L 1340.48 657.27 L 1365.82 639.19 L 1365.82 639.19 Z " fill="url(#_lgradient_14)"/><path d=" M 1336.8 644.72 L 1337.71 653.19 L 1365.91 638.9 L 1341.43 639.44 L 1336.8 644.72 L 1336.8 644.72 Z " fill="rgb(50,91,49)"/><g opacity="0.2"><path d=" M 1336.8 644.72 L 1337.71 653.19 L 1365.91 638.9 L 1341.43 639.44 L 1336.8 644.72 L 1336.8 644.72 Z " fill="rgb(0,0,0)"/></g><path d=" M 1336.17 635.16 L 1365.91 638.9 L 1336.8 644.72 L 1336.17 635.16 L 1336.17 635.16 Z " fill="rgb(50,91,49)"/><path d=" M 1341.2 656.01 L 1365.75 638.81 L 1337.29 647.27 L 1341.2 656.01 L 1341.2 656.01 Z " fill="rgb(50,91,49)"/><linearGradient id="_lgradient_15" x1="0" y1="0.5" x2="0.45507873047518776" y2="-0.3904512053274404" gradientTransform="matrix(77.65,0,0,51.14,1364.56,755.47)" gradientUnits="userSpaceOnUse"><stop offset="0%" stop-opacity="0.2494224451092849" style="stop-color:rgb(128,128,128)"/><stop offset="100%" stop-opacity="0.2484513734561745" style="stop-color:rgb(128,128,128)"/><stop offset="100%" stop-opacity="0.11987134487174372" style="stop-color:rgb(128,128,128)"/></linearGradient><path d=" M 1439.27 800.78 L 1442.21 800.96 L 1441.72 800.58 L 1441.97 800.56 L 1441.57 800.46 L 1384.37 755.47 L 1373.47 776.79 L 1364.56 796.15 L 1369.55 796.45 L 1368.29 806.61 L 1439.27 800.78 L 1439.27 800.78 Z " fill="url(#_lgradient_15)"/><path d=" M 1375.77 777.63 L 1367.64 795.34 L 1439.8 800.33 L 1391.06 772.69 L 1375.77 777.63 L 1375.77 777.63 Z " fill="rgb(50,91,49)"/><g opacity="0.2"><path d=" M 1375.77 777.63 L 1367.64 795.34 L 1439.8 800.33 L 1391.06 772.69 L 1375.77 777.63 L 1375.77 777.63 Z " fill="rgb(0,0,0)"/></g><path d=" M 1385.74 758.13 L 1439.8 800.33 L 1375.77 777.63 L 1385.74 758.13 L 1385.74 758.13 Z " fill="rgb(50,91,49)"/><path d=" M 1371.17 804.98 L 1439.57 799.96 L 1373.73 783.22 L 1371.17 804.98 L 1371.17 804.98 Z " fill="rgb(50,91,49)"/><linearGradient id="_lgradient_16" x1="0" y1="0.5" x2="0.4311007120173887" y2="-0.402303815850349" gradientTransform="matrix(162.38,0,0,107.76,1523.49,879.98)" gradientUnits="userSpaceOnUse"><stop offset="0%" stop-opacity="0.1" style="stop-color:rgb(128,128,128)"/></linearGradient><path d=" M 1679.72 971.08 L 1685.87 971.28 L 1684.83 970.51 L 1685.33 970.45 L 1684.5 970.27 L 1562.26 879.98 L 1540.86 925.18 L 1523.49 966.14 L 1533.91 966.47 L 1531.93 987.74 L 1679.72 971.08 L 1679.72 971.08 Z " fill="url(#_lgradient_16)"/><path d=" M 1545.72 926.79 L 1529.86 964.27 L 1680.8 970.12 L 1577.31 915.5 L 1545.72 926.79 L 1545.72 926.79 Z " fill="rgb(50,91,49)"/><g opacity="0.2"><path d=" M 1545.72 926.79 L 1529.86 964.27 L 1680.8 970.12 L 1577.31 915.5 L 1545.72 926.79 L 1545.72 926.79 Z " fill="rgb(0,0,0)"/></g><path d=" M 1565.29 885.45 L 1680.8 970.12 L 1545.72 926.79 L 1565.29 885.45 L 1565.29 885.45 Z " fill="rgb(50,91,49)"/><path d=" M 1537.85 984.16 L 1680.29 969.35 L 1541.82 938.59 L 1537.85 984.16 L 1537.85 984.16 Z " fill="rgb(50,91,49)"/><linearGradient id="_lgradient_17" x1="0" y1="0.5" x2="0.009999500037496774" y2="1.4999500037496876" gradientTransform="matrix(72.4,0,0,52.73,1505.35,612.84)" gradientUnits="userSpaceOnUse"><stop offset="100%" stop-opacity="0.1" style="stop-color:rgb(128,128,128)"/><stop offset="100%" stop-opacity="0.10070066282703437" style="stop-color:rgb(128,128,128)"/><stop offset="100%" stop-opacity="0.12245932652289064" style="stop-color:rgb(128,128,128)"/></linearGradient><path d=" M 1575.07 627.22 L 1577.75 626 L 1577.14 625.89 L 1577.35 625.76 L 1576.95 625.86 L 1505.35 612.84 L 1505.69 636.79 L 1506.86 658.06 L 1511.41 656 L 1515.05 665.57 L 1575.07 627.22 L 1575.07 627.22 Z " fill="url(#_lgradient_17)"/><path d=" M 1508.12 636.45 L 1509.21 655.91 L 1575.33 626.57 L 1519.32 624.93 L 1508.12 636.45 L 1508.12 636.45 Z " fill="rgb(50,91,49)"/><g opacity="0.2"><path d=" M 1508.12 636.45 L 1509.21 655.91 L 1575.33 626.57 L 1519.32 624.93 L 1508.12 636.45 L 1508.12 636.45 Z " fill="rgb(0,0,0)"/></g><path d=" M 1507.81 614.55 L 1575.33 626.57 L 1508.12 636.45 L 1507.81 614.55 L 1507.81 614.55 Z " fill="rgb(50,91,49)"/><path d=" M 1516.84 662.78 L 1574.95 626.35 L 1508.93 642.35 L 1516.84 662.78 L 1516.84 662.78 Z " fill="rgb(50,91,49)"/><linearGradient id="_lgradient_18" x1="0" y1="0.5" x2="0.009999500037496774" y2="1.4999500037496876" gradientTransform="matrix(72.4,0,0,52.73,1581.23,693.11)" gradientUnits="userSpaceOnUse"><stop offset="100%" stop-opacity="0.1" style="stop-color:rgb(128,128,128)"/><stop offset="100%" stop-opacity="0.10070066282703437" style="stop-color:rgb(128,128,128)"/><stop offset="100%" stop-opacity="0.12245932652289065" style="stop-color:rgb(128,128,128)"/></linearGradient><path d=" M 1650.94 707.49 L 1653.63 706.28 L 1653.02 706.17 L 1653.22 706.03 L 1652.83 706.13 L 1581.23 693.11 L 1581.57 717.06 L 1582.74 738.33 L 1587.29 736.28 L 1590.93 745.84 L 1650.94 707.49 L 1650.94 707.49 Z " fill="url(#_lgradient_18)"/><path d=" M 1584 716.73 L 1585.08 736.19 L 1651.2 706.85 L 1595.19 705.21 L 1584 716.73 L 1584 716.73 Z " fill="rgb(50,91,49)"/><g opacity="0.2"><path d=" M 1584 716.73 L 1585.08 736.19 L 1651.2 706.85 L 1595.19 705.21 L 1584 716.73 L 1584 716.73 Z " fill="rgb(0,0,0)"/></g><path d=" M 1583.68 694.83 L 1651.2 706.85 L 1584 716.73 L 1583.68 694.83 L 1583.68 694.83 Z " fill="rgb(50,91,49)"/><path d=" M 1592.72 743.05 L 1650.82 706.63 L 1584.81 722.62 L 1592.72 743.05 L 1592.72 743.05 Z " fill="rgb(50,91,49)"/><linearGradient id="_lgradient_19" x1="0" y1="0.5" x2="0.06540312923014238" y2="1.4978589232386037" gradientTransform="matrix(31.9,0,0,22.8,1235.8,698.02)" gradientUnits="userSpaceOnUse"><stop offset="100%" stop-opacity="0.1" style="stop-color:rgb(128,128,128)"/><stop offset="100%" stop-opacity="0.10160677516563621" style="stop-color:rgb(128,128,128)"/><stop offset="100%" stop-opacity="0.12563978083138305" style="stop-color:rgb(128,128,128)"/></linearGradient><path d=" M 1266.55 702.73 L 1267.7 702.14 L 1267.43 702.11 L 1267.51 702.05 L 1267.34 702.1 L 1235.8 698.02 L 1236.49 708.46 L 1237.47 717.72 L 1239.41 716.72 L 1241.21 720.82 L 1266.55 702.73 L 1266.55 702.73 Z " fill="url(#_lgradient_19)"/><path d=" M 1237.54 708.27 L 1238.45 716.73 L 1266.65 702.45 L 1242.17 702.99 L 1237.54 708.27 L 1237.54 708.27 Z " fill="rgb(50,91,49)"/><g opacity="0.2"><path d=" M 1237.54 708.27 L 1238.45 716.73 L 1266.65 702.45 L 1242.17 702.99 L 1237.54 708.27 L 1237.54 708.27 Z " fill="rgb(0,0,0)"/></g><path d=" M 1236.91 698.71 L 1266.65 702.45 L 1237.54 708.27 L 1236.91 698.71 L 1236.91 698.71 Z " fill="rgb(50,91,49)"/><path d=" M 1241.93 719.56 L 1266.48 702.36 L 1238.02 710.82 L 1241.93 719.56 L 1241.93 719.56 Z " fill="rgb(50,91,49)"/><linearGradient id="_lgradient_20" x1="0" y1="0.5" x2="0.06540312923014327" y2="1.4978589232386035" gradientTransform="matrix(31.89,0,0,22.8,1426.04,683.72)" gradientUnits="userSpaceOnUse"><stop offset="100%" stop-opacity="0.1" style="stop-color:rgb(128,128,128)"/><stop offset="100%" stop-opacity="0.10132263901808612" style="stop-color:rgb(128,128,128)"/><stop offset="100%" stop-opacity="0.12464246295348223" style="stop-color:rgb(128,128,128)"/></linearGradient><path d=" M 1456.79 688.44 L 1457.93 687.85 L 1457.67 687.81 L 1457.75 687.75 L 1457.58 687.8 L 1426.04 683.72 L 1426.72 694.17 L 1427.71 703.43 L 1429.65 702.43 L 1431.45 706.52 L 1456.79 688.44 L 1456.79 688.44 Z " fill="url(#_lgradient_20)"/><path d=" M 1427.78 693.97 L 1428.69 702.44 L 1456.89 688.15 L 1432.41 688.69 L 1427.78 693.97 L 1427.78 693.97 Z " fill="rgb(50,91,49)"/><g opacity="0.2"><path d=" M 1427.78 693.97 L 1428.69 702.44 L 1456.89 688.15 L 1432.41 688.69 L 1427.78 693.97 L 1427.78 693.97 Z " fill="rgb(0,0,0)"/></g><path d=" M 1427.15 684.42 L 1456.89 688.15 L 1427.78 693.97 L 1427.15 684.42 L 1427.15 684.42 Z " fill="rgb(50,91,49)"/><path d=" M 1432.17 705.26 L 1456.72 688.06 L 1428.26 696.53 L 1432.17 705.26 L 1432.17 705.26 Z " fill="rgb(50,91,49)"/></g></svg>