<?xml version="1.0" standalone="no"?><!-- Generator: Gravit.io --><svg xmlns="http://www.w3.org/2000/svg" xmlns:xlink="http://www.w3.org/1999/xlink" style="isolation:isolate" viewBox="373.688 569.998 451.035 68.53" width="451.035" height="68.53"><path d=" M 559.215 579.774 L 559.522 579.466 L 563.966 580.731 L 565.88 580.731 L 565.88 580.731 Q 569.4 579.774 572.271 579.774 L 572.271 579.774 L 572.271 581.073 L 572.271 581.073 Q 570.973 582.508 570.973 583.294 L 570.973 583.294 L 571.314 585.824 L 570.973 586.165 L 570.973 586.473 L 571.622 589.037 L 571.622 592.83 L 571.622 592.83 Q 570.357 594.539 570.357 595.702 L 570.357 595.702 L 570.357 596.351 L 572.271 600.794 L 570.357 604.93 L 571.93 607.494 L 571.93 607.801 L 571.314 611.322 L 571.314 617.371 L 571.93 618.329 L 571.93 619.901 L 571.622 621.815 L 571.93 622.157 L 571.93 622.464 L 571.314 624.994 L 571.93 627.557 L 564.308 628.514 L 561.129 627.865 L 559.83 628.206 L 558.258 627.865 L 556.036 628.514 L 555.079 628.206 L 554.122 628.514 L 554.122 628.514 Q 553.473 627.728 553.165 625.335 L 553.165 625.335 L 553.165 625.335 Q 556.036 625.335 556.036 620.243 L 556.036 620.243 L 556.036 619.593 L 555.694 616.722 L 556.036 611.937 L 556.036 607.801 L 554.737 603.973 L 554.737 602.708 L 554.737 602.708 Q 555.387 602.093 556.344 594.745 L 556.344 594.745 L 556.959 593.787 L 556.344 591.873 L 556.651 589.652 L 556.651 589.652 Q 556.002 583.294 554.122 583.294 L 554.122 583.294 L 554.122 583.294 Q 552.96 583.294 552.516 582.03 L 552.516 582.03 L 552.516 582.03 Q 552.516 580.492 559.215 579.774 L 559.215 579.774 L 559.215 579.774 Z  M 575.143 580.116 L 577.979 579.774 L 582.457 582.953 L 582.457 582.953 Q 586.08 582.953 590.421 588.387 L 590.421 588.387 L 590.421 588.387 Q 591.925 594.437 593.907 594.437 L 593.907 594.437 L 593.907 594.437 Q 594.249 597.923 594.864 598.573 L 594.864 598.573 L 594.864 601.136 L 594.557 603.973 L 594.864 605.272 L 594.249 606.537 L 594.864 607.801 L 594.864 607.801 Q 592.13 619.901 589.464 619.901 L 589.464 619.901 L 589.771 621.507 L 589.771 621.507 Q 587.174 621.952 583.722 626.292 L 583.722 626.292 L 583.722 626.292 Q 577.672 627.215 577.057 628.206 L 577.057 628.206 L 577.057 628.206 Q 574.493 628.206 574.493 624.378 L 574.493 624.378 L 578.321 622.157 L 578.321 621.507 L 578.629 621.507 L 578.321 611.937 L 578.321 606.844 L 578.629 604.622 L 578.321 604.315 L 577.979 603.358 L 577.672 603.358 L 578.321 601.444 L 577.979 599.53 L 578.321 599.222 L 578.629 599.222 L 578.321 596.659 L 578.321 596.659 Q 579.039 595.804 579.278 591.873 L 579.278 591.873 L 578.321 590.609 L 578.629 589.344 L 578.629 589.344 Q 578.15 589.344 577.057 586.781 L 577.057 586.781 L 577.364 585.824 L 577.057 583.91 L 577.364 583.91 L 577.057 582.953 L 575.143 582.953 L 575.143 580.116 L 575.143 580.116 Z  M 601.017 633.436 L 601.017 637.503 L 599.991 637.708 L 599.171 637.298 L 598.761 637.435 L 598.214 637.298 L 597.12 637.572 L 596.983 637.435 L 595.753 637.435 L 594.249 637.572 L 594.249 637.572 Q 593.702 637.298 592.745 637.298 L 592.745 637.298 L 591.515 637.572 L 591.515 637.572 Q 589.874 637.572 589.054 637.025 L 589.054 637.025 L 587.823 637.435 L 586.456 637.298 L 586.319 637.298 L 586.183 637.435 L 585.362 637.162 L 584.405 637.708 L 582.218 637.298 L 581.124 637.572 L 580.577 637.298 L 580.03 637.435 L 579.894 637.435 L 579.62 637.162 L 579.62 637.162 Q 577.774 637.162 577.022 637.845 L 577.022 637.845 L 576.476 637.708 L 575.792 637.845 L 575.792 637.845 Q 575.792 637.572 574.015 637.435 L 574.015 637.435 L 573.604 637.572 L 571.827 637.162 L 570.733 637.572 L 569.64 637.572 L 569.093 637.708 L 569.093 637.708 Q 567.042 637.537 567.042 637.162 L 567.042 637.162 L 564.171 637.572 L 561.71 637.435 L 559.522 637.708 L 557.608 637.298 L 554.737 637.298 L 554.737 637.298 Q 554.498 637.537 553.097 637.708 L 553.097 637.708 L 552.276 637.572 L 552.003 637.674 L 552.003 633.128 L 555.011 633.607 L 555.011 633.607 Q 555.763 633.607 556.515 633.197 L 556.515 633.197 L 556.515 633.197 Q 557.369 633.197 558.155 633.607 L 558.155 633.607 L 560.343 633.197 L 563.487 633.47 L 563.487 633.333 L 563.761 633.333 L 564.171 633.607 L 565.265 633.333 L 565.948 633.333 L 566.769 633.607 L 569.093 633.333 L 571.007 633.744 L 572.101 633.607 L 573.604 633.744 L 575.245 633.333 L 575.792 633.47 L 580.714 633.06 L 580.851 633.197 L 581.808 633.06 L 582.354 633.197 L 582.354 633.197 Q 582.73 633.709 583.448 633.88 L 583.448 633.88 L 583.448 633.88 Q 584.815 633.504 584.815 633.333 L 584.815 633.333 L 586.046 633.47 L 586.046 633.47 Q 586.764 633.06 587.413 633.06 L 587.413 633.06 L 587.96 633.06 L 588.78 633.333 L 589.874 633.197 L 591.651 633.47 L 593.155 632.923 L 593.155 632.923 Q 596.026 633.47 598.487 633.47 L 598.487 633.47 L 598.624 633.47 L 598.761 633.333 L 598.897 633.47 L 599.991 633.333 L 600.812 633.47 L 600.812 633.47 Q 600.914 633.47 601.017 633.436 L 601.017 633.436 L 601.017 633.436 Z  M 601.017 571.537 L 601.017 575.228 L 599.137 574.989 L 596.813 575.536 L 594.898 575.262 L 594.078 575.399 L 591.891 575.399 L 590.66 575.809 L 589.703 575.536 L 589.293 575.672 L 588.336 575.399 L 588.199 575.399 L 588.063 575.536 L 586.148 575.125 L 585.602 575.262 L 584.234 574.989 L 582.594 575.399 L 582.184 575.399 L 581.09 575.125 L 580.953 575.262 L 579.723 575.125 L 579.176 575.399 L 578.629 575.125 L 577.125 575.125 L 576.031 575.536 L 575.895 575.536 L 575.758 575.399 L 573.57 575.946 L 572.203 575.262 L 570.973 575.262 L 569.605 575.399 L 569.332 575.125 L 569.059 575.399 L 567.418 575.262 L 566.051 575.262 L 565.367 575.125 L 564.957 575.536 L 563.727 575.125 L 563.18 575.262 L 563.043 575.262 L 562.906 575.125 L 562.086 575.536 L 560.582 575.262 L 559.625 575.399 L 557.711 574.852 L 553.883 575.399 L 553.746 575.262 L 553.063 575.399 L 552.242 575.262 L 552.003 575.296 L 552.003 571.195 L 552.003 571.195 Q 552.105 571.434 552.652 571.434 L 552.652 571.434 L 552.926 571.434 L 553.063 571.297 L 553.746 571.707 L 554.156 571.707 L 554.156 571.707 Q 554.43 571.434 555.25 571.434 L 555.25 571.434 L 555.934 570.75 L 559.762 571.707 L 559.898 571.707 L 561.676 570.887 L 561.813 571.024 L 563.043 571.024 L 563.043 571.024 Q 563.248 571.024 563.453 571.571 L 563.453 571.571 L 566.461 571.161 L 566.461 571.161 Q 567.213 571.434 568.375 571.434 L 568.375 571.434 L 568.375 571.434 Q 568.956 571.434 569.605 571.024 L 569.605 571.024 L 570.426 571.434 L 571.109 571.434 L 572.613 571.297 L 574.254 571.707 L 574.254 571.707 Q 575.997 571.331 576.305 570.887 L 576.305 570.887 L 576.988 571.297 L 576.988 571.297 Q 578.048 571.297 579.039 570.34 L 579.039 570.34 L 579.039 570.34 Q 579.62 570.477 580.133 571.024 L 580.133 571.024 L 580.133 571.024 Q 582.457 571.537 582.457 571.844 L 582.457 571.844 L 583.551 571.571 L 583.688 571.707 L 583.824 571.707 L 584.645 571.434 L 586.148 571.571 L 590.25 570.75 L 593.668 571.161 L 595.719 571.024 L 595.855 571.161 L 596.402 571.024 L 598.043 571.024 L 599.82 571.571 L 600.914 571.571 L 601.017 571.537 L 601.017 571.537 Z  M 608.536 579.774 L 608.536 579.466 L 608.536 579.466 Q 612.193 581.038 616.158 581.38 L 616.158 581.38 L 618.38 580.731 L 618.38 580.731 Q 618.995 580.731 620.602 583.26 L 620.602 583.26 L 620.602 586.131 L 619.337 588.011 L 619.337 589.618 L 619.645 593.412 L 618.995 597.855 L 621.217 602.948 L 621.217 602.948 Q 621.217 604.725 618.38 612.142 L 618.38 612.142 L 618.38 612.45 L 618.995 613.407 L 618.688 614.671 L 619.337 617.85 L 618.995 618.158 L 618.995 618.465 L 619.337 618.773 L 619.337 619.73 L 618.995 619.73 L 619.337 621.952 L 619.337 627.352 L 618.995 627.66 L 618.995 627.967 L 618.688 627.66 L 618.38 627.66 L 612.672 628.617 L 608.536 626.395 L 604.742 627.967 L 604.093 627.967 L 604.093 627.967 Q 602.35 627.967 600.948 625.78 L 600.948 625.78 L 600.948 625.78 Q 600.948 624.481 603.785 623.866 L 603.785 623.866 L 604.093 623.558 L 604.093 623.216 L 603.478 621.952 L 604.742 618.465 L 604.742 618.465 Q 604.742 615.662 603.785 614.364 L 603.785 614.364 L 604.435 611.8 L 604.435 608.656 L 604.093 607.357 L 604.435 606.092 L 603.785 601.649 L 604.742 598.162 L 603.785 593.104 L 604.742 588.011 L 604.742 588.011 Q 602.999 584.662 600.299 583.26 L 600.299 583.26 L 600.299 583.26 Q 600.299 579.774 608.536 579.774 L 608.536 579.774 L 608.536 579.774 Z  M 625.045 579.466 L 625.045 579.466 L 626.31 580.116 L 626.617 579.774 L 626.925 579.774 L 630.411 580.423 L 633.897 580.116 L 636.461 580.731 L 636.461 582.303 L 636.769 592.454 L 636.769 592.454 Q 635.401 594.163 633.59 594.369 L 633.59 594.369 L 631.061 591.19 L 631.061 590.233 L 631.368 589.925 L 631.368 589.925 Q 629.352 586.131 627.267 586.131 L 627.267 586.131 L 626.925 584.867 L 624.088 585.174 L 624.088 585.174 Q 622.481 584.969 622.481 583.26 L 622.481 583.26 L 622.481 580.731 L 622.481 580.731 Q 622.481 580.116 625.045 579.466 Z  M 627.574 593.412 L 628.839 593.412 L 628.839 595.326 L 628.839 595.326 Q 629.693 595.326 630.411 605.785 L 630.411 605.785 L 630.104 606.742 L 631.061 609.271 L 630.753 609.579 L 631.061 611.185 L 631.061 611.185 Q 630.65 613.714 629.146 613.714 L 629.146 613.714 L 629.146 613.714 Q 627.95 613.646 625.353 609.579 L 625.353 609.579 L 625.353 609.579 Q 624.703 609.579 624.703 607.699 L 624.703 607.699 L 622.481 605.477 L 622.481 605.477 Q 622.481 601.034 624.703 601.034 L 624.703 601.034 L 624.703 601.034 Q 624.703 600.384 625.66 600.384 L 625.66 600.384 L 627.267 593.719 L 627.574 593.412 L 627.574 593.412 Z  M 634.854 613.065 L 635.504 613.065 L 635.504 613.065 Q 636.974 613.065 637.384 618.158 L 637.384 618.158 L 637.726 618.158 L 636.769 620.687 L 637.076 620.995 L 636.769 622.601 L 636.769 627.66 L 635.504 627.967 L 629.488 627.044 L 622.823 627.967 L 623.131 627.044 L 622.823 625.13 L 622.823 624.823 L 622.823 624.823 Q 622.823 624.173 625.66 624.173 L 625.66 624.173 L 625.66 624.173 Q 626.07 623.216 630.104 620.995 L 630.104 620.995 L 630.104 620.995 Q 632.53 615.013 634.854 613.065 L 634.854 613.065 L 634.854 613.065 Z  M 642.271 570.648 L 642.271 574.886 L 641.314 574.579 L 641.314 574.579 Q 640.494 575.125 638.854 575.125 L 638.854 575.125 L 637.623 574.852 L 637.623 574.852 Q 636.666 574.852 636.119 575.125 L 636.119 575.125 L 634.615 574.989 L 633.385 574.989 L 633.248 575.125 L 632.154 574.852 L 631.607 574.989 L 631.197 574.852 L 630.377 575.262 L 628.189 574.852 L 625.455 574.989 L 625.455 574.989 Q 623.678 574.989 622.584 574.579 L 622.584 574.579 L 622.584 574.579 Q 621.183 575.536 620.67 575.536 L 620.67 575.536 L 620.26 575.536 L 617.662 574.989 L 615.748 574.989 L 614.791 575.262 L 612.467 574.989 L 612.467 574.989 Q 611.817 574.989 610.416 575.672 L 610.416 575.672 L 610.416 575.672 Q 609.767 575.672 608.502 574.715 L 608.502 574.715 L 608.229 574.715 L 607.818 575.125 L 607.682 575.125 L 607.682 574.852 L 607.545 574.852 L 607.545 574.852 Q 607.032 575.399 606.588 575.399 L 606.588 575.399 L 605.494 575.262 L 605.357 575.399 L 605.357 575.399 Q 605.221 574.989 604.537 574.989 L 604.537 574.989 L 604.537 574.989 Q 602.486 575.023 602.486 575.262 L 602.486 575.262 L 600.982 574.852 L 600.162 574.989 L 600.025 574.989 L 600.025 574.989 Q 599.615 574.989 599.479 573.211 L 599.479 573.211 L 599.342 573.211 L 599.342 573.211 Q 599.479 570.887 600.846 570.887 L 600.846 570.887 L 602.076 570.614 L 602.076 570.614 Q 602.076 570.887 602.486 570.887 L 602.486 570.887 L 603.58 570.75 L 603.58 570.887 L 603.58 570.887 Q 604.845 570.716 605.357 570.34 L 605.357 570.34 L 605.357 570.34 Q 606.69 570.614 607.271 571.161 L 607.271 571.161 L 607.818 571.024 L 608.229 571.161 L 609.322 571.024 L 609.459 571.161 L 610.143 571.024 L 610.553 571.024 L 612.467 571.161 L 612.604 571.024 L 612.74 571.024 L 613.561 571.297 L 616.021 570.887 L 616.432 570.887 L 617.525 571.161 L 618.209 571.161 L 618.209 571.161 Q 619.2 571.161 620.67 570.75 L 620.67 570.75 L 621.08 570.887 L 622.994 570.75 L 623.541 570.75 L 625.729 571.297 L 625.729 571.297 Q 628.155 570.614 629.01 570.614 L 629.01 570.614 L 629.01 570.614 Q 629.01 571.024 629.557 571.024 L 629.557 571.024 L 630.377 570.887 L 631.471 571.024 L 631.607 570.887 L 631.744 571.024 L 631.881 571.024 L 631.881 571.024 Q 634.376 571.024 637.213 570.477 L 637.213 570.477 L 638.717 571.024 L 640.494 570.75 L 641.588 570.887 L 642.271 570.648 L 642.271 570.648 Z  M 642.169 633.368 L 642.169 637.64 L 641.212 637.913 L 640.802 637.777 L 639.845 638.05 L 638.614 637.64 L 636.427 637.64 L 635.606 637.503 L 633.692 637.777 L 631.368 637.23 L 629.181 637.503 L 628.224 637.367 L 627.677 637.503 L 626.993 637.367 L 626.31 637.777 L 625.626 637.367 L 625.626 637.367 Q 624.054 637.503 623.575 637.913 L 623.575 637.913 L 621.524 637.64 L 620.294 637.913 L 619.884 637.503 L 619.474 637.503 L 619.063 637.913 L 618.517 637.777 L 617.696 637.913 L 615.919 637.503 L 615.919 637.64 L 613.731 636.956 L 610.86 637.777 L 607.032 637.367 L 607.032 637.367 Q 606.896 637.777 606.212 637.777 L 606.212 637.777 L 605.665 637.777 L 605.665 637.777 Q 604.947 637.777 604.435 637.367 L 604.435 637.367 L 601.563 637.777 L 601.563 637.777 Q 599.649 637.777 599.649 636.82 L 599.649 636.82 L 599.786 636.273 L 599.786 636.273 Q 599.786 635.111 599.103 634.085 L 599.103 634.085 L 599.103 634.085 Q 599.513 632.992 601.017 632.992 L 601.017 632.992 L 603.067 633.538 L 603.614 633.538 L 606.075 633.812 L 607.579 633.538 L 608.399 633.675 L 612.501 632.992 L 613.185 632.992 L 613.185 632.992 Q 613.561 633.538 617.149 633.538 L 617.149 633.538 L 618.79 633.538 L 620.021 633.402 L 620.021 633.402 Q 621.935 633.607 621.935 633.812 L 621.935 633.812 L 624.669 633.538 L 625.626 633.812 L 625.626 633.812 Q 626.275 633.402 628.087 633.402 L 628.087 633.402 L 628.224 633.402 L 629.591 633.812 L 630.685 633.812 L 632.462 633.265 L 634.103 633.265 L 634.649 633.402 L 634.786 633.265 L 636.837 633.402 L 640.255 632.992 L 642.169 633.368 L 642.169 633.368 Z  M 661.446 581.449 L 671.871 579.569 L 672.179 579.876 L 672.828 580.492 L 673.136 580.492 L 672.521 583.021 L 673.785 586.507 L 675.05 587.772 L 675.05 594.403 L 675.05 594.403 Q 675.973 595.257 677.545 601.991 L 677.545 601.991 L 678.81 603.255 L 678.502 603.563 L 678.502 604.828 L 678.81 606.092 L 678.502 607.357 L 680.416 613.031 L 680.074 613.031 L 681.031 614.603 L 680.074 616.209 L 680.074 616.209 Q 681.168 616.209 681.988 620.003 L 681.988 620.003 L 681.681 622.191 L 681.681 622.191 Q 681.681 623.148 684.518 624.105 L 684.518 624.105 L 685.44 626.634 L 684.176 627.557 L 683.868 627.557 L 682.945 626.942 L 682.296 626.942 L 678.194 628.206 L 677.887 628.206 L 676.622 627.899 L 675.357 628.206 L 674.708 628.206 L 673.136 627.249 L 666.505 628.206 L 666.505 628.206 Q 664.864 628.206 663.976 626.634 L 663.976 626.634 L 663.976 626.292 L 663.976 626.292 Q 665.89 625.13 665.89 622.191 L 665.89 622.191 L 665.24 620.003 L 665.548 619.662 L 664.933 616.825 L 665.24 616.517 L 665.24 615.252 L 662.403 615.252 L 659.874 615.868 L 659.874 615.868 Q 659.054 615.252 656.729 615.252 L 656.729 615.252 L 656.388 614.945 L 656.388 612.074 L 656.388 612.074 Q 656.388 611.458 658.302 611.151 L 658.302 611.151 L 659.566 612.415 L 661.754 612.415 L 663.36 612.074 L 662.403 606.707 L 662.711 604.828 L 662.711 604.828 Q 661.754 604.828 660.489 597.889 L 660.489 597.889 L 660.831 596.932 L 657.994 586.815 L 658.302 585.892 L 657.994 583.021 L 657.994 583.021 Q 658.233 581.141 659.874 581.141 L 659.874 581.141 L 661.446 581.449 L 661.446 581.449 Z  M 656.729 590.301 L 656.729 590.301 L 657.037 590.301 L 657.345 591.258 L 657.037 592.181 L 657.345 595.36 L 657.345 595.36 Q 657.345 599.496 655.465 601.991 L 655.465 601.991 L 655.465 601.991 Q 655.465 605.955 652.936 610.843 L 652.936 610.843 L 653.243 611.766 L 652.936 613.988 L 653.243 616.209 L 652.286 616.517 L 652.594 618.397 L 651.671 620.926 L 651.671 621.234 L 651.671 621.234 Q 651.671 624.002 655.772 624.412 L 655.772 624.412 L 656.388 624.412 L 656.388 624.72 L 656.388 624.72 Q 656.388 628.514 654.2 628.514 L 654.2 628.514 L 650.406 628.514 L 650.406 628.514 Q 649.347 628.514 648.185 627.557 L 648.185 627.557 L 643.775 628.514 L 643.775 628.514 Q 642.545 628.514 641.554 625.028 L 641.554 625.028 L 641.554 624.412 L 641.554 624.412 Q 645.348 624.412 645.348 620.926 L 645.348 620.926 L 645.348 620.926 Q 648.253 618.021 650.714 610.843 L 650.714 610.843 L 650.406 609.886 L 653.858 598.197 L 654.508 597.547 L 654.2 596.624 L 654.2 596.624 Q 654.2 592.762 656.729 590.301 Z  M 690.055 570.716 L 690.055 574.544 L 690.055 574.544 Q 689.269 574.305 689.269 574.134 L 689.269 574.134 L 688.175 574.408 L 688.038 574.271 L 687.901 574.271 L 687.081 574.544 L 685.577 574.408 L 681.476 575.228 L 678.058 574.818 L 676.007 574.954 L 675.87 574.818 L 675.323 574.954 L 673.683 574.954 L 671.905 574.408 L 670.812 574.408 L 669.444 574.818 L 669.308 574.818 L 669.308 574.818 Q 667.496 574.818 666.847 574.408 L 666.847 574.408 L 665.89 574.681 L 663.155 574.408 L 663.155 574.408 Q 663.155 574.613 661.241 574.818 L 661.241 574.818 L 660.011 574.681 L 658.37 574.681 L 658.37 574.681 Q 654.781 574.681 654.405 575.228 L 654.405 575.228 L 653.722 575.228 L 649.62 574.544 L 648.8 574.681 L 647.296 574.408 L 644.835 574.681 L 644.288 574.681 L 642.237 575.228 L 642.237 575.228 Q 640.733 575.228 640.323 574.134 L 640.323 574.134 L 640.323 574.134 Q 641.007 573.109 641.007 571.947 L 641.007 571.947 L 640.87 571.4 L 640.87 571.4 Q 640.87 570.443 642.784 570.443 L 642.784 570.443 L 645.655 570.853 L 645.655 570.853 Q 646.168 570.443 646.886 570.443 L 646.886 570.443 L 647.433 570.443 L 647.433 570.443 Q 648.116 570.443 648.253 570.853 L 648.253 570.853 L 652.081 570.443 L 654.952 571.263 L 657.14 570.579 L 657.14 570.716 L 658.917 570.306 L 659.737 570.443 L 660.284 570.306 L 660.694 570.716 L 661.104 570.716 L 661.515 570.306 L 662.745 570.579 L 664.796 570.306 L 664.796 570.306 Q 665.274 570.716 666.847 570.853 L 666.847 570.853 L 667.53 570.443 L 668.214 570.853 L 668.897 570.716 L 669.444 570.853 L 670.401 570.716 L 672.589 570.99 L 674.913 570.443 L 676.827 570.716 L 677.647 570.579 L 679.835 570.579 L 681.065 570.169 L 682.022 570.443 L 682.433 570.306 L 683.39 570.579 L 683.526 570.579 L 683.663 570.443 L 685.577 570.853 L 686.124 570.716 L 687.491 570.99 L 689.132 570.579 L 689.542 570.579 L 690.055 570.716 L 690.055 570.716 Z  M 690.055 633.709 L 690.055 637.367 L 689.576 637.23 L 685.748 637.777 L 685.611 637.64 L 684.928 637.777 L 684.107 637.64 L 682.057 637.913 L 682.057 637.913 Q 680.997 637.913 679.596 637.503 L 679.596 637.503 L 679.459 637.503 L 679.459 637.503 Q 678.946 637.913 678.502 637.913 L 678.502 637.913 L 678.092 637.913 L 678.092 637.913 Q 677.271 637.913 676.451 637.093 L 676.451 637.093 L 674.811 637.367 L 674.264 637.23 L 673.717 637.367 L 672.623 637.367 L 672.623 637.367 Q 671.837 637.913 671.393 637.913 L 671.393 637.913 L 670.299 637.777 L 670.162 637.777 L 670.025 637.913 L 669.342 637.503 L 668.521 637.913 L 667.701 637.64 L 667.701 637.64 Q 667.188 638.05 666.471 638.05 L 666.471 638.05 L 666.061 638.05 L 664.967 637.64 L 664.967 637.64 Q 662.232 637.64 659.635 638.05 L 659.635 638.05 L 659.635 638.05 Q 658.37 638.05 657.447 637.23 L 657.447 637.23 L 657.447 637.23 Q 657.447 637.777 655.533 637.913 L 655.533 637.913 L 654.713 637.777 L 653.756 638.05 L 653.756 638.05 Q 651.944 637.777 651.568 637.503 L 651.568 637.503 L 651.432 637.503 L 651.295 637.64 L 648.287 637.367 L 648.287 637.367 Q 646.544 637.367 646.1 637.913 L 646.1 637.913 L 645.826 637.913 L 645.279 637.503 L 644.459 637.777 L 644.322 637.64 L 643.912 637.64 L 643.912 637.64 Q 643.058 637.913 640.631 638.05 L 640.631 638.05 L 639.674 637.503 L 639.674 637.367 L 639.811 637.23 L 639.811 637.23 Q 640.357 637.025 640.357 636.82 L 640.357 636.82 L 640.357 636.683 L 639.947 636.273 L 640.221 635.316 L 640.221 635.179 L 640.221 635.179 Q 640.221 634.906 639.811 634.906 L 639.811 634.906 L 639.811 634.359 L 640.357 633.402 L 640.357 633.402 Q 641.93 633.402 643.092 633.812 L 643.092 633.812 L 643.092 633.812 Q 644.664 633.812 645.143 633.265 L 645.143 633.265 L 645.826 633.265 L 648.15 633.675 L 648.561 633.675 L 650.064 633.265 L 650.064 633.265 Q 652.97 633.709 653.482 634.085 L 653.482 634.085 L 654.029 634.085 L 654.029 634.085 Q 654.713 634.085 654.85 633.675 L 654.85 633.675 L 654.986 633.675 L 655.123 633.812 L 655.67 633.812 L 655.67 633.812 Q 655.67 633.538 658.814 633.128 L 658.814 633.128 L 659.635 633.265 L 659.771 633.265 L 659.908 633.128 L 659.908 633.128 Q 660.455 633.333 660.455 633.538 L 660.455 633.538 L 661.412 633.402 L 662.369 633.402 L 665.924 634.085 L 667.291 633.538 L 667.291 633.675 L 667.291 633.675 Q 668.59 633.675 669.752 633.265 L 669.752 633.265 L 671.119 633.538 L 671.119 633.538 Q 673.717 633.538 675.084 632.992 L 675.084 632.992 L 675.084 632.992 Q 677.818 633.949 678.775 633.949 L 678.775 633.949 L 679.459 633.949 L 679.459 633.949 Q 681.1 633.402 682.604 633.265 L 682.604 633.265 L 683.014 633.675 L 683.424 633.675 L 683.424 633.402 L 683.834 633.402 L 683.834 633.402 Q 683.834 633.812 684.518 633.812 L 684.518 633.812 L 684.791 633.812 L 684.928 633.675 L 685.611 634.085 L 686.021 634.085 L 686.021 634.085 Q 686.295 633.812 687.115 633.812 L 687.115 633.812 L 687.799 633.128 L 690.055 633.709 L 690.055 633.709 Z  M 694.259 579.466 L 694.259 579.466 L 694.259 579.466 Q 701.437 580.287 701.437 580.697 L 701.437 580.697 L 702.359 580.389 L 702.359 580.389 Q 704.137 581.346 706.085 581.346 L 706.085 581.346 L 706.734 580.697 L 707.965 580.697 L 710.768 580.389 L 710.768 580.389 Q 712.955 580.833 712.955 583.534 L 712.955 583.534 L 712.647 584.456 L 711.383 584.456 L 711.383 584.456 Q 708.922 584.456 708.922 590.985 L 708.922 590.985 L 708.922 591.634 L 709.229 595.36 L 708.922 595.36 L 708.922 595.36 Q 709.845 596.624 710.152 600.35 L 710.152 600.35 L 710.152 600.35 Q 710.152 601.273 709.229 601.273 L 709.229 601.273 L 708.922 601.615 L 708.922 601.922 L 709.229 603.46 L 708.922 604.417 L 709.229 607.22 L 709.229 609.715 L 709.229 609.715 Q 709.298 611.253 709.845 611.253 L 709.845 611.253 L 707.965 618.739 L 708.922 620.619 L 708.58 620.619 L 709.845 625.916 L 708.922 625.916 L 708.922 625.916 Q 707.589 625.916 705.777 627.489 L 705.777 627.489 L 705.47 627.489 L 705.47 627.489 Q 703.692 627.489 702.052 626.224 L 702.052 626.224 L 700.479 626.224 L 697.984 626.839 L 692.687 626.224 L 690.807 626.532 L 690.191 625.609 L 690.191 624.994 L 690.191 624.994 Q 690.191 624.207 693.644 623.114 L 693.644 623.114 L 694.259 620.311 L 694.259 620.311 Q 694.259 618.021 693.302 616.244 L 693.302 616.244 L 693.302 616.244 Q 693.507 613.236 694.874 611.253 L 694.874 611.253 L 694.566 610.023 L 694.874 609.066 L 693.951 607.22 L 694.566 601.922 L 694.566 601.922 Q 694.566 597.889 693.644 594.745 L 693.644 594.745 L 694.566 593.48 L 694.566 593.172 L 693.644 592.249 L 693.951 591.942 L 693.951 589.754 L 693.644 587.874 L 693.951 587.567 L 693.951 587.259 L 693.951 587.259 Q 693.951 583.192 689.884 583.192 L 689.884 583.192 L 689.576 582.884 L 689.576 582.269 L 689.576 582.269 Q 692.071 579.466 694.259 579.466 Z  M 722.936 611.253 L 722.936 611.253 L 722.936 611.253 Q 725.738 612.005 725.738 615.013 L 725.738 615.013 L 725.738 617.201 L 725.738 617.201 Q 724.166 617.201 724.166 619.046 L 724.166 619.046 L 725.738 625.301 L 725.738 625.609 L 725.738 625.609 Q 725.738 627.66 724.508 628.412 L 724.508 628.412 L 721.363 626.224 L 713.878 626.839 L 713.878 626.839 Q 712.032 626.839 712.032 624.994 L 712.032 624.994 L 712.032 624.344 L 712.032 624.344 Q 712.032 623.9 715.758 622.806 L 715.758 622.806 L 715.758 622.806 Q 715.758 621.541 717.33 620.311 L 717.33 620.311 L 719.518 618.123 L 719.825 616.893 L 719.518 616.551 L 719.518 616.244 L 721.056 614.056 L 721.056 614.056 Q 721.227 611.253 722.936 611.253 Z  M 730.694 570.511 L 730.694 574.305 L 730.694 574.305 Q 729.874 574.784 728.336 574.784 L 728.336 574.784 L 727.105 574.51 L 727.105 574.51 Q 726.148 574.51 725.602 574.784 L 725.602 574.784 L 724.098 574.647 L 722.867 574.647 L 722.73 574.784 L 721.637 574.51 L 721.09 574.647 L 720.68 574.51 L 719.859 574.92 L 717.672 574.51 L 714.938 574.647 L 714.938 574.647 Q 713.16 574.647 712.066 574.237 L 712.066 574.237 L 712.066 574.237 Q 710.665 575.194 710.152 575.194 L 710.152 575.194 L 709.742 575.194 L 707.145 574.647 L 705.23 574.647 L 704.273 574.92 L 701.949 574.647 L 701.949 574.647 Q 701.3 574.647 699.898 575.33 L 699.898 575.33 L 699.898 575.33 Q 699.249 575.33 697.984 574.373 L 697.984 574.373 L 697.711 574.373 L 697.301 574.784 L 697.164 574.784 L 697.164 574.51 L 697.027 574.51 L 697.027 574.51 Q 696.515 575.057 696.07 575.057 L 696.07 575.057 L 694.977 574.92 L 694.84 575.057 L 694.84 575.057 Q 694.703 574.647 694.02 574.647 L 694.02 574.647 L 694.02 574.647 Q 691.969 574.681 691.969 574.92 L 691.969 574.92 L 690.465 574.51 L 689.645 574.647 L 689.508 574.647 L 689.508 574.647 Q 689.098 574.647 688.961 572.87 L 688.961 572.87 L 688.824 572.87 L 688.824 572.87 Q 688.961 570.545 690.328 570.545 L 690.328 570.545 L 691.559 570.272 L 691.559 570.272 Q 691.559 570.545 691.969 570.545 L 691.969 570.545 L 693.063 570.409 L 693.063 570.545 L 693.063 570.545 Q 694.327 570.374 694.84 569.998 L 694.84 569.998 L 694.84 569.998 Q 696.173 570.272 696.754 570.819 L 696.754 570.819 L 697.301 570.682 L 697.711 570.819 L 698.805 570.682 L 698.941 570.819 L 699.625 570.682 L 700.035 570.682 L 701.949 570.819 L 702.086 570.682 L 702.223 570.682 L 703.043 570.955 L 705.504 570.545 L 705.914 570.545 L 707.008 570.819 L 707.691 570.819 L 707.691 570.819 Q 708.683 570.819 710.152 570.409 L 710.152 570.409 L 710.563 570.545 L 712.477 570.409 L 713.023 570.409 L 715.211 570.955 L 715.211 570.955 Q 717.638 570.272 718.492 570.272 L 718.492 570.272 L 718.492 570.272 Q 718.492 570.682 719.039 570.682 L 719.039 570.682 L 719.859 570.545 L 720.953 570.682 L 721.09 570.545 L 721.227 570.682 L 721.363 570.682 L 721.363 570.682 Q 723.858 570.682 726.695 570.135 L 726.695 570.135 L 728.199 570.682 L 729.977 570.409 L 730.694 570.511 L 730.694 570.511 Z  M 730.694 633.128 L 730.694 637.264 L 730.694 637.264 Q 730.216 637.127 729.43 637.059 L 729.43 637.059 L 727.105 637.606 L 726.012 637.606 L 724.781 637.469 L 724.645 637.469 L 724.508 637.606 L 723.004 637.469 L 722.32 637.469 L 721.91 637.196 L 721.5 637.196 L 720.68 637.469 L 720.27 637.196 L 720.27 637.196 Q 720.27 637.469 717.398 637.606 L 717.398 637.606 L 717.398 637.606 Q 717.125 637.332 715.758 637.196 L 715.758 637.196 L 715.758 637.196 Q 715.758 637.469 714.527 637.606 L 714.527 637.606 L 714.527 637.606 Q 714.527 637.264 713.023 637.059 L 713.023 637.059 L 711.52 637.059 L 710.563 637.469 L 707.691 636.922 L 706.734 637.196 L 706.598 637.196 L 706.461 637.059 L 705.504 637.332 L 703.18 636.922 L 702.086 637.332 L 701.949 637.332 L 701.813 637.196 L 699.762 637.469 L 697.848 636.922 L 695.113 637.469 L 692.516 637.332 L 691.422 637.469 L 691.422 637.469 Q 691.422 637.23 690.055 637.196 L 690.055 637.196 L 689.098 637.196 L 688.824 636.922 L 688.824 636.649 L 689.098 635.555 L 689.098 635.145 L 688.824 634.735 L 688.824 634.188 L 688.824 634.188 Q 688.824 633.231 689.918 633.094 L 689.918 633.094 L 689.918 633.094 Q 692.55 633.231 692.789 633.504 L 692.789 633.504 L 692.926 633.504 L 693.063 633.368 L 693.609 633.641 L 693.609 633.641 Q 693.609 633.128 697.711 632.957 L 697.711 632.957 L 700.035 633.504 L 700.582 633.504 L 700.719 633.368 L 700.855 633.504 L 701.129 633.504 L 701.813 633.368 L 702.633 633.504 L 703.18 633.504 L 704.957 633.231 L 706.461 633.504 L 707.828 633.504 L 709.059 633.914 L 710.973 633.504 L 711.109 633.504 L 712.34 633.641 L 714.254 633.094 L 715.895 633.504 L 717.262 633.504 L 717.398 633.368 L 717.535 633.504 L 718.082 633.504 L 719.313 633.641 L 723.414 633.231 L 723.824 633.368 L 724.234 633.231 L 724.781 633.368 L 724.918 633.368 L 725.055 633.231 L 726.012 633.368 L 727.652 633.094 L 729.84 633.368 L 730.694 633.128 L 730.694 633.128 Z  M 743.717 579.466 L 743.717 579.466 L 743.717 579.466 Q 746.793 580.081 746.793 580.697 L 746.793 580.697 L 746.793 581.62 L 746.793 581.62 Q 746.793 583.944 743.102 585.037 L 743.102 585.037 L 741.837 588.763 L 741.837 588.763 Q 743.614 593.412 745.563 593.412 L 745.563 593.412 L 745.563 593.412 Q 745.802 594.3 752.091 595.872 L 752.091 595.872 L 752.091 595.872 Q 756.876 600.213 759.508 600.213 L 759.508 600.213 L 759.508 600.213 Q 759.508 600.76 762.618 603.324 L 762.618 603.324 L 762.618 605.477 L 762.618 605.477 Q 763.541 605.477 763.541 606.092 L 763.541 606.092 L 763.233 607.357 L 763.233 607.357 Q 764.464 609.032 764.464 612.928 L 764.464 612.928 L 764.464 612.928 Q 763.746 612.928 763.233 618.499 L 763.233 618.499 L 763.233 618.499 Q 760.089 621.849 757.354 626.258 L 757.354 626.258 L 757.354 626.258 Q 750.313 628.412 747.75 628.412 L 747.75 628.412 L 747.442 628.412 L 747.442 628.412 Q 746.793 628.412 746.485 626.566 L 746.485 626.566 L 746.485 626.566 Q 747.032 623.455 749.288 623.455 L 749.288 623.455 L 749.288 623.455 Q 752.364 623.455 752.706 620.653 L 752.706 620.653 L 752.706 617.884 L 752.706 617.884 Q 751.236 612.005 744.947 612.005 L 744.947 612.005 L 744.947 612.005 Q 744.64 611.014 739.684 609.51 L 739.684 609.51 L 739.684 609.51 Q 739.684 608.587 734.728 606.742 L 734.728 606.742 L 734.728 606.742 Q 733.053 602.401 732.267 602.401 L 732.267 602.401 L 732.267 600.829 L 729.771 597.445 L 731.31 594.334 L 730.387 591.224 L 731.31 590.916 L 731.31 589.378 L 731.31 589.378 Q 735.411 582.85 738.146 581.62 L 738.146 581.62 L 738.453 581.961 L 738.761 581.961 L 738.761 581.961 Q 739.684 581.961 743.717 579.466 Z  M 761.695 579.466 L 761.695 579.466 L 762.003 579.466 L 762.003 579.466 Q 762.311 581.62 762.926 581.62 L 762.926 581.62 L 762.618 583.192 L 762.926 585.037 L 762.003 588.455 L 762.003 588.763 L 763.233 592.181 L 763.233 593.104 L 763.233 593.104 Q 763.233 594.574 761.354 596.18 L 761.354 596.18 L 759.815 596.18 L 759.815 593.104 L 759.815 593.104 Q 756.124 587.157 755.167 586.576 L 755.167 586.576 L 755.167 586.576 Q 750.006 584.046 749.288 583.192 L 749.288 583.192 L 749.288 582.577 L 749.288 582.577 Q 749.288 580.081 750.519 580.081 L 750.519 580.081 L 750.519 580.081 Q 756.568 580.936 757.662 581.961 L 757.662 581.961 L 758.893 581.961 L 758.893 581.961 Q 758.893 579.945 761.695 579.466 Z  M 731.617 609.818 L 731.617 609.818 L 732.574 609.818 L 732.574 609.818 Q 733.805 610.16 735.035 613.236 L 735.035 613.236 L 735.035 613.543 L 734.728 615.081 L 734.728 615.081 Q 736.744 616.79 738.146 621.61 L 738.146 621.61 L 738.146 621.917 L 739.684 621.917 L 744.64 625.609 L 744.64 627.181 L 744.64 627.181 Q 744.64 628.104 741.222 628.104 L 741.222 628.104 L 741.222 628.104 Q 741.051 627.352 739.068 626.566 L 739.068 626.566 L 738.761 626.873 L 738.453 626.873 L 738.453 626.873 Q 736.573 626.121 736.573 625.609 L 736.573 625.609 L 736.573 625.609 Q 734.522 625.609 732.882 628.104 L 732.882 628.104 L 731.925 628.104 L 731.002 626.566 L 731.31 624.994 L 730.694 624.378 L 730.694 622.225 L 730.079 620.345 L 730.694 617.884 L 730.694 615.697 L 730.387 614.466 L 730.387 614.466 Q 730.797 609.818 731.617 609.818 Z  M 768.36 570.579 L 768.36 574.681 L 767.232 574.784 L 766.822 574.647 L 766.412 574.784 L 765.865 574.647 L 765.729 574.647 L 765.592 574.784 L 764.635 574.647 L 762.994 574.92 L 760.807 574.647 L 758.756 575.194 L 754.518 574.51 L 754.518 574.51 Q 753.766 574.51 753.014 574.92 L 753.014 574.92 L 753.014 574.92 Q 752.159 574.92 751.373 574.51 L 751.373 574.51 L 749.186 574.92 L 746.041 574.647 L 746.041 574.784 L 745.768 574.784 L 745.357 574.51 L 744.264 574.784 L 743.58 574.784 L 742.76 574.51 L 740.436 574.784 L 738.521 574.373 L 737.428 574.51 L 735.924 574.373 L 734.283 574.784 L 733.736 574.647 L 729.361 575.023 L 729.361 570.716 L 729.498 570.682 L 729.635 570.682 L 729.908 570.955 L 729.908 570.955 Q 731.754 570.955 732.506 570.272 L 732.506 570.272 L 733.053 570.409 L 733.736 570.272 L 733.736 570.272 Q 733.736 570.545 735.514 570.682 L 735.514 570.682 L 735.924 570.545 L 737.701 570.955 L 738.795 570.545 L 739.889 570.545 L 740.436 570.409 L 740.436 570.409 Q 742.486 570.579 742.486 570.955 L 742.486 570.955 L 745.357 570.545 L 747.818 570.682 L 750.006 570.409 L 751.92 570.819 L 754.791 570.819 L 754.791 570.819 Q 755.03 570.579 756.432 570.409 L 756.432 570.409 L 757.252 570.545 L 758.072 570.272 L 758.482 570.409 L 759.303 570.135 L 759.303 570.135 Q 759.303 570.819 761.217 570.955 L 761.217 570.955 L 763.541 570.409 L 764.635 570.409 L 765.865 570.545 L 766.002 570.545 L 766.139 570.409 L 767.643 570.545 L 768.326 570.545 L 768.36 570.579 L 768.36 570.579 Z  M 768.36 632.889 L 768.36 636.956 L 768.36 636.956 Q 766.344 637.025 764.054 637.469 L 764.054 637.469 L 762.55 636.922 L 760.772 637.196 L 759.679 637.059 L 758.858 637.332 L 758.312 637.332 L 758.312 637.332 Q 757.662 637.332 756.944 636.922 L 756.944 636.922 L 755.714 637.059 L 755.714 637.059 Q 755.714 636.888 754.347 636.512 L 754.347 636.512 L 754.347 636.512 Q 753.629 636.683 753.253 637.196 L 753.253 637.196 L 752.706 637.332 L 751.749 637.196 L 751.612 637.332 L 746.69 636.922 L 746.144 637.059 L 744.503 636.649 L 742.999 636.786 L 741.905 636.649 L 739.991 637.059 L 737.667 636.786 L 736.847 637.059 L 736.163 637.059 L 735.069 636.786 L 734.659 637.059 L 734.386 637.059 L 734.386 636.922 L 731.241 637.196 L 729.361 636.854 L 729.361 632.923 L 730.421 632.684 L 732.608 632.957 L 735.069 632.821 L 737.94 633.231 L 737.94 633.231 Q 737.94 632.855 739.991 632.684 L 739.991 632.684 L 740.538 632.821 L 741.632 632.821 L 742.726 633.231 L 744.503 632.821 L 744.913 632.957 L 744.913 632.957 Q 746.69 632.821 746.69 632.547 L 746.69 632.547 L 747.374 632.684 L 747.921 632.547 L 747.921 632.547 Q 748.673 633.231 750.519 633.231 L 750.519 633.231 L 750.792 632.957 L 750.929 632.957 L 751.476 633.094 L 752.022 632.821 L 753.116 633.094 L 755.304 632.684 L 756.261 633.231 L 757.081 632.957 L 757.218 633.094 L 757.354 633.094 L 758.722 632.957 L 759.952 633.368 L 759.952 633.368 Q 760.772 632.821 762.413 632.821 L 762.413 632.821 L 763.644 633.094 L 763.644 633.094 Q 764.601 633.094 765.147 632.821 L 765.147 632.821 L 766.651 632.957 L 767.882 632.957 L 768.019 632.821 L 768.36 632.889 L 768.36 632.889 Z  M 772.701 579.466 L 772.701 579.466 L 773.624 579.466 L 773.624 579.466 Q 777.452 579.466 781.656 585.96 L 781.656 585.96 L 781.349 588.729 L 781.656 590.575 L 780.118 597.035 L 780.118 597.035 Q 779.332 597.035 777.35 603.221 L 777.35 603.221 L 777.35 603.221 Q 776.734 603.221 776.734 606.912 L 776.734 606.912 L 777.042 608.758 L 777.042 608.758 Q 776.29 612.176 774.581 612.176 L 774.581 612.176 L 774.581 612.176 Q 773.009 612.176 771.778 607.835 L 771.778 607.835 L 771.778 603.836 L 771.778 603.836 Q 771.778 601.239 768.702 596.727 L 768.702 596.727 L 767.779 587.498 L 768.702 585.653 L 768.395 584.08 L 768.395 584.08 Q 770.24 582.747 770.24 580.389 L 770.24 580.389 L 770.24 580.389 Q 771.915 580.389 772.701 579.466 Z  M 772.086 614.637 L 772.086 614.329 L 772.086 614.329 Q 780.426 615.047 780.426 618.944 L 780.426 618.944 L 780.426 618.944 Q 781.896 618.944 782.271 621.405 L 782.271 621.405 L 782.271 621.712 L 782.271 621.712 Q 782.271 624.823 779.811 624.823 L 779.811 624.823 L 779.811 624.823 Q 777.179 628.514 774.273 628.514 L 774.273 628.514 L 773.624 628.514 L 773.624 628.514 Q 768.395 626.668 768.395 624.207 L 768.395 624.207 L 767.779 622.977 L 767.779 622.977 Q 769.317 614.637 772.086 614.637 L 772.086 614.637 L 772.086 614.637 Z  M 767.506 637.572 L 767.506 633.504 L 767.882 633.504 L 768.053 633.368 L 768.258 633.368 L 768.258 633.368 Q 768.429 633.778 769.283 633.778 L 769.283 633.778 L 769.967 633.778 L 769.967 633.778 Q 770.616 633.402 774.308 632.957 L 774.308 632.957 L 776.222 633.368 L 776.734 633.368 L 779.674 632.957 L 780.528 632.957 L 780.528 632.957 Q 781.178 633.504 783.126 633.504 L 783.126 633.504 L 783.126 633.504 Q 784.596 633.094 786.612 633.094 L 786.612 633.094 L 787.296 634.051 L 787.296 634.598 L 787.296 634.598 Q 786.783 634.598 786.783 634.871 L 786.783 634.871 L 786.783 635.008 L 787.125 635.965 L 786.612 636.375 L 786.612 636.512 L 786.612 636.512 Q 786.612 636.717 787.296 636.922 L 787.296 636.922 L 787.467 637.059 L 787.467 637.196 L 786.271 637.743 L 786.271 637.743 Q 783.194 637.606 782.101 637.332 L 782.101 637.332 L 781.588 637.332 L 781.417 637.469 L 780.357 637.196 L 779.674 637.606 L 779.332 637.606 L 779.332 637.606 Q 778.751 637.059 776.563 637.059 L 776.563 637.059 L 772.735 637.332 L 772.564 637.196 L 772.394 637.196 L 772.394 637.196 Q 771.915 637.469 769.625 637.743 L 769.625 637.743 L 768.429 637.469 L 767.506 637.572 L 767.506 637.572 Z  M 786.749 571.229 L 786.749 575.296 L 786.646 575.33 L 786.646 575.33 Q 784.732 575.194 784.732 574.647 L 784.732 574.647 L 784.732 574.647 Q 783.81 575.467 782.545 575.467 L 782.545 575.467 L 782.545 575.467 Q 779.947 575.057 777.213 575.057 L 777.213 575.057 L 776.119 575.467 L 775.709 575.467 L 775.709 575.467 Q 774.991 575.467 774.479 575.057 L 774.479 575.057 L 773.658 575.33 L 772.838 574.92 L 772.154 575.33 L 772.018 575.194 L 771.881 575.194 L 770.787 575.33 L 770.787 575.33 Q 770.343 575.33 769.557 574.784 L 769.557 574.784 L 768.463 574.784 L 767.916 574.647 L 767.608 574.715 L 767.608 570.579 L 767.608 570.579 Q 768.907 570.955 771.061 570.955 L 771.061 570.955 L 772.428 570.682 L 772.428 570.682 Q 773.59 571.092 774.889 571.092 L 774.889 571.092 L 774.889 570.955 L 776.256 571.502 L 779.811 570.819 L 780.768 570.819 L 781.725 570.955 L 781.725 570.955 Q 781.725 570.75 782.271 570.545 L 782.271 570.545 L 782.408 570.682 L 782.545 570.682 L 783.365 570.545 L 783.365 570.545 Q 786.51 570.955 786.51 571.229 L 786.51 571.229 L 786.749 571.229 L 786.749 571.229 Z  M 791.329 579.466 L 791.329 579.466 L 792.252 579.466 L 792.252 579.466 Q 796.08 579.466 800.284 585.96 L 800.284 585.96 L 799.977 588.729 L 800.284 590.575 L 798.746 597.035 L 798.746 597.035 Q 797.96 597.035 795.978 603.221 L 795.978 603.221 L 795.978 603.221 Q 795.362 603.221 795.362 606.912 L 795.362 606.912 L 795.67 608.758 L 795.67 608.758 Q 794.918 612.176 793.209 612.176 L 793.209 612.176 L 793.209 612.176 Q 791.637 612.176 790.406 607.835 L 790.406 607.835 L 790.406 603.836 L 790.406 603.836 Q 790.406 601.239 787.33 596.727 L 787.33 596.727 L 786.407 587.498 L 787.33 585.653 L 787.022 584.08 L 787.022 584.08 Q 788.868 582.747 788.868 580.389 L 788.868 580.389 L 788.868 580.389 Q 790.543 580.389 791.329 579.466 Z  M 790.714 614.637 L 790.714 614.329 L 790.714 614.329 Q 799.054 615.047 799.054 618.944 L 799.054 618.944 L 799.054 618.944 Q 800.523 618.944 800.899 621.405 L 800.899 621.405 L 800.899 621.712 L 800.899 621.712 Q 800.899 624.823 798.438 624.823 L 798.438 624.823 L 798.438 624.823 Q 795.807 628.514 792.901 628.514 L 792.901 628.514 L 792.252 628.514 L 792.252 628.514 Q 787.022 626.668 787.022 624.207 L 787.022 624.207 L 786.407 622.977 L 786.407 622.977 Q 787.945 614.637 790.714 614.637 L 790.714 614.637 L 790.714 614.637 Z  M 786.134 637.572 L 786.134 633.504 L 786.51 633.504 L 786.681 633.368 L 786.886 633.368 L 786.886 633.368 Q 787.057 633.778 787.911 633.778 L 787.911 633.778 L 788.595 633.778 L 788.595 633.778 Q 789.244 633.402 792.936 632.957 L 792.936 632.957 L 794.85 633.368 L 795.362 633.368 L 798.302 632.957 L 799.156 632.957 L 799.156 632.957 Q 799.806 633.504 801.754 633.504 L 801.754 633.504 L 801.754 633.504 Q 803.224 633.094 805.24 633.094 L 805.24 633.094 L 805.924 634.051 L 805.924 634.598 L 805.924 634.598 Q 805.411 634.598 805.411 634.871 L 805.411 634.871 L 805.411 635.008 L 805.753 635.965 L 805.24 636.375 L 805.24 636.512 L 805.24 636.512 Q 805.24 636.717 805.924 636.922 L 805.924 636.922 L 806.095 637.059 L 806.095 637.196 L 804.898 637.743 L 804.898 637.743 Q 801.822 637.606 800.729 637.332 L 800.729 637.332 L 800.216 637.332 L 800.045 637.469 L 798.985 637.196 L 798.302 637.606 L 797.96 637.606 L 797.96 637.606 Q 797.379 637.059 795.191 637.059 L 795.191 637.059 L 791.363 637.332 L 791.192 637.196 L 791.021 637.196 L 791.021 637.196 Q 790.543 637.469 788.253 637.743 L 788.253 637.743 L 787.057 637.469 L 786.134 637.572 L 786.134 637.572 Z  M 805.377 571.229 L 805.377 575.296 L 805.274 575.33 L 805.274 575.33 Q 803.36 575.194 803.36 574.647 L 803.36 574.647 L 803.36 574.647 Q 802.438 575.467 801.173 575.467 L 801.173 575.467 L 801.173 575.467 Q 798.575 575.057 795.841 575.057 L 795.841 575.057 L 794.747 575.467 L 794.337 575.467 L 794.337 575.467 Q 793.619 575.467 793.106 575.057 L 793.106 575.057 L 792.286 575.33 L 791.466 574.92 L 790.782 575.33 L 790.646 575.194 L 790.509 575.194 L 789.415 575.33 L 789.415 575.33 Q 788.971 575.33 788.185 574.784 L 788.185 574.784 L 787.091 574.784 L 786.544 574.647 L 786.236 574.715 L 786.236 570.579 L 786.236 570.579 Q 787.535 570.955 789.688 570.955 L 789.688 570.955 L 791.056 570.682 L 791.056 570.682 Q 792.218 571.092 793.517 571.092 L 793.517 571.092 L 793.517 570.955 L 794.884 571.502 L 798.438 570.819 L 799.396 570.819 L 800.353 570.955 L 800.353 570.955 Q 800.353 570.75 800.899 570.545 L 800.899 570.545 L 801.036 570.682 L 801.173 570.682 L 801.993 570.545 L 801.993 570.545 Q 805.138 570.955 805.138 571.229 L 805.138 571.229 L 805.377 571.229 L 805.377 571.229 Z  M 809.957 579.466 L 809.957 579.466 L 810.88 579.466 L 810.88 579.466 Q 814.708 579.466 818.912 585.96 L 818.912 585.96 L 818.604 588.729 L 818.912 590.575 L 817.374 597.035 L 817.374 597.035 Q 816.588 597.035 814.605 603.221 L 814.605 603.221 L 814.605 603.221 Q 813.99 603.221 813.99 606.912 L 813.99 606.912 L 814.298 608.758 L 814.298 608.758 Q 813.546 612.176 811.837 612.176 L 811.837 612.176 L 811.837 612.176 Q 810.265 612.176 809.034 607.835 L 809.034 607.835 L 809.034 603.836 L 809.034 603.836 Q 809.034 601.239 805.958 596.727 L 805.958 596.727 L 805.035 587.498 L 805.958 585.653 L 805.65 584.08 L 805.65 584.08 Q 807.496 582.747 807.496 580.389 L 807.496 580.389 L 807.496 580.389 Q 809.171 580.389 809.957 579.466 Z  M 809.342 614.637 L 809.342 614.329 L 809.342 614.329 Q 817.682 615.047 817.682 618.944 L 817.682 618.944 L 817.682 618.944 Q 819.151 618.944 819.527 621.405 L 819.527 621.405 L 819.527 621.712 L 819.527 621.712 Q 819.527 624.823 817.066 624.823 L 817.066 624.823 L 817.066 624.823 Q 814.435 628.514 811.529 628.514 L 811.529 628.514 L 810.88 628.514 L 810.88 628.514 Q 805.65 626.668 805.65 624.207 L 805.65 624.207 L 805.035 622.977 L 805.035 622.977 Q 806.573 614.637 809.342 614.637 L 809.342 614.637 L 809.342 614.637 Z  M 804.762 637.572 L 804.762 633.504 L 805.138 633.504 L 805.309 633.368 L 805.514 633.368 L 805.514 633.368 Q 805.685 633.778 806.539 633.778 L 806.539 633.778 L 807.223 633.778 L 807.223 633.778 Q 807.872 633.402 811.563 632.957 L 811.563 632.957 L 813.478 633.368 L 813.99 633.368 L 816.93 632.957 L 817.784 632.957 L 817.784 632.957 Q 818.434 633.504 820.382 633.504 L 820.382 633.504 L 820.382 633.504 Q 821.852 633.094 823.868 633.094 L 823.868 633.094 L 824.552 634.051 L 824.552 634.598 L 824.552 634.598 Q 824.039 634.598 824.039 634.871 L 824.039 634.871 L 824.039 635.008 L 824.381 635.965 L 823.868 636.375 L 823.868 636.512 L 823.868 636.512 Q 823.868 636.717 824.552 636.922 L 824.552 636.922 L 824.723 637.059 L 824.723 637.196 L 823.526 637.743 L 823.526 637.743 Q 820.45 637.606 819.356 637.332 L 819.356 637.332 L 818.844 637.332 L 818.673 637.469 L 817.613 637.196 L 816.93 637.606 L 816.588 637.606 L 816.588 637.606 Q 816.007 637.059 813.819 637.059 L 813.819 637.059 L 809.991 637.332 L 809.82 637.196 L 809.649 637.196 L 809.649 637.196 Q 809.171 637.469 806.881 637.743 L 806.881 637.743 L 805.685 637.469 L 804.762 637.572 L 804.762 637.572 Z  M 824.005 571.229 L 824.005 575.296 L 823.902 575.33 L 823.902 575.33 Q 821.988 575.194 821.988 574.647 L 821.988 574.647 L 821.988 574.647 Q 821.065 575.467 819.801 575.467 L 819.801 575.467 L 819.801 575.467 Q 817.203 575.057 814.469 575.057 L 814.469 575.057 L 813.375 575.467 L 812.965 575.467 L 812.965 575.467 Q 812.247 575.467 811.734 575.057 L 811.734 575.057 L 810.914 575.33 L 810.094 574.92 L 809.41 575.33 L 809.273 575.194 L 809.137 575.194 L 808.043 575.33 L 808.043 575.33 Q 807.599 575.33 806.813 574.784 L 806.813 574.784 L 805.719 574.784 L 805.172 574.647 L 804.864 574.715 L 804.864 570.579 L 804.864 570.579 Q 806.163 570.955 808.316 570.955 L 808.316 570.955 L 809.684 570.682 L 809.684 570.682 Q 810.846 571.092 812.145 571.092 L 812.145 571.092 L 812.145 570.955 L 813.512 571.502 L 817.066 570.819 L 818.023 570.819 L 818.98 570.955 L 818.98 570.955 Q 818.98 570.75 819.527 570.545 L 819.527 570.545 L 819.664 570.682 L 819.801 570.682 L 820.621 570.545 L 820.621 570.545 Q 823.766 570.955 823.766 571.229 L 823.766 571.229 L 824.005 571.229 L 824.005 571.229 Z  M 553.678 632.992 L 553.678 637.572 L 551.798 637.332 L 550.978 637.469 L 550.294 637.332 L 550.157 637.469 L 546.329 636.922 L 544.415 637.469 L 543.458 637.332 L 541.954 637.606 L 541.134 637.196 L 540.997 637.332 L 540.86 637.332 L 540.313 637.196 L 539.083 637.606 L 538.673 637.196 L 537.989 637.332 L 536.622 637.332 L 534.981 637.469 L 534.708 637.196 L 534.435 637.469 L 533.067 637.332 L 531.837 637.332 L 530.47 638.016 L 528.282 637.469 L 528.146 637.606 L 528.009 637.606 L 526.915 637.196 L 525.411 637.196 L 524.864 637.469 L 524.317 637.196 L 523.087 637.332 L 522.95 637.196 L 521.856 637.469 L 521.446 637.469 L 519.806 637.059 L 518.438 637.332 L 517.892 637.196 L 517.584 637.264 L 517.584 633.573 L 517.892 633.641 L 519.396 633.504 L 520.216 633.778 L 520.353 633.778 L 520.489 633.641 L 521.583 633.914 L 521.583 633.914 Q 521.583 633.607 523.907 633.094 L 523.907 633.094 L 523.907 633.094 Q 524.42 632.547 525.001 632.411 L 525.001 632.411 L 525.001 632.411 Q 525.992 633.368 527.052 633.368 L 527.052 633.368 L 527.735 632.957 L 527.735 632.957 Q 528.043 633.402 529.786 633.778 L 529.786 633.778 L 531.427 633.368 L 532.931 633.504 L 533.614 633.504 L 534.435 633.094 L 534.435 633.094 Q 535.084 633.504 535.665 633.504 L 535.665 633.504 L 535.665 633.504 Q 536.827 633.504 537.579 633.231 L 537.579 633.231 L 540.587 633.641 L 540.587 633.641 Q 540.792 633.094 540.997 633.094 L 540.997 633.094 L 542.228 633.094 L 542.364 632.957 L 544.142 633.778 L 544.278 633.778 L 548.106 632.821 L 548.79 633.504 L 548.79 633.504 Q 549.61 633.504 549.884 633.778 L 549.884 633.778 L 550.294 633.778 L 550.978 633.368 L 551.114 633.504 L 551.388 633.504 L 551.388 633.504 Q 552.071 633.504 552.071 633.094 L 552.071 633.094 L 552.481 633.094 L 552.481 633.368 L 552.892 633.368 L 553.302 632.957 L 553.302 632.957 Q 553.473 632.957 553.678 632.992 L 553.678 632.992 L 553.678 632.992 Z  M 547.594 575.228 L 547.594 575.228 L 547.218 575.433 L 547.218 575.433 Q 544.791 575.296 543.937 575.023 L 543.937 575.023 L 543.526 575.023 L 543.39 575.16 L 542.569 574.886 L 542.022 575.296 L 541.749 575.296 L 541.749 575.296 Q 541.305 574.749 539.562 574.749 L 539.562 574.749 L 536.554 575.023 L 536.417 574.886 L 536.28 574.886 L 536.28 574.886 Q 535.904 575.16 534.093 575.433 L 534.093 575.433 L 533.136 575.16 L 532.315 575.296 L 532.315 575.296 Q 530.401 575.16 530.401 574.613 L 530.401 574.613 L 530.401 574.613 Q 529.479 575.433 528.214 575.433 L 528.214 575.433 L 528.214 575.433 Q 525.616 575.023 522.882 575.023 L 522.882 575.023 L 521.788 575.433 L 521.378 575.433 L 521.378 575.433 Q 520.66 575.433 520.147 575.023 L 520.147 575.023 L 519.327 575.296 L 518.507 574.886 L 517.823 575.296 L 517.687 575.16 L 517.687 570.716 L 518.097 570.648 L 518.097 570.648 Q 519.259 571.058 520.558 571.058 L 520.558 571.058 L 520.558 570.921 L 521.925 571.468 L 525.479 570.785 L 526.437 570.785 L 527.394 570.921 L 527.394 570.921 Q 527.394 570.716 527.94 570.511 L 527.94 570.511 L 528.077 570.648 L 528.214 570.648 L 529.034 570.511 L 529.034 570.511 Q 532.179 570.921 532.179 571.195 L 532.179 571.195 L 532.726 571.195 L 532.862 571.058 L 532.999 571.058 L 532.999 571.058 Q 533.136 571.468 533.819 571.468 L 533.819 571.468 L 534.366 571.468 L 534.366 571.468 Q 534.879 571.092 537.784 570.648 L 537.784 570.648 L 539.288 571.058 L 539.698 571.058 L 542.022 570.648 L 542.706 570.648 L 542.706 570.648 Q 543.219 571.195 544.757 571.195 L 544.757 571.195 L 544.757 571.195 Q 545.44 570.955 546.227 570.853 L 546.227 570.853 L 546.227 570.716 L 546.227 570.716 Q 546.5 570.75 546.808 570.819 L 546.808 570.819 L 546.808 570.819 Q 547.149 570.785 547.491 570.785 L 547.491 570.785 L 547.594 570.955 L 547.594 570.955 Q 548.277 571.126 548.995 571.366 L 548.995 571.366 L 549.679 571.366 L 549.679 571.366 Q 550.636 571.366 553.37 570.409 L 553.37 570.409 L 553.37 570.409 Q 553.609 570.511 553.883 570.579 L 553.883 570.579 L 553.883 574.715 L 553.644 574.784 L 552.003 574.51 L 552.003 574.51 Q 551.183 575.33 550.362 575.33 L 550.362 575.33 L 549.952 575.33 L 549.952 575.33 Q 549.508 575.33 548.995 574.92 L 548.995 574.92 L 548.858 574.92 L 548.858 574.92 Q 548.175 575.125 547.594 575.228 Z  M 400.997 579.432 L 400.997 579.432 L 403.526 579.432 L 403.526 579.432 Q 403.971 580.047 408.585 580.389 L 408.585 580.389 L 408.893 580.047 L 409.234 580.047 L 413.644 580.697 L 418.702 579.74 L 420.924 580.697 L 420.924 580.697 Q 420.924 584.491 417.779 584.491 L 417.779 584.491 L 417.13 586.712 L 417.13 589.242 L 417.779 591.771 L 417.779 593.651 L 417.779 593.651 Q 417.779 595.975 416.822 599.051 L 416.822 599.051 L 417.779 602.845 L 417.13 606.947 L 417.779 610.741 L 417.13 612.039 L 417.438 612.962 L 417.13 616.756 L 417.779 618.978 L 417.438 620.584 L 417.438 620.584 Q 417.438 622.396 420.616 625.951 L 420.616 625.951 L 419.659 627.215 L 418.702 627.215 L 415.216 626.566 L 415.216 626.566 Q 413.644 626.668 413.644 627.215 L 413.644 627.215 L 409.542 626.258 L 408.585 626.258 L 408.585 626.258 Q 408.585 627.215 407.628 627.215 L 407.628 627.215 L 407.628 626.908 L 407.628 626.908 Q 405.201 627.83 400.689 628.172 L 400.689 628.172 L 400.689 628.172 Q 398.775 628.172 398.775 625.951 L 398.775 625.951 L 398.468 625.951 L 398.468 625.951 Q 401.612 622.738 401.612 621.507 L 401.612 621.507 L 402.877 613.612 L 401.612 611.39 L 403.219 606.639 L 403.219 606.024 L 402.569 605.374 L 401.305 605.682 L 398.468 605.374 L 398.468 605.682 L 398.468 605.682 Q 395.938 605.238 395.938 603.153 L 395.938 603.153 L 395.938 602.196 L 396.554 601.58 L 399.391 601.58 L 399.732 601.888 L 399.732 601.888 Q 402.877 599.564 402.877 593.036 L 402.877 593.036 L 401.305 589.549 L 401.305 589.549 Q 402.877 587.498 402.877 586.405 L 402.877 586.405 L 402.877 586.405 Q 402.877 584.115 398.126 581.654 L 398.126 581.654 L 398.126 580.697 L 398.126 580.697 Q 398.57 579.432 400.997 579.432 Z  M 381.378 579.74 L 381.378 579.74 L 385.172 580.389 L 388.009 580.047 L 392.76 580.389 L 394.981 580.047 L 396.861 580.697 L 396.861 582.577 L 396.861 582.577 Q 393.102 585.277 392.76 587.02 L 392.76 587.02 L 393.717 593.343 L 393.717 595.872 L 394.024 597.479 L 392.76 599.666 L 392.76 602.196 L 392.76 602.196 Q 393.717 603.358 393.717 604.417 L 393.717 604.417 L 393.067 607.904 L 394.332 612.962 L 394.332 612.962 Q 392.76 613.988 392.76 616.756 L 392.76 616.756 L 392.76 616.756 Q 393.717 618.329 393.717 620.892 L 393.717 620.892 L 393.717 621.507 L 393.067 622.464 L 393.067 622.772 L 393.067 622.772 Q 393.067 623.421 394.981 623.729 L 394.981 623.729 L 394.981 623.729 Q 395.187 625.199 397.203 626.566 L 397.203 626.566 L 397.203 627.523 L 396.861 627.83 L 395.938 628.172 L 395.938 628.48 L 395.938 628.48 Q 389.991 627.83 386.437 626.566 L 386.437 626.566 L 386.437 626.566 Q 382.574 626.908 377.892 628.172 L 377.892 628.172 L 375.978 628.172 L 374.405 625.951 L 374.405 625.643 L 374.405 625.643 Q 374.405 623.626 377.584 622.772 L 377.584 622.772 L 377.584 617.713 L 376.627 615.833 L 376.627 615.833 Q 377.892 613.919 377.892 612.962 L 377.892 612.962 L 377.584 612.962 L 378.199 611.39 L 377.892 611.082 L 377.892 610.741 L 378.199 610.433 L 378.199 610.125 L 377.892 608.861 L 378.507 607.904 L 378.199 606.947 L 378.199 606.947 Q 379.156 605.272 379.156 601.58 L 379.156 601.58 L 377.242 598.402 L 377.892 594.3 L 377.892 594.3 Q 377.174 594.3 376.935 592.728 L 376.935 592.728 L 376.935 592.728 Q 377.652 588.934 378.849 588.934 L 378.849 588.934 L 378.849 588.934 Q 377.345 584.935 375.055 581.312 L 375.055 581.312 L 376.319 580.697 L 378.199 581.004 L 378.507 581.004 L 378.507 581.004 Q 380.216 579.74 381.378 579.74 Z  M 426.222 570.682 L 426.222 574.681 L 426.222 574.681 Q 425.641 574.749 424.991 574.749 L 424.991 574.749 L 422.257 574.613 L 420.069 575.023 L 419.249 574.613 L 418.839 574.749 L 418.292 574.613 L 417.198 574.886 L 417.062 574.749 L 415.831 574.749 L 414.327 574.886 L 414.327 574.886 Q 413.78 574.613 412.823 574.613 L 412.823 574.613 L 411.593 574.886 L 411.593 574.886 Q 409.952 574.886 409.132 574.339 L 409.132 574.339 L 407.901 574.749 L 406.534 574.613 L 406.397 574.613 L 406.261 574.749 L 405.44 574.476 L 404.483 575.023 L 402.296 574.613 L 401.202 574.886 L 400.655 574.613 L 400.108 574.749 L 399.972 574.749 L 399.698 574.476 L 399.698 574.476 Q 397.853 574.476 397.101 575.16 L 397.101 575.16 L 396.554 575.023 L 395.87 575.16 L 395.87 575.16 Q 395.87 574.886 394.093 574.749 L 394.093 574.749 L 393.683 574.886 L 391.905 574.476 L 390.812 574.886 L 389.718 574.886 L 389.171 575.023 L 389.171 575.023 Q 387.12 574.852 387.12 574.476 L 387.12 574.476 L 384.249 574.886 L 381.788 574.749 L 379.601 575.023 L 377.687 574.613 L 374.815 574.613 L 374.815 574.613 Q 374.61 574.818 373.688 574.954 L 373.688 574.954 L 373.688 570.682 L 375.089 570.921 L 375.089 570.921 Q 375.841 570.921 376.593 570.511 L 376.593 570.511 L 376.593 570.511 Q 377.447 570.511 378.233 570.921 L 378.233 570.921 L 380.421 570.511 L 383.565 570.785 L 383.565 570.648 L 383.839 570.648 L 384.249 570.921 L 385.343 570.648 L 386.026 570.648 L 386.847 570.921 L 389.171 570.648 L 391.085 571.058 L 392.179 570.921 L 393.683 571.058 L 395.323 570.648 L 395.87 570.785 L 400.792 570.374 L 400.929 570.511 L 401.886 570.374 L 402.433 570.511 L 402.433 570.511 Q 402.809 571.024 403.526 571.195 L 403.526 571.195 L 403.526 571.195 Q 404.894 570.819 404.894 570.648 L 404.894 570.648 L 406.124 570.785 L 406.124 570.785 Q 406.842 570.374 407.491 570.374 L 407.491 570.374 L 408.038 570.374 L 408.858 570.648 L 409.952 570.511 L 411.729 570.785 L 413.233 570.238 L 413.233 570.238 Q 416.104 570.785 418.565 570.785 L 418.565 570.785 L 418.702 570.785 L 418.839 570.648 L 418.976 570.785 L 420.069 570.648 L 420.89 570.785 L 420.89 570.785 Q 421.437 570.785 421.437 570.374 L 421.437 570.374 L 421.437 570.374 Q 422.291 570.374 424.718 571.058 L 424.718 571.058 L 426.222 570.682 L 426.222 570.682 Z  M 426.222 633.299 L 426.222 637.162 L 424.684 636.854 L 423.316 637.401 L 423.316 637.264 L 423.316 637.264 Q 422.018 637.264 420.855 637.674 L 420.855 637.674 L 419.488 637.401 L 419.488 637.401 Q 416.891 637.401 415.523 637.948 L 415.523 637.948 L 415.523 637.948 Q 412.789 636.991 411.832 636.991 L 411.832 636.991 L 411.148 636.991 L 411.148 636.991 Q 409.508 637.537 408.004 637.674 L 408.004 637.674 L 407.594 637.264 L 407.184 637.264 L 407.184 637.537 L 406.773 637.537 L 406.773 637.537 Q 406.773 637.127 406.09 637.127 L 406.09 637.127 L 405.816 637.127 L 405.68 637.264 L 404.996 636.854 L 404.586 636.854 L 404.586 636.854 Q 404.313 637.127 403.492 637.127 L 403.492 637.127 L 402.809 637.811 L 398.98 636.854 L 398.844 636.854 L 397.066 637.674 L 396.93 637.537 L 395.699 637.537 L 395.699 637.537 Q 395.494 637.537 395.289 636.991 L 395.289 636.991 L 392.281 637.401 L 392.281 637.401 Q 391.529 637.127 390.367 637.127 L 390.367 637.127 L 390.367 637.127 Q 389.786 637.127 389.137 637.537 L 389.137 637.537 L 388.316 637.127 L 387.633 637.127 L 386.129 637.264 L 384.488 636.854 L 384.488 636.854 Q 382.745 637.23 382.438 637.674 L 382.438 637.674 L 381.754 637.264 L 381.754 637.264 Q 380.694 637.264 379.703 638.221 L 379.703 638.221 L 379.703 638.221 Q 379.122 638.084 378.609 637.537 L 378.609 637.537 L 378.609 637.537 Q 376.285 637.025 376.285 636.717 L 376.285 636.717 L 375.191 636.991 L 375.055 636.854 L 374.918 636.854 L 374.098 637.127 L 373.79 637.093 L 373.79 633.436 L 374.508 633.573 L 376.148 633.162 L 376.559 633.162 L 377.652 633.436 L 377.789 633.299 L 379.02 633.436 L 379.566 633.162 L 380.113 633.436 L 381.617 633.436 L 382.711 633.026 L 382.848 633.026 L 382.984 633.162 L 385.172 632.616 L 386.539 633.299 L 387.77 633.299 L 389.137 633.162 L 389.41 633.436 L 389.684 633.162 L 391.324 633.299 L 392.691 633.299 L 393.375 633.436 L 393.785 633.026 L 395.016 633.436 L 395.563 633.299 L 395.699 633.299 L 395.836 633.436 L 396.656 633.026 L 398.16 633.299 L 399.117 633.162 L 401.031 633.709 L 404.859 633.162 L 404.996 633.299 L 405.68 633.162 L 406.5 633.299 L 408.551 633.026 L 408.551 633.026 Q 409.61 633.026 411.012 633.436 L 411.012 633.436 L 411.148 633.436 L 411.148 633.436 Q 411.661 633.026 412.105 633.026 L 412.105 633.026 L 412.516 633.026 L 412.516 633.026 Q 413.336 633.026 414.156 633.846 L 414.156 633.846 L 415.797 633.573 L 416.344 633.709 L 416.891 633.573 L 417.984 633.573 L 417.984 633.573 Q 418.771 633.026 419.215 633.026 L 419.215 633.026 L 420.309 633.162 L 420.445 633.162 L 420.582 633.026 L 421.266 633.436 L 422.086 633.026 L 422.906 633.299 L 422.906 633.299 Q 423.419 632.889 424.137 632.889 L 424.137 632.889 L 424.547 632.889 L 425.641 633.299 L 426.222 633.299 L 426.222 633.299 Z  M 445.533 579.466 L 445.533 579.466 L 445.533 579.466 Q 446.764 579.774 446.764 581.038 L 446.764 581.038 L 446.764 581.038 Q 445.807 584.012 443.038 585.379 L 443.038 585.379 L 442.423 589.105 L 442.423 591.908 L 442.73 594.095 L 442.73 594.095 Q 441.5 594.266 441.5 595.018 L 441.5 595.018 L 441.808 595.36 L 441.808 595.667 L 441.192 597.821 L 441.808 599.701 L 441.5 601.273 L 442.115 601.888 L 442.115 602.503 L 441.5 603.426 L 441.5 604.383 L 442.115 605.306 L 442.115 606.537 L 441.808 606.878 L 442.423 608.109 L 441.808 609.989 L 441.808 615.594 L 441.192 616.517 L 441.192 618.055 L 441.192 618.055 Q 441.192 619.456 445.841 624.925 L 445.841 624.925 L 445.841 624.925 Q 445.841 628.343 444.61 628.343 L 444.61 628.343 L 444.61 628.343 Q 443.312 627.113 438.39 626.156 L 438.39 626.156 L 438.39 626.156 Q 431.417 622.669 429.332 617.132 L 429.332 617.132 L 429.332 617.132 Q 429.332 615.765 427.794 613.099 L 427.794 613.099 L 427.794 613.099 Q 427.794 612.347 425.606 609.681 L 425.606 609.681 L 425.299 608.109 L 425.299 608.109 Q 426.529 606.229 426.529 605.306 L 426.529 605.306 L 426.222 601.273 L 426.222 601.273 Q 427.486 598.504 428.102 591.908 L 428.102 591.908 L 429.024 590.985 L 428.717 588.182 L 428.717 588.182 Q 429.981 588.182 429.981 586.61 L 429.981 586.61 L 429.981 586.61 Q 432.784 586.61 432.784 584.149 L 432.784 584.149 L 435.895 581.961 L 437.74 582.269 L 437.74 582.269 Q 439.688 581.038 445.533 579.466 Z  M 449.566 580.697 L 452.062 580.081 L 452.062 580.081 Q 457.667 581.107 457.667 583.192 L 457.667 583.192 L 457.667 583.192 Q 458.351 583.841 461.085 583.841 L 461.085 583.841 L 461.085 583.841 Q 463.272 586.746 463.272 588.49 L 463.272 588.49 L 463.272 588.49 Q 465.597 588.49 468.263 600.931 L 468.263 600.931 L 468.57 601.273 L 468.57 601.273 Q 467.34 603.631 467.34 608.724 L 467.34 608.724 L 467.647 611.527 L 467.647 611.527 Q 466.759 614.637 465.46 614.637 L 465.46 614.637 L 465.46 614.637 Q 465.46 620.755 458.932 623.661 L 458.932 623.661 L 458.932 623.661 Q 456.881 626.771 450.523 626.771 L 450.523 626.771 L 450.523 626.771 Q 449.122 628.343 447.721 628.343 L 447.721 628.343 L 447.413 627.42 L 447.413 627.42 Q 447.413 624.037 451.139 622.122 L 451.139 622.122 L 451.139 622.122 Q 451.788 618.636 452.711 618.397 L 452.711 618.397 L 452.369 618.055 L 452.369 617.44 L 452.711 614.329 L 452.711 614.329 Q 450.831 608.724 450.831 605.921 L 450.831 605.921 L 450.831 605.921 Q 450.831 604.212 452.711 602.811 L 452.711 602.811 L 453.019 600.316 L 451.139 596.283 L 452.369 591.6 L 451.139 589.412 L 451.446 587.874 L 451.446 586.952 L 451.446 586.952 Q 451.446 584.627 448.336 582.577 L 448.336 582.577 L 448.336 582.269 L 448.644 580.697 L 449.566 580.697 L 449.566 580.697 Z  M 473.082 570.819 L 473.082 574.476 L 472.877 574.408 L 472.877 574.408 Q 472.228 574.818 470.416 574.818 L 470.416 574.818 L 470.279 574.818 L 468.912 574.408 L 467.818 574.408 L 466.041 574.954 L 464.4 574.954 L 463.854 574.818 L 463.717 574.954 L 461.666 574.818 L 458.248 575.228 L 454.146 574.408 L 452.643 574.544 L 451.822 574.271 L 451.686 574.271 L 451.549 574.408 L 450.455 574.134 L 450.455 574.134 Q 450.455 574.442 448.131 574.954 L 448.131 574.954 L 448.131 574.954 Q 447.618 575.501 447.037 575.638 L 447.037 575.638 L 447.037 575.638 Q 446.046 574.681 444.986 574.681 L 444.986 574.681 L 444.303 575.091 L 444.303 575.091 Q 443.995 574.647 442.252 574.271 L 442.252 574.271 L 440.611 574.681 L 439.107 574.544 L 438.424 574.544 L 437.604 574.954 L 437.604 574.954 Q 436.954 574.544 436.373 574.544 L 436.373 574.544 L 436.373 574.544 Q 435.211 574.544 434.459 574.818 L 434.459 574.818 L 431.451 574.408 L 431.451 574.408 Q 431.246 574.954 431.041 574.954 L 431.041 574.954 L 429.811 574.954 L 429.674 575.091 L 427.896 574.271 L 427.76 574.271 L 425.094 574.92 L 425.094 571.024 L 425.709 571.126 L 427.623 570.579 L 428.58 570.716 L 430.084 570.443 L 430.904 570.853 L 431.041 570.716 L 431.178 570.716 L 431.725 570.853 L 432.955 570.443 L 433.365 570.853 L 434.049 570.716 L 435.416 570.716 L 437.057 570.579 L 437.33 570.853 L 437.604 570.579 L 438.971 570.716 L 440.201 570.716 L 441.568 570.033 L 443.756 570.579 L 443.893 570.443 L 444.029 570.443 L 445.123 570.853 L 446.627 570.853 L 447.174 570.579 L 447.721 570.853 L 448.951 570.716 L 449.088 570.853 L 450.182 570.579 L 450.592 570.579 L 452.232 570.99 L 453.6 570.716 L 454.146 570.853 L 456.061 570.443 L 456.197 570.579 L 456.334 570.579 L 457.291 570.306 L 457.701 570.443 L 458.658 570.169 L 459.889 570.579 L 462.076 570.579 L 462.896 570.716 L 464.811 570.443 L 467.135 570.99 L 469.322 570.716 L 470.279 570.853 L 470.826 570.716 L 471.51 570.853 L 472.193 570.443 L 472.877 570.853 L 472.877 570.853 Q 472.979 570.853 473.082 570.819 L 473.082 570.819 L 473.082 570.819 Z  M 472.979 634.256 L 472.979 638.119 L 472.604 638.255 L 472.193 638.255 L 472.193 638.255 Q 471.476 638.255 470.963 637.845 L 470.963 637.845 L 470.143 638.119 L 469.322 637.708 L 468.639 638.119 L 468.502 637.982 L 468.365 637.982 L 467.271 638.119 L 467.271 638.119 Q 466.827 638.119 466.041 637.572 L 466.041 637.572 L 464.947 637.572 L 464.4 637.435 L 463.854 637.572 L 462.213 637.298 L 462.213 637.298 Q 461.393 638.119 460.572 638.119 L 460.572 638.119 L 460.162 638.119 L 460.162 638.119 Q 459.718 638.119 459.205 637.708 L 459.205 637.708 L 459.068 637.708 L 459.068 637.708 Q 457.667 638.119 456.607 638.119 L 456.607 638.119 L 454.557 637.845 L 453.736 637.982 L 453.053 637.845 L 452.916 637.982 L 449.088 637.435 L 447.174 637.982 L 446.217 637.845 L 444.713 638.119 L 443.893 637.708 L 443.756 637.845 L 443.619 637.845 L 443.072 637.708 L 441.842 638.119 L 441.432 637.708 L 440.748 637.845 L 439.381 637.845 L 437.74 637.982 L 437.467 637.708 L 437.193 637.982 L 435.826 637.845 L 434.596 637.845 L 433.229 638.529 L 431.041 637.982 L 430.904 638.119 L 430.768 638.119 L 429.674 637.708 L 428.17 637.708 L 427.623 637.982 L 427.076 637.708 L 425.846 637.845 L 425.709 637.708 L 425.094 637.845 L 425.094 634.017 L 425.094 634.017 Q 425.675 633.812 426.666 633.607 L 426.666 633.607 L 426.666 633.607 Q 427.179 633.06 427.76 632.923 L 427.76 632.923 L 427.76 632.923 Q 428.751 633.88 429.811 633.88 L 429.811 633.88 L 430.494 633.47 L 430.494 633.47 Q 430.802 633.914 432.545 634.29 L 432.545 634.29 L 434.186 633.88 L 435.689 634.017 L 436.373 634.017 L 437.193 633.607 L 437.193 633.607 Q 437.843 634.017 438.424 634.017 L 438.424 634.017 L 438.424 634.017 Q 439.586 634.017 440.338 633.744 L 440.338 633.744 L 443.346 634.154 L 443.346 634.154 Q 443.551 633.607 443.756 633.607 L 443.756 633.607 L 444.986 633.607 L 445.123 633.47 L 446.9 634.29 L 447.037 634.29 L 450.865 633.333 L 451.549 634.017 L 451.549 634.017 Q 452.369 634.017 452.643 634.29 L 452.643 634.29 L 453.053 634.29 L 453.736 633.88 L 453.873 634.017 L 454.146 634.017 L 454.146 634.017 Q 454.83 634.017 454.83 633.607 L 454.83 633.607 L 455.24 633.607 L 455.24 633.88 L 455.65 633.88 L 456.061 633.47 L 456.061 633.47 Q 457.564 633.607 459.205 634.154 L 459.205 634.154 L 459.889 634.154 L 459.889 634.154 Q 460.846 634.154 463.58 633.197 L 463.58 633.197 L 463.58 633.197 Q 464.947 633.744 467.545 633.744 L 467.545 633.744 L 468.912 633.47 L 468.912 633.47 Q 470.074 633.88 471.373 633.88 L 471.373 633.88 L 471.373 633.744 L 472.74 634.29 L 472.979 634.256 L 472.979 634.256 Z  M 475.064 579.466 L 475.064 579.466 L 477.628 579.774 L 479.85 579.466 L 479.85 579.466 Q 482.994 579.466 483.37 583.636 L 483.37 583.636 L 480.191 585.55 L 480.191 586.165 L 480.191 586.165 Q 480.191 589.173 478.277 590.985 L 478.277 590.985 L 478.277 590.985 Q 478.277 597.376 476.021 597.376 L 476.021 597.376 L 475.064 597.376 L 475.064 597.376 Q 473.902 597.376 473.15 592.899 L 473.15 592.899 L 473.458 592.557 L 473.458 592.249 L 473.15 590.335 L 473.458 585.858 L 473.15 585.55 L 473.15 585.208 L 473.458 584.251 L 473.458 584.251 Q 472.74 584.251 472.193 580.423 L 472.193 580.423 L 472.193 580.423 Q 472.193 579.466 475.064 579.466 Z  M 504.083 575.057 L 503.81 574.886 L 503.81 574.886 Q 503.707 574.92 503.639 574.92 L 503.639 574.92 L 503.639 574.92 Q 501.007 574.784 500.768 574.51 L 500.768 574.51 L 500.631 574.51 L 500.494 574.647 L 499.947 574.373 L 499.947 574.373 Q 499.947 574.886 495.846 575.057 L 495.846 575.057 L 493.521 574.51 L 492.975 574.51 L 492.838 574.647 L 492.701 574.51 L 492.428 574.51 L 491.744 574.647 L 490.924 574.51 L 490.377 574.51 L 488.6 574.784 L 487.096 574.51 L 485.729 574.51 L 484.498 574.1 L 482.584 574.51 L 482.447 574.51 L 481.217 574.373 L 479.303 574.92 L 477.662 574.51 L 476.295 574.51 L 476.158 574.647 L 476.021 574.51 L 475.475 574.51 L 474.244 574.373 L 471.271 574.681 L 471.271 570.579 L 471.646 570.819 L 472.057 570.819 L 472.877 570.545 L 473.287 570.819 L 473.287 570.819 Q 473.287 570.545 476.158 570.409 L 476.158 570.409 L 476.158 570.409 Q 476.432 570.682 477.799 570.819 L 477.799 570.819 L 477.799 570.819 Q 477.799 570.545 479.029 570.409 L 479.029 570.409 L 479.029 570.409 Q 479.029 570.75 480.533 570.955 L 480.533 570.955 L 482.037 570.955 L 482.994 570.545 L 485.865 571.092 L 486.822 570.819 L 486.959 570.819 L 487.096 570.955 L 488.053 570.682 L 490.377 571.092 L 491.471 570.682 L 491.607 570.682 L 491.744 570.819 L 493.795 570.545 L 495.709 571.092 L 498.443 570.545 L 501.041 570.682 L 502.135 570.545 L 502.135 570.545 Q 502.135 570.785 503.502 570.819 L 503.502 570.819 L 503.57 570.819 L 503.81 570.409 L 503.81 570.409 Q 505.382 570.409 506.544 570.819 L 506.544 570.819 L 506.544 570.819 Q 508.116 570.819 508.595 570.272 L 508.595 570.272 L 509.278 570.272 L 511.603 570.682 L 512.013 570.682 L 513.517 570.272 L 513.517 570.272 Q 516.422 570.716 516.935 571.092 L 516.935 571.092 L 517.481 571.092 L 517.481 571.092 Q 518.165 571.092 518.302 570.682 L 518.302 570.682 L 518.438 570.682 L 518.575 570.819 L 519.122 570.819 L 519.122 574.92 L 518.985 574.92 L 518.165 574.784 L 517.208 575.057 L 517.208 575.057 Q 515.396 574.784 515.021 574.51 L 515.021 574.51 L 514.884 574.51 L 514.747 574.647 L 511.739 574.373 L 511.739 574.373 Q 509.996 574.373 509.552 574.92 L 509.552 574.92 L 509.278 574.92 L 508.731 574.51 L 507.911 574.784 L 507.774 574.647 L 507.364 574.647 L 507.364 574.647 Q 506.51 574.92 504.083 575.057 L 504.083 575.057 L 504.083 575.057 Z  M 503.468 637.059 L 503.468 637.059 L 503.331 637.059 L 502.101 637.332 L 502.101 637.332 Q 502.101 637.059 501.69 637.059 L 501.69 637.059 L 500.597 637.196 L 500.597 637.059 L 500.597 637.059 Q 499.332 637.23 498.819 637.606 L 498.819 637.606 L 498.819 637.606 Q 497.486 637.332 496.905 636.786 L 496.905 636.786 L 496.358 636.922 L 495.948 636.786 L 494.854 636.922 L 494.718 636.786 L 494.034 636.922 L 493.624 636.922 L 491.71 636.786 L 491.573 636.922 L 491.437 636.922 L 490.616 636.649 L 488.155 637.059 L 487.745 637.059 L 486.651 636.786 L 485.968 636.786 L 485.968 636.786 Q 484.977 636.786 483.507 637.196 L 483.507 637.196 L 483.097 637.059 L 481.183 637.196 L 480.636 637.196 L 478.448 636.649 L 478.448 636.649 Q 476.021 637.332 475.167 637.332 L 475.167 637.332 L 475.167 637.332 Q 475.167 636.922 474.62 636.922 L 474.62 636.922 L 473.8 637.059 L 472.706 636.922 L 472.569 637.059 L 472.433 636.922 L 472.296 636.922 L 472.296 636.922 Q 471.783 636.922 471.271 636.956 L 471.271 636.956 L 471.271 632.889 L 472.022 633.094 L 472.569 632.957 L 472.979 633.094 L 473.8 632.684 L 475.987 633.094 L 478.722 632.957 L 478.722 632.957 Q 480.499 632.957 481.593 633.368 L 481.593 633.368 L 481.593 633.368 Q 482.994 632.411 483.507 632.411 L 483.507 632.411 L 483.917 632.411 L 486.515 632.957 L 488.429 632.957 L 489.386 632.684 L 491.71 632.957 L 491.71 632.957 Q 492.359 632.957 493.761 632.274 L 493.761 632.274 L 493.761 632.274 Q 494.444 632.274 495.675 633.231 L 495.675 633.231 L 495.948 633.231 L 496.358 632.821 L 496.495 632.821 L 496.495 633.094 L 496.632 633.094 L 496.632 633.094 Q 497.179 632.547 497.589 632.547 L 497.589 632.547 L 498.683 632.684 L 498.819 632.547 L 498.819 632.547 Q 498.956 632.957 499.64 632.957 L 499.64 632.957 L 499.64 632.957 Q 501.69 632.923 501.69 632.684 L 501.69 632.684 L 503.194 633.094 L 504.015 632.957 L 504.22 632.957 L 504.22 632.957 Q 504.459 632.923 504.767 632.923 L 504.767 632.923 L 506.817 633.47 L 507.364 633.47 L 509.825 633.744 L 511.329 633.47 L 512.149 633.607 L 516.251 632.923 L 516.935 632.923 L 516.935 632.923 Q 517.208 633.299 519.122 633.436 L 519.122 633.436 L 519.122 637.401 L 517.481 636.888 L 514.61 637.708 L 510.782 637.298 L 510.782 637.298 Q 510.646 637.708 509.962 637.708 L 509.962 637.708 L 509.415 637.708 L 509.415 637.708 Q 508.697 637.708 508.185 637.298 L 508.185 637.298 L 505.313 637.708 L 505.313 637.708 Q 503.741 637.708 503.468 637.059 Z  M 504.493 580.423 L 507.364 579.774 L 512.149 579.774 L 512.149 579.774 Q 513.756 582.85 513.756 586.507 L 513.756 586.507 L 513.756 586.507 Q 512.799 588.182 512.799 590.985 L 512.799 590.985 L 513.448 592.249 L 512.149 597.376 L 510.543 597.376 L 510.543 597.376 Q 509.586 597.376 508.971 593.856 L 508.971 593.856 L 509.586 593.206 L 509.586 593.206 Q 509.586 587.362 506.715 585.858 L 506.715 585.858 L 506.715 585.858 Q 506.715 583.944 504.493 583.944 L 504.493 583.944 L 504.151 583.636 L 504.151 583.294 L 504.801 582.03 L 504.493 580.423 L 504.493 580.423 Z  M 495.196 579.774 L 495.196 579.774 L 496.495 580.116 L 498.102 579.774 L 498.102 579.774 Q 499.674 579.774 501.28 581.38 L 501.28 581.38 L 500.973 587.464 L 501.28 590.335 L 500.631 591.942 L 501.588 597.684 L 501.588 597.684 Q 500.87 597.684 500.631 599.94 L 500.631 599.94 L 500.973 600.897 L 500.323 602.811 L 500.323 603.119 L 500.631 604.076 L 500.016 610.809 L 500.016 610.809 Q 500.768 611.8 501.28 617.816 L 501.28 617.816 L 500.973 619.115 L 501.28 620.072 L 500.631 620.721 L 500.631 622.293 L 500.631 622.293 Q 500.973 623.319 504.151 624.207 L 504.151 624.207 L 504.493 625.814 L 504.493 626.463 L 504.493 626.463 Q 503.639 626.463 502.887 628.07 L 502.887 628.07 L 501.93 628.07 L 500.016 627.728 L 500.016 627.728 Q 498.58 628.377 495.846 628.377 L 495.846 628.377 L 493.932 627.728 L 493.932 628.07 L 493.624 627.728 L 492.975 627.728 L 490.411 628.377 L 490.411 628.377 Q 488.873 628.377 486.583 626.771 L 486.583 626.771 L 483.37 627.728 L 483.37 627.728 Q 483.37 626.942 482.105 626.771 L 482.105 626.771 L 482.105 626.156 L 482.105 626.156 Q 483.063 626.156 483.063 624.549 L 483.063 624.549 L 483.063 624.549 Q 484.566 624.549 485.284 620.379 L 485.284 620.379 L 485.626 620.072 L 485.626 617.201 L 485.626 617.201 Q 485.626 610.57 486.891 609.852 L 486.891 609.852 L 486.891 609.51 L 486.891 609.51 Q 486.275 605.477 484.977 604.725 L 484.977 604.725 L 484.977 604.417 L 484.977 604.417 Q 485.934 603.221 485.934 602.162 L 485.934 602.162 L 485.934 599.94 L 485.284 594.813 L 485.284 594.505 L 485.284 594.505 Q 485.284 592.284 487.232 589.686 L 487.232 589.686 L 487.232 589.686 Q 487.232 584.832 486.275 580.731 L 486.275 580.731 L 486.583 580.731 L 492.667 581.073 L 492.667 581.073 Q 492.667 580.218 495.196 579.774 Z " fill="rgb(15,36,64)"/></svg>