<?xml version="1.0" standalone="no"?><!-- Generator: Gravit.io --><svg xmlns="http://www.w3.org/2000/svg" xmlns:xlink="http://www.w3.org/1999/xlink" style="isolation:isolate" viewBox="832 76.5 273 273" width="273" height="273"><g><circle vector-effect="non-scaling-stroke" cx="968.5" cy="213" r="136.5" fill="rgb(31,73,128)"/><path d=" M 1105 213 C 1105 207.097 1104.625 201.282 1103.898 195.577 L 1060.021 151.7 C 1053.552 144.145 1042.51 140.175 1027.78 140.175 C 1021.654 140.175 1014.973 140.868 1007.886 142.238 C 998.274 116.997 984.038 102.613 968.5 102.613 C 952.997 102.613 938.723 117.015 929.113 142.239 C 922.026 140.869 915.348 140.176 909.218 140.176 C 892.57 140.176 880.627 145.245 874.682 154.835 C 865.945 168.927 871.763 190.024 890.621 213.002 C 871.763 235.981 865.945 257.075 874.681 271.166 C 875.87 273.083 877.303 274.818 878.961 276.37 L 878.882 276.426 L 950.818 348.362 C 956.607 349.111 962.508 349.5 968.5 349.5 C 1043.886 349.5 1105 288.387 1105 213 Z " fill="rgb(18,44,77)"/><path d=" M 1046.378 213.005 C 1048.9 209.924 1051.228 206.829 1053.334 203.735 C 1066.597 184.248 1069.788 166.881 1062.32 154.834 C 1054.151 141.659 1034.388 137.119 1007.889 142.239 C 1007.074 140.105 1006.22 138.028 1005.327 136.017 C 995.753 114.476 982.674 102.613 968.5 102.613 C 952.997 102.613 938.724 117.015 929.114 142.238 C 926.871 141.806 924.656 141.437 922.476 141.136 C 899.123 137.922 882.15 142.787 874.681 154.834 C 865.945 168.926 871.763 190.021 890.62 212.999 C 888.099 216.079 885.772 219.173 883.667 222.266 C 870.404 241.753 867.213 259.119 874.681 271.166 C 880.652 280.795 892.831 285.816 909.309 285.816 C 915.359 285.816 921.996 285.13 929.111 283.756 C 929.926 285.893 930.78 287.972 931.674 289.984 C 941.247 311.524 954.326 323.386 968.5 323.386 C 984.002 323.386 998.276 308.982 1007.886 283.761 C 1010.129 284.193 1012.344 284.563 1014.525 284.863 C 1019.223 285.509 1023.661 285.829 1027.817 285.829 C 1044.32 285.829 1056.354 280.788 1062.32 271.165 C 1071.039 257.1 1065.219 235.976 1046.378 213.005 Z  M 1056.266 158.587 C 1062.077 167.959 1058.862 182.955 1047.447 199.727 C 1040.326 210.19 1030.567 220.692 1018.911 230.571 C 1019.326 224.813 1019.539 218.951 1019.539 213 C 1019.539 207.062 1019.324 201.198 1018.91 195.444 C 1022.08 198.136 1025.13 200.887 1028.045 203.695 L 1032.987 198.566 C 1028.299 194.05 1023.283 189.674 1017.973 185.46 C 1016.457 172.382 1013.859 160.06 1010.282 149.04 C 1032.871 144.885 1049.935 148.373 1056.266 158.587 Z  M 924.583 213 C 924.583 204.883 924.983 196.939 925.776 189.219 C 931.909 184.49 938.465 179.948 945.358 175.674 C 952.946 170.97 960.735 166.738 968.522 163.063 C 976.238 166.712 983.994 170.933 991.641 175.674 C 998.536 179.948 1005.078 184.476 1011.225 189.22 C 1012.011 196.923 1012.417 204.888 1012.417 213 C 1012.417 221.117 1012.017 229.061 1011.225 236.781 C 1005.091 241.51 998.535 246.052 991.642 250.326 C 984.054 255.03 976.265 259.261 968.477 262.937 C 960.761 259.288 953.005 255.067 945.358 250.326 C 938.464 246.052 931.922 241.524 925.775 236.78 C 924.989 229.076 924.583 221.111 924.583 213 Z  M 968.5 109.735 C 979.527 109.735 990.578 120.368 998.818 138.909 C 1003.959 150.474 1007.743 164.302 1009.996 179.412 C 1005.32 176.025 1000.45 172.755 995.394 169.621 C 989.314 165.852 983.159 162.398 977.002 159.286 C 982.497 156.982 987.954 154.969 993.303 153.295 L 991.176 146.498 C 983.76 148.819 976.149 151.758 968.521 155.219 C 957.5 150.212 946.575 146.347 936.155 143.786 C 944.527 122.396 956.482 109.735 968.5 109.735 Z  M 880.734 158.587 C 886.545 149.215 901.403 145.426 921.505 148.192 C 933.512 149.844 946.629 153.645 960.043 159.276 C 953.833 162.408 947.656 165.871 941.607 169.621 C 936.56 172.75 931.688 176.024 927.016 179.408 C 927.686 174.945 928.49 170.567 929.435 166.289 L 922.481 164.753 C 921.003 171.443 919.851 178.36 919.023 185.464 C 910.143 192.506 902.162 199.933 895.34 207.507 C 879.388 187.695 873.917 169.581 880.734 158.587 Z  M 880.734 267.413 C 874.923 258.041 878.138 243.045 889.553 226.273 C 892.009 222.665 894.783 219.052 897.836 215.462 C 897.93 215.364 898.015 215.263 898.095 215.158 C 903.837 208.44 910.567 201.805 918.09 195.43 C 917.675 201.187 917.461 207.049 917.461 213 C 917.461 218.937 917.676 224.802 918.09 230.556 C 914.92 227.864 911.869 225.113 908.955 222.304 L 904.013 227.434 C 908.702 231.951 913.717 236.326 919.027 240.54 C 920.544 253.618 923.141 265.94 926.719 276.96 C 904.135 281.115 887.061 277.617 880.734 267.413 Z  M 968.5 316.265 C 957.473 316.265 946.422 305.632 938.182 287.091 C 933.041 275.526 929.257 261.698 927.004 246.588 C 931.681 249.976 936.552 253.245 941.606 256.379 C 947.686 260.148 953.841 263.602 959.998 266.714 C 954.503 269.018 949.046 271.031 943.697 272.705 L 945.824 279.502 C 953.24 277.181 960.851 274.242 968.478 270.782 C 979.499 275.788 990.424 279.653 1000.844 282.215 C 992.474 303.603 980.516 316.265 968.5 316.265 Z  M 1056.266 267.413 C 1050.455 276.785 1035.596 280.574 1015.495 277.808 C 1003.488 276.156 990.371 272.355 976.957 266.724 C 983.167 263.592 989.344 260.129 995.394 256.379 C 1000.44 253.25 1005.313 249.976 1009.985 246.592 C 1009.315 251.055 1008.51 255.433 1007.566 259.71 L 1014.52 261.246 C 1015.997 254.557 1017.149 247.64 1017.976 240.536 C 1026.856 233.494 1034.838 226.067 1041.66 218.493 C 1057.597 238.296 1063.067 256.443 1056.266 267.413 Z " fill="rgb(255,255,255)"/><path d=" M 990.397 191.232 C 978.251 184.822 968.5 196.099 968.5 196.099 C 968.5 196.099 958.749 184.822 946.603 191.233 C 937.845 195.855 932.858 212.378 946.603 225.295 C 960.714 238.554 968.5 242.325 968.5 242.325 C 968.5 242.325 976.286 238.554 990.397 225.294 C 1004.142 212.377 999.155 195.855 990.397 191.232 Z " fill="rgb(64,77,11)"/><path d=" M 990.397 225.294 C 976.286 238.553 968.5 242.325 968.5 242.325 L 968.5 196.099 C 968.5 196.099 978.251 184.822 990.397 191.233 C 999.155 195.855 1004.142 212.377 990.397 225.294 Z " fill="rgb(172,204,39)"/></g></svg>