<?xml version="1.0" standalone="no"?><!-- Generator: Gravit.io --><svg xmlns="http://www.w3.org/2000/svg" xmlns:xlink="http://www.w3.org/1999/xlink" style="isolation:isolate" viewBox="1212 221 395.947 331.449" width="395.947" height="331.449"><g><path d=" M 1416.993 262.594 L 1604.393 398.908 C 1609.11 402.34 1609.134 407.98 1604.445 411.496 L 1420 549.768 C 1415.31 553.283 1407.673 553.351 1402.954 549.918 L 1215.555 413.604 C 1210.836 410.173 1210.812 404.532 1215.501 401.017 L 1399.948 262.745 C 1404.636 259.229 1412.274 259.161 1416.993 262.594 Z " fill="rgb(133,133,133)"/><path d=" M 1315.38 264.275 L 1319.126 270.954 L 1379.793 236.828 L 1376.047 230.149 L 1315.38 264.275 Z " fill="rgb(0,0,0)"/><path d=" M 1383.163 230.149 L 1379.417 236.828 L 1442.889 272.318 L 1446.636 265.638 L 1383.163 230.149 Z " fill="rgb(0,0,0)"/><path d=" M 1546.805 416.314 L 1546.805 424.925 C 1546.805 438.795 1540.845 452 1530.44 461.173 L 1529.981 461.574 C 1524.115 466.744 1516.563 469.601 1508.741 469.601 L 1476.425 469.601 C 1472.394 469.601 1468.433 468.84 1464.74 467.401 C 1461.047 465.96 1457.622 463.831 1454.655 461.098 C 1444.732 451.947 1439.084 439.064 1439.084 425.565 L 1439.084 416.052 C 1439.084 386.829 1454.024 366.679 1478.686 351.001 L 1479.162 350.701 L 1479.162 339.085 L 1470.775 291.824 C 1470.408 290.075 1471.746 288.429 1473.537 288.429 L 1511.835 288.429 C 1513.621 288.429 1514.959 290.07 1514.598 291.82 L 1506.303 339.072 L 1506.303 350.701 L 1506.862 351.049 C 1531.722 366.686 1546.805 386.948 1546.805 416.314 L 1546.805 416.314 Z " fill="rgb(42,83,40)"/><path d=" M 1546.805 416.314 L 1546.805 424.925 C 1546.805 438.795 1540.845 452 1530.44 461.173 L 1529.981 461.574 C 1524.115 466.744 1516.563 469.601 1508.741 469.601 L 1489.454 469.601 C 1485.422 469.601 1481.462 468.84 1477.769 467.401 C 1474.077 465.96 1470.652 463.831 1467.685 461.098 C 1457.759 451.947 1452.114 439.064 1452.114 425.565 L 1452.114 416.052 C 1452.114 386.829 1467.052 366.679 1491.714 351.001 L 1492.192 350.701 L 1492.192 339.085 L 1483.802 291.824 C 1483.438 290.075 1484.775 288.429 1486.565 288.429 L 1511.835 288.429 C 1513.621 288.429 1514.959 290.07 1514.596 291.82 L 1506.303 339.072 L 1506.303 350.701 L 1506.862 351.049 C 1531.722 366.686 1546.805 386.948 1546.805 416.314 L 1546.805 416.314 Z " fill="rgb(49,87,52)"/><path d=" M 1472.071 299.125 L 1470.775 291.824 C 1470.408 290.075 1471.746 288.429 1473.537 288.429 L 1511.835 288.429 C 1513.621 288.429 1514.959 290.07 1514.598 291.82 L 1513.315 299.126 L 1472.071 299.125 Z " fill="rgb(200,110,38)"/><g style="opacity:0.2;"><g style="opacity:0.2;"><g opacity="0.2"><path d=" M 1484.643 289.182 C 1483.871 289.904 1483.622 290.83 1483.802 291.867 L 1485.099 299.125 L 1472.071 299.125 L 1470.775 291.824 C 1470.408 290.075 1471.746 288.429 1473.537 288.429 L 1486.565 288.429 C 1485.808 288.432 1485.178 288.693 1484.643 289.182 Z " fill="rgb(0,0,0)"/></g></g></g><g><path d=" M 1513.758 444.368 L 1473.59 393.634 L 1473.393 429.981 L 1473.393 429.981 Q 1473.365 435.289 1473.436 438.798 L 1473.436 438.798 L 1473.436 438.798 Q 1473.474 440.058 1474.553 440.333 L 1474.553 440.333 L 1479.897 441.937 L 1479.976 443.961 L 1479.976 443.961 Q 1474.354 443.796 1470.755 443.777 L 1470.755 443.777 L 1470.755 443.777 Q 1467.246 443.758 1461.443 443.861 L 1461.443 443.861 L 1461.273 441.926 L 1466.816 440.291 L 1466.816 440.291 Q 1467.987 439.938 1468.037 438.903 L 1468.037 438.903 L 1468.037 438.903 Q 1468.147 435.261 1468.175 429.953 L 1468.175 429.953 L 1468.373 393.47 L 1468.373 393.47 Q 1468.396 388.972 1468.323 386.002 L 1468.323 386.002 L 1468.323 386.002 Q 1468.284 384.833 1467.252 384.467 L 1467.252 384.467 L 1461.683 382.683 L 1461.603 380.748 L 1461.603 380.748 Q 1467.405 380.959 1470.779 380.977 L 1470.779 380.977 L 1470.779 380.977 Q 1472.803 380.988 1474.873 380.819 L 1474.873 380.819 L 1512.406 428.211 L 1512.593 393.528 L 1512.593 393.528 Q 1512.617 389.165 1512.543 386.016 L 1512.543 386.016 L 1512.543 386.016 Q 1512.504 384.981 1511.381 384.615 L 1511.381 384.615 L 1506.081 383.057 L 1506.002 380.987 L 1506.002 380.987 Q 1511.759 381.198 1515.313 381.217 L 1515.313 381.217 L 1515.313 381.217 Q 1518.912 381.236 1524.536 381.087 L 1524.536 381.087 L 1524.705 383.022 L 1519.028 384.747 L 1519.028 384.747 Q 1517.992 385.101 1517.94 386.27 L 1517.94 386.27 L 1517.94 386.27 Q 1517.834 389.239 1517.81 393.736 L 1517.81 393.736 L 1517.538 444.029 L 1513.758 444.368 Z " fill="rgb(255,255,255)"/><rect x="1461.381" y="400.073" width="63.31" height="4.522" transform="matrix(1,0.005,-0.005,1,2.03,-7.46)" fill="rgb(255,255,255)"/><rect x="1461.297" y="416.655" width="63.31" height="4.522" transform="matrix(1,0.005,-0.005,1,2.113,-7.459)" fill="rgb(255,255,255)"/></g><path d=" M 1479.162 339.098 L 1506.305 339.098 L 1506.305 350.701 L 1479.162 350.701 L 1479.162 339.098 Z " fill="rgb(103,4,2)"/><g style="opacity:0.2;"><g style="opacity:0.2;"><g opacity="0.2"><path d=" M 1479.162 339.098 L 1492.19 339.098 L 1492.19 350.701 L 1479.162 350.701 L 1479.162 339.098 Z " fill="rgb(0,0,0)"/></g></g></g><path d=" M 1456.787 455.01 C 1448.025 464.552 1436.626 470.212 1424.73 471.903 C 1409.312 474.099 1393.068 469.616 1380.702 458.261 C 1358.791 438.153 1357.335 404.085 1377.45 382.177 C 1389.927 368.581 1407.78 362.864 1424.765 365.284 C 1435.155 366.765 1445.222 371.288 1453.534 378.925 C 1475.447 399.035 1476.9 433.104 1456.787 455.01 L 1456.787 455.01 Z " fill="rgb(180,99,35)"/><path d=" M 1456.787 455.01 C 1448.025 464.552 1436.626 470.212 1424.73 471.903 C 1414.34 470.422 1404.273 465.898 1395.961 458.261 C 1374.049 438.153 1372.595 404.085 1392.709 382.177 C 1401.471 372.635 1412.871 366.974 1424.765 365.284 C 1435.155 366.765 1445.222 371.288 1453.534 378.925 C 1475.447 399.035 1476.9 433.104 1456.787 455.01 L 1456.787 455.01 Z " fill="rgb(200,110,38)"/><path d=" M 1455.051 425.793 C 1453.253 435.308 1447.979 443.743 1440.213 449.542 C 1435.487 453.07 1430.208 455.347 1424.78 456.435 C 1410.609 459.277 1395.389 454.02 1386.191 441.69 C 1379.741 433.048 1377.196 422.016 1379.2 411.417 C 1380.997 401.896 1386.271 393.461 1394.037 387.665 C 1402.301 381.5 1412.472 378.922 1422.678 380.401 C 1423.356 380.499 1424.036 380.615 1424.704 380.748 C 1434.073 382.616 1442.313 387.803 1448.062 395.517 C 1454.509 404.156 1457.056 415.194 1455.051 425.793 L 1455.051 425.793 Z " fill="rgb(42,82,39)"/><path d=" M 1455.051 425.793 C 1453.253 435.308 1447.979 443.743 1440.213 449.542 C 1435.487 453.07 1430.208 455.347 1424.78 456.435 C 1415.76 454.628 1407.352 449.625 1401.433 441.69 C 1394.986 433.048 1392.439 422.016 1394.445 411.417 C 1396.246 401.896 1401.516 393.461 1409.286 387.665 C 1413.938 384.199 1419.184 381.866 1424.704 380.748 C 1434.073 382.616 1442.313 387.803 1448.062 395.517 C 1454.509 404.156 1457.056 415.194 1455.051 425.793 L 1455.051 425.793 Z " fill="rgb(47,92,44)"/><g><path d=" M 1430.895 445.857 L 1396.466 402.37 L 1396.298 433.525 L 1396.298 433.525 Q 1396.274 438.074 1396.334 441.083 L 1396.334 441.083 L 1396.334 441.083 Q 1396.367 442.162 1397.291 442.398 L 1397.291 442.398 L 1401.872 443.772 L 1401.94 445.508 L 1401.94 445.508 Q 1397.121 445.367 1394.036 445.349 L 1394.036 445.349 L 1394.036 445.349 Q 1391.029 445.334 1386.055 445.422 L 1386.055 445.422 L 1385.909 443.763 L 1390.659 442.363 L 1390.659 442.363 Q 1391.663 442.059 1391.707 441.173 L 1391.707 441.173 L 1391.707 441.173 Q 1391.8 438.05 1391.825 433.5 L 1391.825 433.5 L 1391.994 402.23 L 1391.994 402.23 Q 1392.015 398.374 1391.951 395.829 L 1391.951 395.829 L 1391.951 395.829 Q 1391.919 394.826 1391.033 394.513 L 1391.033 394.513 L 1386.26 392.983 L 1386.192 391.325 L 1386.192 391.325 Q 1391.165 391.506 1394.057 391.522 L 1394.057 391.522 L 1394.057 391.522 Q 1395.792 391.531 1397.566 391.386 L 1397.566 391.386 L 1429.736 432.008 L 1429.897 402.28 L 1429.897 402.28 Q 1429.917 398.54 1429.854 395.84 L 1429.854 395.84 L 1429.854 395.84 Q 1429.821 394.954 1428.859 394.64 L 1428.859 394.64 L 1424.316 393.305 L 1424.249 391.531 L 1424.249 391.531 Q 1429.183 391.711 1432.229 391.728 L 1432.229 391.728 L 1432.229 391.728 Q 1435.313 391.744 1440.134 391.616 L 1440.134 391.616 L 1440.28 393.275 L 1435.413 394.752 L 1435.413 394.752 Q 1434.525 395.056 1434.48 396.058 L 1434.48 396.058 L 1434.48 396.058 Q 1434.389 398.603 1434.368 402.458 L 1434.368 402.458 L 1434.137 445.566 L 1430.895 445.857 Z " fill="rgb(255,255,255)"/><rect x="1386.026" y="407.885" width="54.266" height="3.876" transform="matrix(1,0.005,-0.005,1,2.067,-7.061)" fill="rgb(255,255,255)"/><rect x="1385.955" y="422.097" width="54.266" height="3.876" transform="matrix(1,0.005,-0.005,1,2.138,-7.06)" fill="rgb(255,255,255)"/></g><path d=" M 1392.326 455.01 C 1383.565 464.552 1372.164 470.212 1360.27 471.903 C 1344.852 474.099 1328.605 469.616 1316.241 458.261 C 1294.328 438.153 1292.874 404.085 1312.99 382.177 C 1325.466 368.581 1343.319 362.864 1360.304 365.284 C 1370.694 366.765 1380.761 371.288 1389.074 378.925 C 1410.985 399.035 1412.44 433.104 1392.326 455.01 Z " fill="rgb(180,99,35)"/><path d=" M 1392.326 455.01 C 1383.565 464.552 1372.164 470.212 1360.27 471.903 C 1349.88 470.422 1339.812 465.898 1331.5 458.261 C 1309.589 438.153 1308.133 404.085 1328.248 382.177 C 1337.01 372.635 1348.409 366.974 1360.304 365.284 C 1370.694 366.765 1380.761 371.288 1389.074 378.925 C 1410.985 399.035 1412.44 433.104 1392.326 455.01 Z " fill="rgb(200,110,38)"/><path d=" M 1390.59 425.793 C 1388.792 435.308 1383.518 443.743 1375.753 449.542 C 1371.026 453.07 1365.747 455.347 1360.32 456.435 C 1346.148 459.277 1330.929 454.02 1321.73 441.69 C 1315.28 433.048 1312.735 422.016 1314.74 411.417 C 1316.536 401.896 1321.81 393.461 1329.576 387.665 C 1337.84 381.5 1348.012 378.922 1358.217 380.401 C 1358.896 380.499 1359.575 380.615 1360.243 380.748 C 1369.612 382.616 1377.852 387.803 1383.601 395.517 C 1390.048 404.156 1392.596 415.194 1390.59 425.793 Z " fill="rgb(42,82,39)"/><path d=" M 1390.59 425.793 C 1388.792 435.308 1383.518 443.743 1375.753 449.542 C 1371.026 453.07 1365.747 455.347 1360.32 456.435 C 1351.299 454.628 1342.891 449.625 1336.973 441.69 C 1330.525 433.048 1327.978 422.016 1329.985 411.417 C 1331.786 401.896 1337.056 393.461 1344.825 387.665 C 1349.475 384.199 1354.724 381.866 1360.243 380.748 C 1369.61 382.616 1377.852 387.803 1383.601 395.517 C 1390.048 404.156 1392.596 415.194 1390.59 425.793 Z " fill="rgb(47,92,44)"/><g><path d=" M 1369.045 443.587 L 1337.484 403.724 L 1337.33 432.283 L 1337.33 432.283 Q 1337.308 436.453 1337.364 439.21 L 1337.364 439.21 L 1337.364 439.21 Q 1337.394 440.201 1338.241 440.417 L 1338.241 440.417 L 1342.44 441.677 L 1342.502 443.267 L 1342.502 443.267 Q 1338.084 443.137 1335.257 443.122 L 1335.257 443.122 L 1335.257 443.122 Q 1332.5 443.107 1327.94 443.189 L 1327.94 443.189 L 1327.807 441.669 L 1332.161 440.384 L 1332.161 440.384 Q 1333.082 440.106 1333.122 439.294 L 1333.122 439.294 L 1333.122 439.294 Q 1333.208 436.431 1333.231 432.26 L 1333.231 432.26 L 1333.385 403.595 L 1333.385 403.595 Q 1333.404 400.062 1333.346 397.728 L 1333.346 397.728 L 1333.346 397.728 Q 1333.315 396.81 1332.504 396.522 L 1332.504 396.522 L 1328.129 395.12 L 1328.066 393.6 L 1328.066 393.6 Q 1332.625 393.765 1335.275 393.78 L 1335.275 393.78 L 1335.275 393.78 Q 1336.866 393.789 1338.493 393.656 L 1338.493 393.656 L 1367.982 430.893 L 1368.13 403.642 L 1368.13 403.642 Q 1368.148 400.213 1368.091 397.739 L 1368.091 397.739 L 1368.091 397.739 Q 1368.06 396.926 1367.178 396.638 L 1367.178 396.638 L 1363.013 395.414 L 1362.952 393.788 L 1362.952 393.788 Q 1367.475 393.953 1370.267 393.969 L 1370.267 393.969 L 1370.267 393.969 Q 1373.094 393.983 1377.514 393.866 L 1377.514 393.866 L 1377.646 395.387 L 1373.186 396.741 L 1373.186 396.741 Q 1372.371 397.019 1372.331 397.939 L 1372.331 397.939 L 1372.331 397.939 Q 1372.247 400.271 1372.228 403.805 L 1372.228 403.805 L 1372.016 443.321 L 1369.045 443.587 Z " fill="rgb(255,255,255)"/><rect x="1327.926" y="408.784" width="49.743" height="3.553" transform="matrix(1,0.005,-0.005,1,2.07,-6.759)" fill="rgb(255,255,255)"/><rect x="1327.86" y="421.812" width="49.743" height="3.553" transform="matrix(1,0.005,-0.005,1,2.135,-6.758)" fill="rgb(255,255,255)"/></g><path d=" M 1458.745 266.956 L 1458.745 343.171 C 1458.745 346.981 1455.662 350.064 1451.852 350.064 L 1307.731 350.064 C 1303.927 350.064 1300.839 346.981 1300.839 343.171 L 1300.839 266.956 C 1300.839 263.154 1303.927 260.063 1307.731 260.063 L 1451.852 260.063 C 1455.662 260.063 1458.745 263.154 1458.745 266.956 L 1458.745 266.956 Z " fill="rgb(42,82,39)"/><path d=" M 1458.745 266.956 L 1458.745 331.77 L 1321.68 331.77 C 1317.875 331.77 1314.787 328.686 1314.787 324.878 L 1314.787 260.063 L 1451.852 260.063 C 1455.662 260.063 1458.745 263.154 1458.745 266.956 L 1458.745 266.956 Z " fill="rgb(200,110,38)"/><g><path d=" M 1341.556 317.432 L 1326.485 317.432 L 1326.485 281.796 C 1326.485 279.218 1322.033 278.802 1319.692 279.913 C 1318.87 280.307 1318.458 280.933 1318.458 281.796 L 1318.458 321.941 C 1318.458 322.764 1318.818 323.391 1319.54 323.822 C 1320.982 324.69 1320.092 324.472 1341.554 324.472 C 1344.709 324.472 1344.828 317.432 1341.556 317.432 Z " fill="rgb(255,255,255)"/><path d=" M 1371.88 282.537 C 1365.712 277.339 1347.114 276.617 1347.114 293.468 C 1347.114 311.767 1346.788 313.803 1348.227 317.277 C 1349.652 320.718 1352.203 322.997 1355.852 324.07 C 1361.029 325.591 1371.506 325.637 1374.966 317.277 C 1376.4 313.814 1376.079 311.815 1376.079 293.468 C 1376.079 289.301 1375.08 285.24 1371.88 282.537 Z  M 1368.051 310.701 C 1368.051 313.172 1367.474 314.973 1366.321 316.105 C 1363.973 318.412 1359.033 318.371 1356.811 316.105 C 1355.699 314.973 1355.142 313.172 1355.142 310.701 C 1355.142 292.327 1354.653 290.265 1356.811 288.066 C 1359.021 285.813 1363.952 285.739 1366.321 288.066 C 1368.559 290.267 1368.051 292.336 1368.051 310.701 Z " fill="rgb(255,255,255)"/><path d=" M 1391.825 281.674 C 1378.864 323.915 1379.268 321.238 1380.276 322.495 C 1381.938 324.576 1386.812 325.492 1387.564 322.867 L 1389.911 314.652 L 1404.054 314.652 C 1406.591 323.535 1406.411 323.608 1407.358 324.103 C 1408.96 324.937 1412.106 324.34 1413.689 322.466 C 1414.702 321.263 1415.187 324.198 1402.14 281.674 C 1401.02 278 1392.922 278.062 1391.825 281.674 Z  M 1391.58 308.352 L 1396.951 289.394 L 1402.325 308.352 L 1391.58 308.352 Z " fill="rgb(255,255,255)"/><path d=" M 1440.368 281.796 L 1440.368 306.625 C 1426.369 279.568 1427.309 279.326 1422.457 279.326 C 1420.933 279.326 1418.445 279.848 1418.445 281.858 L 1418.445 321.941 C 1418.445 325.29 1426.472 325.311 1426.472 321.941 L 1426.472 297.113 C 1440.82 323.939 1440.018 323.113 1441.758 323.917 C 1443.343 324.647 1445.41 324.703 1447.132 323.822 C 1447.974 323.391 1448.397 322.764 1448.397 321.941 L 1448.397 281.796 C 1448.397 278.52 1440.368 278.455 1440.368 281.796 Z " fill="rgb(255,255,255)"/></g><path d=" M 1388.983 230.191 C 1388.983 235.267 1384.869 239.382 1379.793 239.382 C 1374.717 239.382 1370.604 235.267 1370.604 230.191 C 1370.604 225.115 1374.717 221 1379.793 221 C 1384.869 221 1388.983 225.115 1388.983 230.191 Z " fill="rgb(103,4,2)"/></g></svg>