<?xml version="1.0" standalone="no"?><!-- Generator: Gravit.io --><svg xmlns="http://www.w3.org/2000/svg" xmlns:xlink="http://www.w3.org/1999/xlink" style="isolation:isolate" viewBox="579 368 400 368.749" width="400" height="368.749"><g><circle vector-effect="non-scaling-stroke" cx="749.3122622830657" cy="538.3119933814028" r="162.49977318750655" fill="rgb(64,77,11)" stroke-width="1" stroke="rgb(0,0,0)" stroke-opacity="10000" stroke-linejoin="miter" stroke-linecap="butt" stroke-miterlimit="4"/><circle vector-effect="non-scaling-stroke" cx="749.312262283059" cy="538.3119933814008" r="112.49984297596598" fill="rgb(27,136,140)"/><circle vector-effect="non-scaling-stroke" cx="749.3122622830634" cy="538.3119933813938" r="62.49991276442563" fill="rgb(172,204,39)" stroke-width="1" stroke="rgb(47,45,47)" stroke-opacity="10000" stroke-linejoin="miter" stroke-linecap="butt" stroke-miterlimit="4"/><circle vector-effect="non-scaling-stroke" cx="749.3122622830713" cy="538.3123840058573" r="35.15620092998938" fill="rgb(140,57,48)" stroke-width="1" stroke="rgb(47,45,47)" stroke-opacity="10000" stroke-linejoin="miter" stroke-linecap="butt" stroke-miterlimit="4"/><path d=" M 894.567 505.557 L 861.812 538.312 L 894.567 571.068 L 971.187 571.068 L 938.432 538.312 L 971.187 505.557 L 894.567 505.557 Z " fill="rgb(165,153,176)"/><g><path d=" M 823.443 464.392 C 824.968 465.919 826.968 466.681 828.967 466.681 C 830.967 466.681 832.967 465.919 834.491 464.392 C 837.541 461.341 837.541 456.395 834.491 453.344 L 834.385 453.237 C 831.335 450.187 826.388 450.187 823.336 453.237 C 820.285 456.289 820.285 461.236 823.336 464.287 L 823.443 464.392 Z " fill="rgb(0,0,0)"/><path d=" M 949.481 538.312 L 976.711 511.081 C 978.945 508.847 979.613 505.487 978.404 502.568 C 977.195 499.648 974.347 497.745 971.187 497.745 L 914.74 497.745 C 907.363 467.541 891.877 440.021 869.74 417.883 C 837.573 385.716 794.804 368 749.312 368 C 703.82 368 661.051 385.716 628.884 417.883 C 596.716 450.051 579 492.82 579 538.312 C 579 583.804 596.716 626.573 628.884 658.741 C 638.449 668.307 648.957 676.583 660.191 683.507 L 636.655 725.088 C 635.285 727.507 635.304 730.471 636.704 732.871 C 638.104 735.273 640.673 736.749 643.453 736.749 L 683.688 736.749 C 686.503 736.749 689.1 735.235 690.487 732.785 L 707.129 703.383 C 720.749 706.839 734.893 708.624 749.312 708.624 C 763.731 708.624 777.875 706.839 791.496 703.383 L 808.139 732.785 C 809.525 735.235 812.123 736.749 814.937 736.749 L 855.172 736.749 C 857.951 736.749 860.521 735.273 861.921 732.872 C 863.321 730.471 863.34 727.507 861.971 725.089 L 838.435 683.507 C 849.668 676.583 860.176 668.307 869.741 658.741 C 891.869 636.613 907.363 609.081 914.74 578.88 L 971.187 578.88 C 974.347 578.88 977.196 576.976 978.405 574.057 C 979.615 571.139 978.945 567.777 976.712 565.543 L 949.481 538.312 Z  M 935.196 530.5 L 880.673 530.5 L 897.803 513.369 L 952.327 513.369 L 935.196 530.5 Z  M 679.132 721.124 L 656.852 721.124 L 673.857 691.083 C 679.693 693.972 685.684 696.528 691.813 698.72 L 679.132 721.124 Z  M 841.772 721.124 L 819.493 721.124 L 806.811 698.72 C 812.94 696.528 818.932 693.972 824.768 691.083 L 841.772 721.124 Z  M 858.693 647.692 C 848.372 658.013 836.845 666.687 824.439 673.6 C 824.285 673.675 824.131 673.745 823.98 673.829 C 823.885 673.884 823.799 673.945 823.708 674.003 C 814.189 679.239 804.16 683.443 793.753 686.547 C 793.344 686.628 792.939 686.748 792.54 686.899 C 778.669 690.912 764.152 693 749.312 693 C 734.472 693 719.955 690.912 706.085 686.9 C 705.685 686.749 705.28 686.629 704.871 686.548 C 694.464 683.443 684.435 679.239 674.917 674.003 C 674.825 673.947 674.74 673.884 674.645 673.831 C 674.495 673.745 674.34 673.675 674.188 673.601 C 661.78 666.687 650.253 658.013 639.933 647.692 C 610.716 618.476 594.625 579.631 594.625 538.312 C 594.625 496.993 610.716 458.148 639.932 428.932 C 669.148 399.715 707.993 383.625 749.312 383.625 C 790.631 383.625 829.476 399.715 858.693 428.932 C 877.891 448.129 891.583 471.779 898.613 497.745 L 894.568 497.745 C 892.496 497.745 890.508 498.568 889.044 500.033 L 868.308 520.768 C 866.216 506.564 861.624 492.753 854.689 480.193 C 852.604 476.416 847.851 475.045 844.073 477.131 C 840.296 479.215 838.925 483.968 841.011 487.745 C 848.427 501.179 852.571 515.783 853.631 530.5 L 819.184 530.5 C 817.444 514.676 810.451 500.015 799.031 488.595 C 785.751 475.313 768.093 468 749.312 468 C 730.531 468 712.875 475.313 699.595 488.593 C 686.313 501.875 679 519.531 679 538.312 C 679 557.093 686.313 574.751 699.593 588.029 C 712.875 601.311 730.531 608.624 749.312 608.624 C 768.093 608.624 785.751 601.311 799.031 588.031 C 810.451 576.611 817.444 561.951 819.183 546.124 L 853.596 546.124 C 851.732 570.547 841.427 594.247 823.337 612.337 C 803.564 632.111 777.275 643 749.312 643 C 721.349 643 695.06 632.111 675.288 612.337 C 655.513 592.564 644.625 566.275 644.625 538.312 C 644.625 510.349 655.513 484.06 675.288 464.287 C 708.085 431.489 759.32 424.221 799.88 446.615 C 803.656 448.699 808.409 447.328 810.495 443.551 C 812.58 439.773 811.209 435.021 807.432 432.936 C 785.053 420.58 758.703 415.656 733.236 419.073 C 706.92 422.603 683.06 434.417 664.239 453.239 C 641.515 475.963 629 506.176 629 538.312 C 629 570.449 641.515 600.661 664.239 623.385 C 686.963 646.109 717.176 658.624 749.312 658.624 C 781.449 658.624 811.663 646.109 834.385 623.387 C 852.851 604.923 864.564 581.609 868.336 555.885 L 889.043 576.592 C 890.508 578.056 892.495 578.88 894.567 578.88 L 898.611 578.88 C 891.58 604.845 877.883 628.503 858.693 647.692 Z  M 774.828 523.581 C 772.671 519.843 767.893 518.564 764.156 520.721 L 745.407 531.547 C 742.989 532.941 741.5 535.52 741.5 538.312 C 741.5 541.104 742.989 543.683 745.407 545.077 L 764.156 555.903 C 765.387 556.613 766.729 556.951 768.055 556.951 C 770.755 556.951 773.381 555.549 774.828 553.043 C 776.096 550.848 776.168 548.296 775.261 546.124 L 803.443 546.124 C 801.787 557.768 796.445 568.519 787.981 576.981 L 787.981 576.981 C 777.653 587.311 763.92 593 749.312 593 C 734.704 593 720.972 587.311 710.643 576.981 C 700.313 566.652 694.625 552.92 694.625 538.312 C 694.625 523.704 700.313 509.972 710.643 499.641 C 720.972 489.313 734.704 483.624 749.312 483.624 C 763.92 483.624 777.653 489.313 787.983 499.643 C 796.445 508.105 801.788 518.856 803.444 530.5 L 775.263 530.5 C 776.168 528.328 776.096 525.776 774.828 523.581 Z  M 897.803 563.255 L 880.673 546.124 L 935.196 546.124 L 952.327 563.255 L 897.803 563.255 Z " fill="rgb(18,44,77)"/></g></g></svg>