<?xml version="1.0" standalone="no"?><!-- Generator: Gravit.io --><svg xmlns="http://www.w3.org/2000/svg" xmlns:xlink="http://www.w3.org/1999/xlink" style="isolation:isolate" viewBox="1070.6 31 93.4 93.375" width="93.4" height="93.375"><g><defs><linearGradient id="_lgradient_12" x1="0.4733333333333334" y1="0.1877729257641949" x2="0.47333333333333344" y2="0.7379912663755483"><stop offset="0%" style="stop-color:#1F4980"/><stop offset="100%" style="stop-color:#0F2440"/></linearGradient></defs><path d="M 1073.05 31 L 1161.55 31 C 1162.902 31 1164 32.098 1164 33.45 L 1164 121.924 C 1164 123.277 1162.902 124.375 1161.55 124.375 L 1073.05 124.375 C 1071.698 124.375 1070.6 123.277 1070.6 121.924 L 1070.6 33.45 C 1070.6 32.098 1071.698 31 1073.05 31 Z" style="stroke:none;fill:url(#_lgradient_12);stroke-miterlimit:10;"/><path d="M 1071.361 31 L 1078.839 31 C 1079.259 31 1079.6 31.341 1079.6 31.761 L 1079.6 123.614 C 1079.6 124.034 1079.259 124.375 1078.839 124.375 L 1071.361 124.375 C 1070.941 124.375 1070.6 124.034 1070.6 123.614 L 1070.6 31.761 C 1070.6 31.341 1070.941 31 1071.361 31 Z" style="stroke:none;fill:#FFFFFF;stroke-miterlimit:10;"/><g><g><path d=" M 1153.132 99.128 L 1140.097 86.094 C 1140.028 86.024 1139.946 85.976 1139.874 85.911 C 1142.439 82.021 1143.936 77.364 1143.936 72.355 C 1143.936 58.732 1132.891 47.687 1119.268 47.687 C 1105.644 47.687 1094.6 58.732 1094.6 72.355 C 1094.6 85.979 1105.644 97.023 1119.268 97.023 C 1124.276 97.023 1128.933 95.526 1132.824 92.961 C 1132.888 93.033 1132.936 93.115 1133.006 93.184 L 1146.041 106.219 C 1147.999 108.177 1151.173 108.177 1153.132 106.219 C 1155.089 104.261 1155.089 101.086 1153.132 99.128 Z  M 1119.268 88.471 C 1110.367 88.471 1103.151 81.256 1103.151 72.355 C 1103.151 63.454 1110.367 56.239 1119.268 56.239 C 1128.168 56.239 1135.384 63.454 1135.384 72.355 C 1135.384 81.256 1128.168 88.471 1119.268 88.471 Z " fill-rule="evenodd" fill="rgb(255,255,255)"/></g></g></g></svg>