<?xml version="1.0"?>
<svg xmlns="http://www.w3.org/2000/svg" xmlns:xlink="http://www.w3.org/1999/xlink" version="1.1" id="Capa_1" x="0px" y="0px" viewBox="0 0 59.998 59.998" style="enable-background:new 0 0 59.998 59.998;" xml:space="preserve" width="512px" height="512px" class=""><g><path style="fill:#1F4980" d="M42.594,58.999H17.404c-1.881,0-3.405-1.525-3.405-3.405V4.404c0-1.881,1.525-3.405,3.405-3.405  h25.189c1.881,0,3.405,1.525,3.405,3.405v51.189C45.999,57.474,44.474,58.999,42.594,58.999z" data-original="#E7ECED" class="" data-old_color="#E7ECED"/><circle style="fill:#1B888C" cx="29.999" cy="53.999" r="3" data-original="#FFFFFF" class="" data-old_color="#FFFFFF"/><path style="fill:#1B888C" d="M29.999,4.999h-4c-0.553,0-1-0.447-1-1s0.447-1,1-1h4c0.553,0,1,0.447,1,1S30.552,4.999,29.999,4.999  z" data-original="#424A60" class="" data-old_color="#424A60"/><path style="fill:#1B888C" d="M33.999,4.999h-1c-0.553,0-1-0.447-1-1s0.447-1,1-1h1c0.553,0,1,0.447,1,1S34.552,4.999,33.999,4.999  z" data-original="#424A60" class="" data-old_color="#424A60"/><path style="fill:#261B8C" d="M55.904,21.241c-0.256,0-0.512-0.098-0.707-0.293c-0.391-0.391-0.391-1.023,0-1.414  c3.736-3.736,3.736-9.815,0-13.552c-0.391-0.391-0.391-1.023,0-1.414s1.023-0.391,1.414,0c4.516,4.516,4.516,11.864,0,16.38  C56.416,21.144,56.16,21.241,55.904,21.241z" data-original="#7383BF" class="active-path" data-old_color="#7383BF"/><path style="fill:#261B8C" d="M51.693,19.241c-0.256,0-0.512-0.098-0.707-0.293c-0.391-0.391-0.391-1.023,0-1.414  c1.237-1.236,1.918-2.884,1.918-4.638s-0.681-3.401-1.918-4.639c-0.391-0.391-0.391-1.023,0-1.414s1.023-0.391,1.414,0  c1.615,1.614,2.504,3.765,2.504,6.053s-0.889,4.438-2.504,6.052C52.205,19.144,51.949,19.241,51.693,19.241z" data-original="#7383BF" class="active-path" data-old_color="#7383BF"/><path style="fill:#261B8C" d="M4.094,21.241c-0.256,0-0.512-0.098-0.707-0.293c-4.516-4.516-4.516-11.864,0-16.38  c0.391-0.391,1.023-0.391,1.414,0s0.391,1.023,0,1.414c-3.736,3.736-3.736,9.815,0,13.552c0.391,0.391,0.391,1.023,0,1.414  C4.605,21.144,4.35,21.241,4.094,21.241z" data-original="#7383BF" class="active-path" data-old_color="#7383BF"/><path style="fill:#261B8C" d="M8.305,18.966c-0.256,0-0.512-0.098-0.707-0.293c-1.615-1.614-2.504-3.765-2.504-6.053  s0.889-4.438,2.504-6.052c0.391-0.391,1.023-0.391,1.414,0s0.391,1.023,0,1.414c-1.237,1.236-1.918,2.884-1.918,4.638  s0.681,3.401,1.918,4.639c0.391,0.391,0.391,1.023,0,1.414C8.816,18.868,8.561,18.966,8.305,18.966z" data-original="#7383BF" class="active-path" data-old_color="#7383BF"/><rect x="13.999" y="6.999" style="fill:#1B888C" width="32" height="42" data-original="#424A60" class="" data-old_color="#424A60"/></g> </svg>
