<?xml version="1.0" standalone="no"?><!-- Generator: Gravit.io --><svg xmlns="http://www.w3.org/2000/svg" xmlns:xlink="http://www.w3.org/1999/xlink" style="isolation:isolate" viewBox="17.565 1581.897 126 126" width="126" height="126"><g><circle vector-effect="non-scaling-stroke" cx="80.56500000000007" cy="1644.8972138847942" r="60.499999999999986" fill="none" stroke-width="5" stroke="rgb(255,255,255)" stroke-linejoin="miter" stroke-linecap="square" stroke-miterlimit="3"/><path d=" M 125.327 1638.541 L 125.327 1680.256 L 113.335 1680.256 L 113.335 1638.363 L 113.335 1638.363 Q 113.335 1635.2 109.866 1635.2 L 109.866 1635.2 L 109.866 1635.2 Q 106.397 1635.2 106.397 1638.363 L 106.397 1638.363 L 106.397 1680.256 L 94.404 1680.256 L 94.404 1638.541 L 94.404 1638.541 Q 94.404 1633.487 99.887 1630.831 L 99.887 1630.831 L 99.887 1630.831 Q 104.255 1628.776 109.908 1628.776 L 109.908 1628.776 L 109.908 1628.776 Q 115.476 1628.776 119.845 1630.831 L 119.845 1630.831 L 119.845 1630.831 Q 125.327 1633.487 125.327 1638.541 L 125.327 1638.541 Z  M 88.801 1617.039 L 88.801 1690.073 L 71.293 1690.073 L 71.293 1617.039 L 88.801 1617.039 Z  M 54.982 1630.232 L 66.545 1630.232 L 56.78 1680.256 L 39.649 1680.256 L 30.312 1630.232 L 42.304 1630.232 L 48.557 1671.005 L 54.982 1630.232 Z " fill="rgb(255,255,255)"/><path d=" M 127.563 1607.712 L 129.036 1607.712 L 133.945 1617.091 L 132.472 1617.091 L 28.859 1617.091 L 27.386 1617.091 L 32.768 1607.712 L 33.768 1607.712 L 127.563 1607.712 Z " fill="rgb(255,255,255)"/></g></svg>