<?xml version="1.0" standalone="no"?><!-- Generator: Gravit.io --><svg xmlns="http://www.w3.org/2000/svg" xmlns:xlink="http://www.w3.org/1999/xlink" style="isolation:isolate" viewBox="35 31 300 93.375" width="300" height="93.375"><path d=" M 245.818 103.062 L 245.818 111.823 L 212.018 111.823 L 212.018 47.977 L 245.818 47.977 L 245.818 56.629 L 227.349 56.629 L 227.349 72.727 L 245.419 72.727 L 245.419 81.159 L 227.349 81.159 L 227.349 103.062 L 245.818 103.062 Z  M 290.428 61.557 L 290.428 61.557 L 290.428 71.522 L 275.097 71.522 L 275.097 57.395 L 275.097 57.395 Q 275.097 53.453 270.716 53.453 L 270.716 53.453 L 270.716 53.453 Q 266.336 53.453 266.336 57.395 L 266.336 57.395 L 266.336 101.31 L 266.336 101.31 Q 266.336 105.362 270.716 105.362 L 270.716 105.362 L 270.716 105.362 Q 275.097 105.362 275.097 101.31 L 275.097 101.31 L 275.097 86.964 L 290.428 86.964 L 290.428 100.981 L 290.428 100.981 Q 294.21 113.575 274.498 113.575 L 274.498 113.575 L 274.498 113.575 Q 251.004 113.575 251.004 100.981 L 251.004 100.981 L 251.004 58.162 L 251.004 58.162 Q 253.525 46.006 273.237 46.006 L 273.237 46.006 L 273.237 46.006 Q 290.428 46.006 290.428 61.557 Z  M 335 47.868 L 335 111.823 L 319.668 111.823 L 319.668 81.159 L 311.236 81.159 L 311.236 111.823 L 295.904 111.823 L 295.904 47.868 L 311.236 47.868 L 311.236 72.289 L 319.668 72.289 L 319.668 47.868 L 335 47.868 Z  M 214.655 31 L 214.655 42.992 L 195.519 42.992 L 195.519 124.375 L 173.134 124.375 L 173.134 42.992 L 153.839 42.992 L 153.839 31 L 214.655 31 Z  M 156.475 58.49 L 156.475 111.823 L 141.144 111.823 L 141.144 58.264 L 141.144 58.264 Q 141.144 54.219 136.709 54.219 L 136.709 54.219 L 136.709 54.219 Q 132.273 54.219 132.273 58.264 L 132.273 58.264 L 132.273 111.823 L 116.941 111.823 L 116.941 58.49 L 116.941 58.49 Q 116.941 52.029 123.95 48.634 L 123.95 48.634 L 123.95 48.634 Q 129.535 46.006 136.763 46.006 L 136.763 46.006 L 136.763 46.006 Q 143.882 46.006 149.467 48.634 L 149.467 48.634 L 149.467 48.634 Q 156.475 52.029 156.475 58.49 L 156.475 58.49 Z  M 109.777 31 L 109.777 124.375 L 87.393 124.375 L 87.393 31 L 109.777 31 Z  M 66.539 47.868 L 81.324 47.868 L 68.839 111.823 L 46.937 111.823 L 35 47.868 L 50.332 47.868 L 58.326 99.996 L 66.539 47.868 Z " fill="rgb(255,255,255)"/></svg>