<?xml version="1.0" standalone="no"?><!-- Generator: Gravit.io --><svg xmlns="http://www.w3.org/2000/svg" xmlns:xlink="http://www.w3.org/1999/xlink" style="isolation:isolate" viewBox="537 768 997.25 352" width="997.25" height="352"><g><g><g><circle vector-effect="non-scaling-stroke" cx="713.0000000000002" cy="944" r="175" fill="none" stroke-width="2" stroke="rgb(255,255,255)" stroke-linejoin="miter" stroke-linecap="square" stroke-miterlimit="3"/><path d=" M 842.476 925.613 L 842.476 1046.276 L 807.789 1046.276 L 807.789 925.1 L 807.789 925.1 Q 807.789 915.95 797.754 915.95 L 797.754 915.95 L 797.754 915.95 Q 787.719 915.95 787.719 925.1 L 787.719 925.1 L 787.719 1046.276 L 753.031 1046.276 L 753.031 925.613 L 753.031 925.613 Q 753.031 910.995 768.889 903.314 L 768.889 903.314 L 768.889 903.314 Q 781.525 897.368 797.878 897.368 L 797.878 897.368 L 797.878 897.368 Q 813.983 897.368 826.619 903.314 L 826.619 903.314 L 826.619 903.314 Q 842.476 910.995 842.476 925.613 L 842.476 925.613 Z  M 736.823 863.417 L 736.823 1074.675 L 686.179 1074.675 L 686.179 863.417 L 736.823 863.417 Z  M 638.998 901.58 L 672.447 901.58 L 644.202 1046.276 L 594.648 1046.276 L 567.641 901.58 L 602.329 901.58 L 620.416 1019.518 L 638.998 901.58 Z " fill="rgb(255,255,255)"/><path d=" M 848.946 836.439 L 853.206 836.439 L 867.405 863.57 L 863.145 863.57 L 563.437 863.57 L 559.177 863.57 L 574.744 836.439 L 577.636 836.439 L 848.946 836.439 Z " fill="rgb(255,255,255)"/></g></g><path d=" M 1000.66 879.67 L 1031.79 879.67 L 1005.503 1014.336 L 959.385 1014.336 L 934.25 879.67 L 966.533 879.67 L 983.366 989.432 L 1000.66 879.67 Z  M 1073.989 879.67 L 1073.989 1014.336 L 1041.706 1014.336 L 1041.706 879.67 L 1073.989 879.67 Z  M 1169.454 902.037 L 1169.454 1014.336 L 1137.171 1014.336 L 1137.171 901.56 L 1137.171 901.56 Q 1137.171 893.044 1127.832 893.044 L 1127.832 893.044 L 1127.832 893.044 Q 1118.493 893.044 1118.493 901.56 L 1118.493 901.56 L 1118.493 1014.336 L 1086.21 1014.336 L 1086.21 902.037 L 1086.21 902.037 Q 1086.21 888.433 1100.968 881.284 L 1100.968 881.284 L 1100.968 881.284 Q 1112.728 875.75 1127.947 875.75 L 1127.947 875.75 L 1127.947 875.75 Q 1142.936 875.75 1154.696 881.284 L 1154.696 881.284 L 1154.696 881.284 Q 1169.454 888.433 1169.454 902.037 L 1169.454 902.037 Z  M 1266.229 879.67 L 1266.229 896.964 L 1238.631 896.964 L 1238.631 1014.336 L 1206.348 1014.336 L 1206.348 896.964 L 1178.52 896.964 L 1178.52 879.67 L 1266.229 879.67 Z  M 1346.466 995.888 L 1346.466 1014.336 L 1275.295 1014.336 L 1275.295 879.901 L 1346.466 879.901 L 1346.466 898.117 L 1307.578 898.117 L 1307.578 932.014 L 1345.626 932.014 L 1345.626 949.77 L 1307.578 949.77 L 1307.578 995.888 L 1346.466 995.888 Z  M 1440.399 908.494 L 1440.399 908.494 L 1440.399 929.478 L 1408.116 929.478 L 1408.116 899.732 L 1408.116 899.732 Q 1408.116 891.43 1398.893 891.43 L 1398.893 891.43 L 1398.893 891.43 Q 1389.669 891.43 1389.669 899.732 L 1389.669 899.732 L 1389.669 992.199 L 1389.669 992.199 Q 1389.669 1000.731 1398.893 1000.731 L 1398.893 1000.731 L 1398.893 1000.731 Q 1408.116 1000.731 1408.116 992.199 L 1408.116 992.199 L 1408.116 961.991 L 1440.399 961.991 L 1440.399 991.507 L 1440.399 991.507 Q 1440.399 1018.025 1398.893 1018.025 L 1398.893 1018.025 L 1398.893 1018.025 Q 1357.386 1018.025 1357.386 991.507 L 1357.386 991.507 L 1357.386 901.346 L 1357.386 901.346 Q 1357.386 875.75 1398.893 875.75 L 1398.893 875.75 L 1398.893 875.75 Q 1440.399 875.75 1440.399 908.494 Z  M 1534.25 879.67 L 1534.25 1014.336 L 1501.967 1014.336 L 1501.967 949.77 L 1484.212 949.77 L 1484.212 1014.336 L 1451.929 1014.336 L 1451.929 879.67 L 1484.212 879.67 L 1484.212 931.092 L 1501.967 931.092 L 1501.967 879.67 L 1534.25 879.67 Z " fill="rgb(255,255,255)"/></g></svg>