<?xml version="1.0" standalone="no"?><!-- Generator: Gravit.io --><svg xmlns="http://www.w3.org/2000/svg" xmlns:xlink="http://www.w3.org/1999/xlink" style="isolation:isolate" viewBox="1015 388.403 423.001 287.194" width="423.001" height="287.194"><g><path d=" M 1029.767 554.221 C 1029.767 554.221 1231.581 845.295 1431.189 525.935 L 1431.189 529.019 C 1231.581 209.659 1022.469 534.164 1022.469 534.164 L 1029.767 554.221 Z " fill="rgb(31,73,128)"/><path d=" M 1389.614 547.372 L 1389.477 547.52 C 1387.825 549.337 1371.284 567.05 1343.793 584.164 C 1316.287 601.297 1277.963 617.775 1232.501 617.767 C 1185.577 617.724 1130.67 600.416 1070.804 546.834 C 1068.769 545.009 1065.857 544.577 1063.378 545.735 L 1050.416 551.781 C 1048.245 552.794 1045.91 553.289 1043.582 553.289 C 1038.838 553.289 1034.285 551.227 1031.478 547.711 C 1029.521 545.263 1028.632 542.534 1028.625 539.801 C 1028.636 536.429 1029.985 533.073 1032.885 530.371 C 1047.937 516.396 1075.618 493.186 1111.588 473.577 C 1147.569 453.949 1191.756 437.978 1239.931 437.99 C 1297.801 438.06 1361.784 460.701 1426.215 529.319 C 1428.788 532.063 1433.099 532.204 1435.848 529.627 C 1438.592 527.054 1438.732 522.742 1436.159 519.998 C 1369.795 449.088 1301.493 424.291 1239.935 424.361 C 1188.712 424.373 1142.404 441.26 1105.066 461.613 C 1067.72 481.986 1039.255 505.875 1023.615 520.384 C 1017.998 525.58 1014.988 532.667 1015 539.805 C 1014.992 545.59 1016.973 551.422 1020.855 556.244 C 1026.496 563.246 1034.983 566.91 1043.578 566.914 C 1047.828 566.914 1052.139 566.017 1056.178 564.131 L 1069.139 558.08 L 1066.259 551.909 L 1061.709 556.981 C 1123.486 612.407 1182.112 631.434 1232.501 631.392 C 1282.89 631.38 1324.657 612.606 1353.761 593.984 C 1382.885 575.334 1399.488 556.759 1399.777 556.447 C 1402.279 553.64 1402.038 549.333 1399.231 546.826 C 1396.424 544.319 1392.117 544.565 1389.614 547.372 L 1389.614 547.372 Z " fill="rgb(18,44,77)"/><path d=" M 1069.904 531.603 C 1069.904 531.603 1230.474 699.92 1383.743 531.603 L 1383.743 533.229 C 1230.478 364.912 1069.904 533.229 1069.904 533.229" fill="rgb(255,255,255)"/><path d=" M 1074.663 532.936 L 1074.819 532.788 C 1076.683 531.003 1094.837 513.971 1123.408 497.513 C 1151.986 481.035 1190.891 465.215 1234.259 465.235 C 1279.027 465.305 1328.808 481.748 1378.874 532.827 C 1381.505 535.517 1385.817 535.564 1388.507 532.936 C 1391.197 530.301 1391.243 525.99 1388.612 523.3 C 1336.496 469.917 1282.477 451.54 1234.259 451.61 C 1186.034 451.63 1143.87 469.589 1113.744 487.377 C 1083.61 505.192 1065.417 522.933 1065.144 523.187 C 1062.454 525.814 1062.399 530.126 1065.027 532.819 C 1067.654 535.513 1071.97 535.568 1074.663 532.936 Z " fill="rgb(18,44,77)"/><path d=" M 1158.57 475.07 C 1152.138 486.75 1148.458 500.16 1148.458 514.435 C 1148.458 559.589 1185.063 596.19 1230.209 596.19 C 1275.359 596.19 1311.964 559.589 1311.964 514.435 C 1311.964 499.337 1307.8 485.241 1300.659 473.105 C 1247.736 449.096 1197.604 458.05 1158.57 475.07 Z " fill="rgb(27,136,140)"/><path d=" M 1158.57 475.07 L 1152.033 471.468 C 1145.016 484.208 1140.993 498.873 1140.997 514.435 C 1141.001 563.713 1180.938 603.647 1230.213 603.651 C 1279.483 603.647 1319.421 563.713 1319.429 514.435 C 1319.433 497.957 1314.872 482.535 1307.095 469.324 C 1306.319 468.01 1305.134 466.942 1303.746 466.311 C 1279.686 455.392 1256.02 450.967 1233.717 450.975 C 1204.854 450.979 1178.311 458.323 1155.588 468.229 C 1154.064 468.895 1152.836 470.014 1152.037 471.468 L 1158.57 475.07 L 1161.552 481.912 C 1182.86 472.614 1207.408 465.894 1233.717 465.898 C 1254.063 465.905 1275.484 469.889 1297.575 479.904 L 1300.659 473.109 L 1294.227 476.895 C 1300.729 487.95 1304.499 500.717 1304.503 514.439 C 1304.499 534.975 1296.195 553.5 1282.742 566.968 C 1269.274 580.425 1250.749 588.725 1230.213 588.729 C 1209.673 588.725 1191.148 580.425 1177.683 566.968 C 1164.227 553.504 1155.927 534.975 1155.923 514.439 C 1155.923 501.446 1159.26 489.295 1165.108 478.672 L 1158.57 475.07 L 1161.552 481.912 L 1158.57 475.07 Z " fill="rgb(18,44,77)"/><path d=" M 1281.308 514.435 C 1281.308 542.655 1258.433 565.53 1230.213 565.53 C 1201.993 565.53 1179.114 542.655 1179.114 514.435 C 1179.114 486.215 1201.993 463.34 1230.213 463.34 C 1258.433 463.34 1281.308 486.215 1281.308 514.435 Z " fill="rgb(64,77,11)"/><path d=" M 1206.367 500.811 C 1206.367 510.217 1198.742 517.842 1189.335 517.842 C 1179.929 517.842 1172.304 510.217 1172.304 500.811 C 1172.304 491.404 1179.929 483.779 1189.335 483.779 C 1198.742 483.779 1206.367 491.404 1206.367 500.811 Z " fill="rgb(255,255,255)"/></g></svg>