<?xml version="1.0" standalone="no"?><!-- Generator: Gravit.io --><svg xmlns="http://www.w3.org/2000/svg" xmlns:xlink="http://www.w3.org/1999/xlink" style="isolation:isolate" viewBox="52.5 1190.422 153 153" width="153" height="153"><linearGradient id="_lgradient_9" x1="0.47333333333333333" y1="0.1877729257641949" x2="0.4757640582537803" y2="0.7240323360592001" gradientTransform="matrix(150,0,0,150,54,1191.922)" gradientUnits="userSpaceOnUse"><stop offset="0%" stop-opacity="1" style="stop-color:rgb(61,145,255)"/><stop offset="98.26086956521739%" stop-opacity="1" style="stop-color:rgb(53,126,221)"/></linearGradient><circle vector-effect="non-scaling-stroke" cx="129.0000000000001" cy="1266.921875" r="75" fill="url(#_lgradient_9)" stroke-width="3" stroke="rgb(15,36,64)" stroke-linejoin="miter" stroke-linecap="square" stroke-miterlimit="3"/><clipPath id="_clipPath_d49D2vOLgGNqp4jmsXecl9bsAHro0ydi"><circle vector-effect="non-scaling-stroke" cx="129.0000000000001" cy="1266.921875" r="75" fill="url(#_lgradient_9)" stroke-width="3" stroke="rgb(15,36,64)" stroke-linejoin="miter" stroke-linecap="square" stroke-miterlimit="3"/></clipPath><g clip-path="url(#_clipPath_d49D2vOLgGNqp4jmsXecl9bsAHro0ydi)"><g><path d=" M 160.231 1284.627 C 160.371 1284.391 160.511 1284.202 160.65 1284.05 C 165.969 1275.755 168.871 1265.606 168.871 1255.128 C 168.871 1228.689 150.643 1207.179 128.239 1207.179 C 105.835 1207.179 87.607 1228.689 87.607 1255.128 C 87.607 1265.724 90.576 1275.981 96.01 1284.325 C 96.067 1284.406 96.126 1284.493 96.183 1284.589 C 96.359 1284.855 96.538 1285.119 96.718 1285.381 C 98.751 1288.018 101.356 1287.409 102.108 1287.159 C 102.178 1287.133 102.25 1287.107 102.321 1287.08 L 102.322 1287.08 C 105.006 1286.086 107.986 1285.25 111.206 1284.592 L 116.834 1283.442 L 112.589 1279.571 C 109.136 1276.424 106.888 1272.155 106.262 1267.551 L 105.945 1265.225 L 103.605 1265.035 C 99.75 1264.721 96.731 1261.445 96.731 1257.576 C 96.731 1253.72 99.621 1250.517 103.452 1250.126 L 106.032 1249.863 L 106.067 1247.811 C 108.667 1247.045 120.13 1243.34 128.183 1235.454 C 130.081 1237.669 137.196 1244.991 150.414 1247.852 L 150.448 1249.863 L 153.029 1250.127 C 156.858 1250.518 159.747 1253.72 159.747 1257.576 C 159.747 1261.445 156.728 1264.721 152.874 1265.035 L 150.534 1265.225 L 150.217 1267.552 C 149.59 1272.154 147.344 1276.423 143.891 1279.571 L 139.646 1283.441 L 145.275 1284.591 C 148.637 1285.278 151.74 1286.161 154.518 1287.216 C 155.536 1287.503 158.287 1287.9 160.231 1284.627 Z " fill="rgb(0,0,0)"/><path d=" M 139.172 1293.79 L 139.172 1283.175 L 135.513 1284.13 C 133.874 1284.558 132.181 1284.775 130.481 1284.775 L 125.999 1284.775 C 124.288 1284.775 122.584 1284.555 120.934 1284.121 L 117.27 1283.157 L 117.27 1293.783 L 106.372 1296.391 L 108.742 1304.85 L 109.725 1305.447 C 111.195 1306.343 115.207 1308.556 120.677 1309.756 C 123.25 1310.32 125.844 1310.606 128.386 1310.606 L 128.387 1310.606 C 134.69 1310.606 140.858 1308.866 146.719 1305.436 L 147.738 1304.84 L 150.065 1296.535 L 139.172 1293.79 Z " fill="rgb(126,86,89)"/><path d=" M 124.183 1309.755 C 118.712 1308.556 114.701 1306.343 113.23 1305.447 L 113.23 1305.447 L 110.899 1296.881 L 119.83 1294.729 L 119.83 1284.505 L 117.27 1283.156 L 117.27 1293.783 L 106.372 1296.39 L 108.742 1304.85 L 109.725 1305.447 C 111.195 1306.343 115.207 1308.556 120.677 1309.755 C 123.25 1310.319 125.844 1310.605 128.386 1310.606 L 128.387 1310.606 C 128.961 1310.606 129.534 1310.586 130.105 1310.557 C 128.14 1310.455 126.156 1310.188 124.183 1309.755 Z " fill="rgb(113,77,80)"/><path d=" M 142.726 1306.682 C 138.084 1308.786 133.227 1309.852 128.289 1309.852 C 125.733 1309.852 123.163 1309.566 120.65 1309.001 C 118.289 1308.471 115.967 1307.703 113.749 1306.718 L 109.481 1304.823 L 120.281 1343.006 L 136.198 1343.006 L 147.022 1304.736 L 142.726 1306.682 Z " fill="rgb(245,245,247)"/><path d=" M 109.48 1304.822 L 120.281 1343.006 L 123.786 1343.006 L 113.489 1306.602 L 109.48 1304.822 Z " fill="rgb(210,210,215)"/><g><path d=" M 165.405 1302.429 C 164.104 1301.686 162.634 1300.984 161.097 1300.332 L 160.402 1300.043 C 155.672 1298.106 150.475 1296.651 147.743 1295.943 L 134.561 1343.006 L 171.768 1343.006 C 175.914 1343.006 176.651 1339.744 176.765 1338.171 L 176.765 1324.144 C 176.765 1312.676 170.617 1305.75 165.405 1302.429 Z " fill="rgb(204,105,41)"/><path d=" M 108.299 1295.943 C 105.567 1296.651 100.37 1298.106 95.64 1300.043 L 94.945 1300.332 C 93.408 1300.984 91.938 1301.686 90.637 1302.429 C 85.425 1305.75 79.277 1312.676 79.277 1324.144 L 79.277 1338.171 C 79.392 1339.744 80.128 1343.006 84.274 1343.006 L 121.481 1343.006 L 108.299 1295.943 Z " fill="rgb(204,105,41)"/></g><g><g opacity="0.2"><path d=" M 84.097 1338.171 L 84.097 1330.754 L 84.097 1324.144 C 84.097 1312.675 90.246 1305.75 95.458 1302.429 C 96.758 1301.686 98.229 1300.984 99.765 1300.332 L 100.461 1300.042 C 103.227 1298.909 106.15 1297.943 108.65 1297.193 L 108.3 1295.943 C 105.568 1296.651 100.371 1298.105 95.641 1300.042 L 94.946 1300.332 C 93.409 1300.984 91.938 1301.685 90.638 1302.429 C 85.426 1305.75 79.278 1312.675 79.278 1324.144 L 79.278 1338.171 C 79.39 1339.72 80.109 1342.908 84.097 1343.001 C 84.097 1343.001 84.097 1338.171 84.097 1338.171 Z " fill="rgb(0,0,0)"/></g><g opacity="0.2"><path d=" M 161.031 1343.006 L 161.031 1323.736 C 161.031 1322.526 160.05 1321.545 158.84 1321.545 C 157.63 1321.545 156.649 1322.526 156.649 1323.736 L 156.649 1343.006 L 161.031 1343.006 Z " fill="rgb(0,0,0)"/></g><g opacity="0.2"><path d=" M 99.137 1343.006 L 99.137 1323.736 C 99.137 1322.526 98.157 1321.545 96.947 1321.545 C 95.736 1321.545 94.756 1322.526 94.756 1323.736 L 94.756 1343.006 L 99.137 1343.006 Z " fill="rgb(0,0,0)"/></g></g><path d=" M 154.533 1248.369 C 153.355 1248.002 152.076 1248.216 151.082 1248.946 C 150.09 1249.677 149.503 1250.837 149.503 1252.07 L 149.503 1263.115 C 149.503 1264.347 150.089 1265.506 151.082 1266.236 C 151.757 1266.732 152.563 1266.99 153.38 1266.99 C 153.765 1266.99 154.155 1266.933 154.532 1266.814 C 155.275 1266.583 156.005 1266.249 156.701 1265.822 C 157.111 1265.571 157.47 1265.244 157.762 1264.863 C 158.189 1264.642 158.572 1264.344 158.891 1263.984 C 160.457 1262.213 161.32 1259.943 161.32 1257.591 C 161.32 1253.341 158.593 1249.634 154.533 1248.369 Z " fill="rgb(126,86,89)"/><path d=" M 105.356 1248.946 C 104.362 1248.216 103.082 1248.002 101.905 1248.368 C 97.846 1249.634 95.117 1253.341 95.117 1257.59 C 95.117 1261.842 97.846 1265.548 101.905 1266.814 C 102.283 1266.933 102.672 1266.99 103.059 1266.99 C 103.875 1266.99 104.681 1266.732 105.356 1266.236 C 106.349 1265.506 106.935 1264.346 106.935 1263.114 L 106.935 1252.068 C 106.935 1250.837 106.35 1249.677 105.356 1248.946 Z " fill="rgb(126,86,89)"/><path d=" M 151.844 1248.519 C 151.844 1248.519 151.86 1248.439 151.866 1248.311 L 151.866 1248.118 C 151.842 1247.655 151.638 1246.897 150.676 1246.426 L 149.627 1246.175 C 139.485 1243.739 133.414 1238.827 130.538 1235.891 C 130.538 1235.891 130.538 1235.891 130.538 1235.89 C 128.092 1233.651 125.556 1235.89 125.556 1235.89 L 125.556 1235.89 C 118.648 1241.899 110.081 1245.028 106.653 1246.111 L 106.194 1246.256 C 106.193 1246.256 106.193 1246.257 106.193 1246.257 C 105.025 1246.641 104.693 1247.387 104.612 1247.918 L 104.612 1264.849 C 104.612 1276.642 114.206 1286.236 125.999 1286.236 L 130.481 1286.236 C 142.273 1286.236 151.866 1276.642 151.866 1264.849 L 151.866 1248.501 L 151.844 1248.519 Z " fill="rgb(126,86,89)"/><g><g opacity="0.1"><path d=" M 129.723 1235.303 C 127.56 1234.124 125.556 1235.89 125.556 1235.89 L 125.556 1235.89 C 118.648 1241.899 110.081 1245.028 106.653 1246.111 L 106.194 1246.256 C 106.193 1246.256 106.193 1246.257 106.193 1246.257 C 105.025 1246.641 104.693 1247.387 104.612 1247.918 L 104.612 1264.849 C 104.612 1276.642 114.206 1286.236 125.999 1286.236 L 129.504 1286.236 C 117.712 1286.236 108.118 1276.642 108.118 1264.849 L 108.118 1249.152 C 108.118 1247.223 109.533 1246.379 110.344 1246.052 C 110.518 1245.996 110.702 1245.937 110.899 1245.871 L 110.9 1245.871 L 110.9 1245.871 C 114.818 1244.567 123.077 1241.322 129.629 1235.388 L 129.723 1235.303 Z " fill="rgb(0,0,0)"/></g><g opacity="0.1"><path d=" M 130.117 1264.418 C 130.923 1264.418 131.578 1265.074 131.578 1265.879 C 131.578 1266.684 130.922 1267.339 130.117 1267.339 L 126.385 1267.339 C 125.58 1267.339 124.925 1266.684 124.925 1265.879 L 124.925 1258.76 C 124.925 1257.954 125.58 1257.299 126.385 1257.299 C 127.191 1257.299 127.846 1257.955 127.846 1258.76 L 127.846 1264.418 L 130.117 1264.418 Z " fill="rgb(0,0,0)"/></g></g><g opacity="0.2"><linearGradient id="_lgradient_10" x1="0.4733333333333334" y1="0.1877729257641949" x2="0.47333333333333344" y2="0.7379912663755483" gradientTransform="matrix(42.822,0,0,80.223,87.608,1207.179)" gradientUnits="userSpaceOnUse"><stop offset="0%" stop-opacity="1" style="stop-color:rgb(31,73,128)"/><stop offset="100%" stop-opacity="1" style="stop-color:rgb(15,36,64)"/></linearGradient><path d=" M 96.183 1284.589 C 96.359 1284.855 96.538 1285.119 96.718 1285.382 C 98.831 1288.123 101.564 1287.355 102.189 1287.132 C 102.234 1287.115 102.277 1287.097 102.322 1287.08 L 101.97 1286.605 C 95.534 1277.889 91.989 1266.71 91.989 1255.128 C 91.989 1229.556 109.04 1208.597 130.43 1207.249 C 129.704 1207.204 128.974 1207.179 128.239 1207.179 C 105.835 1207.179 87.608 1228.689 87.608 1255.128 C 87.608 1265.724 90.576 1275.981 96.01 1284.325 C 96.067 1284.406 96.126 1284.494 96.183 1284.589 Z " fill="url(#_lgradient_10)"/></g></g></g><circle vector-effect="non-scaling-stroke" cx="129.0000000000001" cy="1266.921875" r="75" fill="transparent" stroke-width="3" stroke="rgb(15,36,64)" stroke-linejoin="miter" stroke-linecap="square" stroke-miterlimit="3"/></svg>